<svg id="Ebene_1" data-name="Ebene 1" xmlns="http://www.w3.org/2000/svg" viewBox="0 0 341.896 99.3"><path d="M366.248,119.121a14.058,14.058,0,0,1-3.5,4.2,17.147,17.147,0,0,1-5.15,2.85,18.5,18.5,0,0,1-6.25,1.05,16.106,16.106,0,0,1-9.8-2.8,8.663,8.663,0,0,1-3.8-7.3,10.641,10.641,0,0,1,.65-3.75,21.2,21.2,0,0,1,2.65-4.55h22.7a3.278,3.278,0,0,1,2.75,1.4,6.2,6.2,0,0,1,1.05,3.8,10.569,10.569,0,0,1-1.3,5.1m-7.65-33.4a10.633,10.633,0,0,1-15.95,0q-2.9-3.6-2.9-9.7t2.9-9.65a10.733,10.733,0,0,1,15.95,0q2.947,3.551,2.95,9.65t-2.95,9.7m16.35-19v-6.3l-7.1,1.7h-6.4q-2-1-3.4-1.6a18.415,18.415,0,0,0-2.55-.9,13.942,13.942,0,0,0-2.3-.4q-1.15-.1-2.65-.1-8.6,0-13.7,4.691t-5.1,12.773q0,9.183,8.6,14.172-2.1,1.808-3.55,3.111a23.538,23.538,0,0,0-2.55,2.661,28.488,28.488,0,0,0-2.1,2.961q-1,1.605-2.3,3.812a21.928,21.928,0,0,0,3.8,3.614,9.762,9.762,0,0,0,3.7,1.405q-1.8,2.3-2.95,3.8a28.876,28.876,0,0,0-1.95,2.85,30.388,30.388,0,0,0-1.45,2.75q-.652,1.4-1.45,3.4a39.037,39.037,0,0,0,4.2,4.65,20.2,20.2,0,0,0,4.4,3.15,18.914,18.914,0,0,0,5,1.75,29.624,29.624,0,0,0,5.9.55,30.393,30.393,0,0,0,9.95-1.6,26.315,26.315,0,0,0,8.1-4.4,21.318,21.318,0,0,0,5.45-6.55,16.656,16.656,0,0,0,2-7.95q0-4.4-2-6.8a6.89,6.89,0,0,0-5.6-2.4h-25q-2.9,0-2.9-2.6a5.664,5.664,0,0,1,.95-2.95,22.709,22.709,0,0,1,3.25-3.85,17.365,17.365,0,0,0,1.95.6c.565.134,1.1.25,1.6.35a11.593,11.593,0,0,0,1.6.2q.847.051,1.95.05,8.9,0,14-4.65t5.1-12.65a16.2,16.2,0,0,0-.7-5.15,12.9,12.9,0,0,0-2.5-4.15ZM313.2,90.821a22.048,22.048,0,0,1-2.839,6.25,13.921,13.921,0,0,1-4.235,4.15,9.816,9.816,0,0,1-5.229,1.5,9.576,9.576,0,0,1-5.23-1.55,14.5,14.5,0,0,1-4.234-4.2,21.065,21.065,0,0,1-2.791-6.25,28.766,28.766,0,0,1-1-7.7,29.165,29.165,0,0,1,1-7.8,21.076,21.076,0,0,1,2.791-6.25,13.93,13.93,0,0,1,4.234-4.15,9.866,9.866,0,0,1,10.459,0,13.933,13.933,0,0,1,4.235,4.15,22.061,22.061,0,0,1,2.839,6.25,29.578,29.578,0,0,1,0,15.6m7.947-17.1a22.86,22.86,0,0,0-11.7-12.7,19.963,19.963,0,0,0-17,0,22.86,22.86,0,0,0-11.7,12.7,26.425,26.425,0,0,0,0,18.65,23.306,23.306,0,0,0,4.7,7.55,23.053,23.053,0,0,0,7,5.1,19.963,19.963,0,0,0,17,0,23.078,23.078,0,0,0,7-5.1,23.341,23.341,0,0,0,4.7-7.55,26.425,26.425,0,0,0,0-18.65m-47.4,31.9v-3.7h-7.5v-70h-1.925l-14.475,3.9v2.7h8.8v63.4h-7.6v3.7ZM244.4,72.521a21.438,21.438,0,0,0-3.85-7.1,17.656,17.656,0,0,0-5.9-4.65,16.951,16.951,0,0,0-7.5-1.65,23.547,23.547,0,0,0-4.2.4,44.5,44.5,0,0,0-6,1.7v3.3h7.3a11.053,11.053,0,0,1,9.45,4.75q3.45,4.751,3.45,12.95a26.057,26.057,0,0,1-1.245,8.25,20.866,20.866,0,0,1-3.436,6.5,15.274,15.274,0,0,1-5.228,4.25,14.964,14.964,0,0,1-6.72,1.5,13.587,13.587,0,0,1-3.288-.35,32.368,32.368,0,0,1-3.883-1.35v-69.1h-1.823l-14.477,3.9v2.7h8.7v66.3q4.4,1.1,7.55,1.6a41.125,41.125,0,0,0,6.45.5,30.278,30.278,0,0,0,10.7-1.8,22.5,22.5,0,0,0,13.45-13.2,28.172,28.172,0,0,0,1.85-10.4,28.644,28.644,0,0,0-1.35-9m-51.7,22.75a6.76,6.76,0,1,0,1.95,4.75,6.465,6.465,0,0,0-1.95-4.75m-19.049,10.35v-4.2h-5.9v-42.1h-3.9l-14.4,3.9v3.2h6.6v35h-5.9v4.2Zm-28.4,0v-4.2h-5.9v-29.8q0-6.1-3.3-9.3t-9.7-3.2a21.013,21.013,0,0,0-4.3.4,14.941,14.941,0,0,0-3.75,1.35,21.693,21.693,0,0,0-3.8,2.55,51.478,51.478,0,0,0-4.35,4.1l-.1-8.2h-4.362l-14.338,3.9v3.2h7v35h-5.9v4.2h23.4v-4.2h-5.8v-28.6q2.415-2.3,4.074-3.75a19.223,19.223,0,0,1,2.965-2.2,8.718,8.718,0,0,1,2.464-1,12.76,12.76,0,0,1,2.666-.25q3.117,0,4.275,1.7t1.156,6.2v27.9h-5.9v4.2Zm-57.1-2.8v-3.3h-7v-40.2h-3.6l-13.2,3.5v3.6h5.1v26.5q-2,2.1-3.5,3.55a15.743,15.743,0,0,1-2.85,2.25,10.877,10.877,0,0,1-2.6,1.15,10.156,10.156,0,0,1-2.75.35,5.158,5.158,0,0,1-4.5-1.95q-1.4-1.95-1.4-6.25v-32.7h-4.4l-14.4,3.9v3.2h7.1v27.6q0,12.9,13.1,12.9a19.752,19.752,0,0,0,4.15-.4,14.052,14.052,0,0,0,3.7-1.4,21.373,21.373,0,0,0,3.85-2.75q2-1.749,4.5-4.35v8.4h4.3Z" transform="translate(-33.052 -31.921)" fill="#1d1d1b"/></svg>