<svg xmlns="http://www.w3.org/2000/svg" xml:space="preserve" id="Ebene_1" x="0px" y="0px" version="1.1" viewBox="0 0 94.4 18.1"><style>.st0,.st1{fill:#fff}</style><path d="M-319-234.2c0 .9-.8 1.7-1.7 1.7h-15.6c-.9 0-1.7-.8-1.7-1.7v-11.5c0-.9.8-1.7 1.7-1.7h15.6c.9 0 1.7.8 1.7 1.7zm-1.7-11.8h-15.6c-.2 0-.3.2-.3.3 0 1.2.6 2.3 1.6 3 1.4 1.1 2.8 2.2 4.3 3.4.6.5 1.6 1.4 2.3 1.4s1.8-1 2.3-1.4c1.4-1.1 2.8-2.2 4.3-3.4.7-.5 1.6-1.7 1.6-2.6-.1-.3-.1-.7-.5-.7m.4 3.7c-.2.3-.5.5-.7.7l-4.5 3.6c-.8.7-1.8 1.5-2.9 1.5s-2.1-.8-2.9-1.5l-4.5-3.6c-.3-.2-.5-.4-.7-.7v8.1c0 .2.2.3.3.3h15.6c.2 0 .3-.2.3-.3zm26.7-.4-3.8 3.8.9 5.3v.2c0 .3-.1.5-.4.5-.1 0-.3-.1-.4-.1l-4.8-2.5-4.8 2.5c-.1.1-.3.1-.4.1-.3 0-.4-.3-.4-.5v-.2l.9-5.3-3.9-3.8c-.1-.1-.3-.3-.3-.5 0-.3.3-.4.6-.5l5.3-.8 2.4-4.8c.1-.2.3-.4.5-.4s.4.2.5.4l2.4 4.8 5.3.8c.3 0 .6.2.6.5 0 .1-.1.3-.2.5m24.5 11.6c-.4 0-.7-.1-1-.4l-3.6-3.6c-1.2.9-2.7 1.3-4.2 1.3-4.1 0-7.5-3.3-7.5-7.5s3.3-7.5 7.5-7.5 7.5 3.3 7.5 7.5c0 1.5-.5 3-1.3 4.2l3.6 3.6c.2.2.4.6.4 1 0 .8-.6 1.4-1.4 1.4m-8.8-14.9c-2.6 0-4.8 2.1-4.8 4.8s2.1 4.8 4.8 4.8 4.8-2.1 4.8-4.8-2.2-4.8-4.8-4.8m35.6 2.6-7.7 7.7-1.4 1.4c-.2.2-.5.3-.7.3s-.5-.1-.7-.3l-1.4-1.4-3.8-3.8c-.2-.2-.3-.5-.3-.7s.1-.5.3-.7l1.4-1.4c.2-.2.5-.3.7-.3s.5.1.7.3l3.1 3.1 7-7c.2-.2.5-.3.7-.3.3 0 .5.1.7.3l1.4 1.4c.2.2.3.5.3.7s-.1.5-.3.7m26.2 3.9c-.1.1-.1.1-.2.1s-.2 0-.2-.1l-7.3-6.1-7.3 6.1c-.1.1-.2.1-.3.1s-.2-.1-.2-.1l-.7-.8c-.1-.1-.1-.4 0-.5l7.6-6.4c.4-.4 1.2-.4 1.6 0l2.6 2.2v-2.1q0-.3.3-.3h2q.3 0 .3.3v4.3l2.3 1.9c.1.1.2.3 0 .5zm-1.7 5c0 .4-.3.7-.7.7h-4.1v-4.1h-2.7v4.1h-4.1c-.4 0-.7-.3-.7-.7v-5.2l6.1-5 6.1 5v5.2zm28.3-1c0 .2-.2.3-.3.3h-2.4v1.7c0 .6-.5 1-1 1h-10.2c-.6 0-1-.5-1-1v-1.7h-2.4c-.2 0-.3-.2-.3-.3v-4.4c0-1.1.9-2 2-2h.7v-5.8c0-.6.5-1 1-1h7.1c.6 0 1.3.3 1.7.7l1.6 1.6c.4.4.7 1.2.7 1.7v2.7h.7c1.1 0 2 .9 2 2v4.5zm-4.1-5.1v-4.1h-1.7c-.6 0-1-.5-1-1v-1.7h-6.8v6.8zm0 6.8v-2.7h-9.5v2.7zm2.1-6.8c-.4 0-.7.3-.7.7s.3.7.7.7.7-.3.7-.7-.4-.7-.7-.7m18.1 8.1c-4.5 0-8.1-3.6-8.1-8.1s3.6-8.1 8.1-8.1 8.1 3.6 8.1 8.1-3.6 8.1-8.1 8.1m0-13.9c-3.2 0-5.8 2.6-5.8 5.8s2.6 5.8 5.8 5.8zm31.1 9.5c0 1.7-1.4 3.1-3.1 3.1h-8.8c-1.7 0-3.1-1.4-3.1-3.1v-8.8c0-1.7 1.4-3.1 3.1-3.1h2.7q.3 0 .3.3t-.3.3c-.5.2-1 .4-1.4.6h-1.4c-.9 0-1.7.8-1.7 1.7v8.8c0 .9.8 1.7 1.7 1.7h8.8c.9 0 1.7-.8 1.7-1.7v-2.3c0-.1.1-.2.2-.3.2-.1.4-.2.6-.4.1-.1.2-.1.4-.1s.2.2.2.3v3zm-1.6-3.9c-.1.1-.3.2-.5.2-.1 0-.2 0-.3-.1-.2-.1-.4-.3-.4-.6v-2h-1.7c-2.3 0-3.8.4-4.6 1.4-.9 1-1.1 2.6-.8 5 0 .1-.1.3-.2.4h-.1c-.1 0-.2-.1-.3-.1-.1-.1-1.8-2.5-1.8-4.6 0-2.8.9-6.1 7.8-6.1h1.7v-2c0-.3.2-.5.4-.6.1 0 .2-.1.3-.1.2 0 .3.1.5.2l4.1 4.1c.3.3.3.7 0 1zm26.9 5.3c-.2.5-.8.9-1.3 1.1-.6.3-1.3.5-2 .5-1 0-1.9-.4-2.8-.7-.6-.2-1.3-.5-1.9-.9-1.8-1.1-4-3.3-5.1-5.1-.4-.6-.6-1.2-.9-1.9-.3-.9-.7-1.8-.7-2.8 0-.7.2-1.3.5-2 .3-.5.6-1.1 1.1-1.3.3-.2 1.1-.3 1.5-.3h.2c.2.1.5.6.6.8.3.6.7 1.2 1 1.8.2.3.5.6.5.9 0 .6-1.9 1.6-1.9 2.2 0 .3.3.7.4.9 1.1 1.9 2.4 3.3 4.3 4.3.3.1.6.4.9.4.6 0 1.5-1.9 2.2-1.9.3 0 .7.3.9.5.6.4 1.2.7 1.8 1 .2.1.7.3.8.6v.2c.2.6 0 1.4-.1 1.7m23.2-1.4c0 1.7-1.4 3.1-3.1 3.1h-8.8c-1.7 0-3.1-1.4-3.1-3.1v-8.8c0-1.7 1.4-3.1 3.1-3.1h7.5q.3 0 .3.3v.7q0 .3-.3.3h-7.5c-.9 0-1.7.8-1.7 1.7v8.8c0 .9.8 1.7 1.7 1.7h8.8c.9 0 1.7-.8 1.7-1.7v-3.4q0-.3.3-.3h.7q.3 0 .3.3v3.5zm4.1-7.1c0 .4-.3.7-.7.7-.2 0-.3-.1-.5-.2l-1.9-1.9-6.9 6.9c-.1.1-.2.1-.2.1s-.2 0-.2-.1l-1.2-1.2c-.1-.1-.1-.2-.1-.2s0-.2.1-.2l6.9-6.9-1.9-1.9c-.1-.1-.2-.3-.2-.5 0-.4.3-.7.7-.7h5.4c.4 0 .7.3.7.7zm15.4 7.5c-.6 0-1.3-.1-1.9-.2-.9.6-1.9 1.1-2.9 1.4-.3.1-.6.1-.9.2q-.3 0-.3-.3c0-.2.1-.3.2-.5.4-.5.9-.9 1.2-1.8-1.7-1-2.8-2.5-2.8-4.3 0-3 3.3-5.4 7.5-5.4s7.5 2.4 7.5 5.4-3.5 5.5-7.6 5.5m8.7 1.5c.4.9.8 1.3 1.2 1.8.1.1.3.3.2.5 0 .2-.2.3-.4.3-.3 0-.6-.1-.9-.2-1.1-.3-2.1-.7-2.9-1.4-.6.1-1.2.2-1.9.2-1.9 0-3.7-.5-5-1.4h.9c2.3 0 4.4-.7 6.1-1.8 1.8-1.3 2.7-3 2.7-4.9 0-.6-.1-1.1-.2-1.6 1.8 1 3 2.6 3 4.3.1 1.7-1 3.2-2.8 4.2m27.1-10.7v10.2c0 1.7-1.4 3.1-3.1 3.1h-2v-6.3h2.1l.3-2.5h-2.4v-1.6c0-.7.2-1.2 1.2-1.2h1.3v-2.2c-.2 0-1-.1-1.9-.1-1.9 0-3.2 1.1-3.2 3.2v1.8h-2.1v2.5h2.1v6.3h-5.6c-1.7 0-3.1-1.4-3.1-3.1v-10.2c0-1.7 1.4-3.1 3.1-3.1h10.2c1.7.1 3.1 1.5 3.1 3.2m24.3 3.7H-23c-1.3 0-3 .8-3.8 1.8l-3.6 4.2-.1.1v-10.5c0-1.3 1.1-2.4 2.4-2.4h3.4c1.3 0 2.4 1.1 2.4 2.4v.3h5.8c1.3 0 2.4 1.1 2.4 2.4v1.7zm3.3 2.7-3.6 4.2c-.6.7-1.9 1.3-2.8 1.3h-11.5c-.4 0-.9-.1-.9-.6 0-.3.2-.5.3-.7l3.6-4.2c.6-.7 1.9-1.3 2.8-1.3h11.5c.4 0 .9.1.9.6 0 .2-.1.5-.3.7m18.7 5.6c-.3.3-.7.3-1 0l-7.9-7.9c-.3-.3-.3-.7 0-1l1.8-1.7c.3-.3.7-.3 1 0l5.6 5.6 5.6-5.6c.3-.3.7-.3 1 0l1.8 1.7c.3.3.3.7 0 1zM40.3-244v.4c0 4.5-3.4 9.7-9.7 9.7-1.9 0-3.7-.6-5.3-1.5h.8c1.6 0 3.1-.5 4.3-1.5-1.5 0-2.8-1-3.2-2.4.2 0 .4.1.6.1.3 0 .6 0 .9-.1-1.6-.3-2.7-1.7-2.7-3.4.5.3 1 .4 1.5.4-.9-.6-1.5-1.7-1.5-2.9 0-.6.2-1.2.5-1.7 1.7 2.1 4.2 3.4 7.1 3.6-.1-.3-.1-.5-.1-.8 0-1.9 1.5-3.4 3.4-3.4 1 0 1.9.4 2.5 1.1.8-.1 1.5-.4 2.2-.8-.3.8-.8 1.5-1.5 1.9.7-.1 1.4-.3 2-.5q-.9 1.05-1.8 1.8m26.7 8.9-1.6 1.5c-.6.6-1.3.9-2.2.9-.8 0-1.6-.3-2.2-.9l-2.2-2.2c-.6-.6-.9-1.3-.9-2.2 0-.8.3-1.6.9-2.2l-.9-.9c-.6.6-1.4.9-2.2.9s-1.6-.3-2.2-.9l-2.2-2.2c-.6-.6-.9-1.3-.9-2.2 0-.8.3-1.6.9-2.2l1.6-1.5c.6-.6 1.3-.9 2.2-.9.8 0 1.6.3 2.2.9l2.2 2.2c.6.6.9 1.3.9 2.2 0 .8-.3 1.6-.9 2.2l.9.9c.6-.6 1.4-.9 2.2-.9s1.6.3 2.2.9l2.2 2.2c.6.6.9 1.3.9 2.2s-.3 1.7-.9 2.2m-8.9-10.3-2.2-2.2c-.2-.2-.5-.3-.7-.3-.3 0-.5.1-.7.3l-1.6 1.5c-.2.2-.3.4-.3.7s.1.5.3.7l2.2 2.2c.2.2.5.3.7.3.3 0 .6-.1.8-.3-.3-.4-.8-.6-.8-1.2s.5-1 1-1 .8.4 1.2.8c.2-.2.3-.5.3-.8.1-.3 0-.5-.2-.7m7.5 7.5-2.2-2.2c-.2-.2-.5-.3-.7-.3-.3 0-.6.1-.8.3.3.4.8.6.8 1.2s-.5 1-1 1-.8-.4-1.2-.8c-.2.2-.3.5-.3.8s.1.5.3.7l2.2 2.2c.2.2.5.3.7.3.3 0 .5-.1.7-.3l1.6-1.5c.2-.2.3-.4.3-.7-.1-.3-.2-.6-.4-.7m27.6-4.9c-1.7 1.1-3.3 2.3-5 3.4-.7.5-1.9 1.5-2.7 1.5-.9 0-2-1-2.7-1.5-1.6-1.2-3.3-2.3-5-3.4-.8-.5-1.8-1.7-1.8-2.7s.6-1.9 1.7-1.9h15.6c.9 0 1.7.8 1.7 1.7.1 1.2-.8 2.3-1.8 2.9m1.9 8.6c0 .9-.8 1.7-1.7 1.7H77.8c-.9 0-1.7-.8-1.7-1.7v-8.4c.3.4.7.7 1.1.9 1.8 1.2 3.5 2.4 5.3 3.7.9.7 2 1.5 3.1 1.5 1.2 0 2.3-.8 3.1-1.5 1.7-1.3 3.5-2.5 5.3-3.7.4-.3.7-.6 1.1-.9zm24.2-1.3c0 1.7-1.4 3.1-3.1 3.1H106c-1.7 0-3.1-1.4-3.1-3.1v-10.2c0-1.7 1.4-3.1 3.1-3.1h10.2c1.7 0 3.1 1.4 3.1 3.1zm-13.2-10.2c-.1 0-.2 0-.2.1-.1.1-.1.1-.1.2v1.4q0 .3.3.3c4.4.2 8 3.7 8.1 8.1 0 .2.2.3.3.3h1.4c.1 0 .2 0 .2-.1.1-.1.1-.1.1-.2-.1-5.4-4.6-9.9-10.1-10.1m0 4.1c-.1 0-.2 0-.3.1s-.1.1-.1.2v1.4q0 .3.3.3c2.2.2 3.9 1.9 4.1 4.1 0 .2.2.3.3.3h1.4c.1 0 .2 0 .2-.1.1-.1.1-.2.1-.3-.1-3.2-2.7-5.8-6-6m1 3.7c-.8 0-1.4.6-1.4 1.4s.6 1.4 1.4 1.4 1.4-.6 1.4-1.4-.6-1.4-1.4-1.4m36.5-6.4v12.2c0 .6-.5 1-1 1h-14.3c-.6 0-1-.5-1-1v-17c0-.6.5-1 1-1h9.5c.6 0 1.3.3 1.7.7l3.3 3.3c.5.4.8 1.2.8 1.8m-1.4 1h-4.4c-.6 0-1-.5-1-1v-4.4h-8.1v16.3h13.6v-10.9zm-4.5 5.1c.4-.1.9-.1 1.2-.1.7 0 1.6.1 1.9.5q.15.15 0 .6c0 .2-.2.4-.8.4-.7 0-1.7-.3-2.6-.8-1.5.2-3 .5-4.2.9-1.1 1.9-1.9 2.8-2.6 2.8-.1 0-.2 0-.3-.1l-.3-.1-.1-.1c-.1-.1-.1-.2-.1-.4.1-.5.7-1.3 2-2 .1-.1.2 0 .2.1.3-.5.7-1.2 1.1-2.1.5-1 .8-1.9 1.1-2.8-.3-1.2-.4-2.3-.3-3 .1-.3.2-.4.4-.4h.2c.2 0 .3.1.4.2s.2.4.1.7v.5c0 .7 0 1.3-.1 2 .4 1.1.9 2 1.5 2.5.6.4.9.5 1.3.7m-5.6 2.1c-.8.6-1.3 1.3-1.5 1.7.4-.1.8-.6 1.5-1.7m4.5-1.9c-.1-.1-.2-.2-.3-.2-.5-.5-1-1.1-1.3-1.9q-.3.9-.9 2.1c-.2.3-.3.6-.5.9.9-.4 2-.7 3-.9m-1.7-4.8c0-.2.1-.3.1-.5s.1-.3.1-.5v-.2c0-.2-.1-.3-.1-.4-.2.5-.2 1.1-.1 1.6m3.3-1.9h4l-.2-.4-3.3-3.3c-.1-.1-.3-.2-.4-.2v3.9zm.7 7.1c.5.2 1 .3 1.3.3h.2c0-.1-.3-.3-1.5-.3m29-6.7v12.2c0 .6-.5 1-1 1h-14.3c-.6 0-1-.5-1-1v-17c0-.6.5-1 1-1h9.5c.6 0 1.3.3 1.7.7l3.3 3.3c.4.4.8 1.2.8 1.8m-1.4 1h-4.4c-.6 0-1-.5-1-1v-4.4H153v16.3h13.6v-10.9zm-12.5 2.5h.7l1.7 7h1.7l1.4-5.1c.1-.2.1-.3.1-.5v-.3.3c0 .1 0 .3.1.5l1.4 5.1h1.7l1.7-7h.7v-1.1H162v1.1h1l-1 4.6c0 .2-.1.3-.1.5v.2-.2c0-.1-.1-.3-.1-.5l-1.5-5.8h-1.2l-1.5 5.8c0 .2-.1.3-.1.5v.2-.2c0-.1 0-.3-.1-.5l-1-4.6h1v-1.1H154zm8.4-3.9h4l-.2-.4-3.3-3.3c-.1-.1-.3-.2-.4-.2v3.9zm29.7.4v12.2c0 .6-.5 1-1 1h-14.3c-.6 0-1-.5-1-1v-17c0-.6.5-1 1-1h9.5c.6 0 1.3.3 1.7.7l3.3 3.3c.5.4.8 1.2.8 1.8m-1.3 1h-4.4c-.6 0-1-.5-1-1v-4.4h-8.1v16.3h13.6v-10.9zm-10.4 9.5h3v-1.1h-.8l1.1-1.7.2-.4s0 .1.1.1c0 .1.1.1.2.3l1.1 1.7h-.8v1.1h3.1v-1.1h-.7l-2-2.9 2.1-3h.7v-1.1h-3v1.1h.8l-1.1 1.7-.2.4s0-.1-.1-.1c0-.1-.1-.1-.2-.2l-1.1-1.7h.8v-1.1h-3.1v1.1h.7l2 2.9-2.1 3h-.7zm6.3-10.9h4l-.2-.4-3.3-3.3c-.1-.1-.3-.2-.4-.2v3.9zm29.7.4v12.2c0 .6-.5 1-1 1h-14.3c-.6 0-1-.5-1-1v-17c0-.6.5-1 1-1h9.5c.6 0 1.3.3 1.7.7l3.3 3.3c.5.4.8 1.2.8 1.8m-1.4 1h-4.4c-.6 0-1-.5-1-1v-4.4h-8.1v16.3H215zm-12.2 2c0-1.1.9-2 2-2s2 .9 2 2-.9 2-2 2-2-.9-2-2m10.9 7.5h-10.9v-2l2-2 1.4 1.4 4.1-4.1 3.4 3.4zm-2.7-10.9h4l-.2-.4-3.3-3.3c-.1-.1-.3-.2-.4-.2v3.9zm32.6 2c-2.5-2.2-5.1-3.4-8.4-3.4s-5.9 1.2-8.4 3.4c-.1.1-.1.1-.2.1-.2 0-1.8-1.5-1.8-1.8 0-.1 0-.2.1-.2 2.7-2.7 6.6-4.1 10.3-4.1s7.6 1.5 10.3 4.1c.1.1.1.1.1.2 0 .3-1.5 1.8-1.8 1.8 0 0-.1 0-.2-.1m-2.9 2.9c-1.8-1.4-3.2-2.2-5.5-2.2-3.2 0-5.6 2.2-5.8 2.2s-1.8-1.5-1.8-1.8c0-.1 0-.2.1-.2 1.9-1.9 4.8-2.9 7.4-2.9s5.5 1 7.4 2.9c.1.1.1.1.1.2 0 .3-1.5 1.8-1.8 1.8.1.1 0 0-.1 0m-5.5 1.9c-1.6 0-2.7 1.1-2.9 1.1-.3 0-1.8-1.5-1.8-1.8 0-.1 0-.2.1-.2 1.1-1.1 3-1.8 4.5-1.8s3.4.6 4.5 1.8c.1.1.1.1.1.2 0 .3-1.5 1.8-1.8 1.8 0 0-1.1-1.1-2.7-1.1m-1.7 2.2c0-.5 1.4-.8 1.8-.8s1.8.3 1.8.8c0 .3-1.5 1.8-1.8 1.8s-1.8-1.5-1.8-1.8m-560.2 25-.5.5c-.1.1-.1.1-.2.1s-.2 0-.2-.1l-4.2-4.2-4.2 4.2c-.1.1-.2.1-.2.1s-.2 0-.2-.1l-.5-.5c-.1-.1-.1-.2-.1-.2s0-.2.1-.2l4.9-4.9c.1-.1.2-.1.2-.1s.2 0 .2.1l4.9 4.9c.1.1.1.2.1.2s0 .1-.1.2m20.2-4.8-4.9 4.9c-.1.1-.2.1-.2.1s-.2 0-.2-.1l-4.9-4.9c-.1-.1-.1-.2-.1-.2s0-.2.1-.2l.5-.5c.1-.1.1-.1.2-.1s.2 0 .2.1l4.2 4.2 4.2-4.2c.1-.1.2-.1.2-.1s.2 0 .2.1l.5.5c.1.1.1.2.1.2s0 .1-.1.2m15.1 2.4-4.9 4.9c-.1.1-.2.1-.2.1s-.2 0-.2-.1l-.5-.5c-.1-.1-.1-.1-.1-.2s0-.2.1-.2l4.2-4.2-4.2-4.2c-.1-.1-.1-.2-.1-.2s0-.2.1-.2l.5-.5c.1-.1.2-.1.2-.1s.2 0 .2.1l4.9 4.9c.1.1.1.2.1.2s0 .1-.1.2m15.1-4.4-4.2 4.2 4.2 4.2c.1.1.1.2.1.2s0 .2-.1.2l-.5.5c-.1.1-.2.1-.2.1s-.2 0-.2-.1l-4.9-4.9c-.1-.1-.1-.2-.1-.2s0-.2.1-.2l4.9-4.9c.1-.1.2-.1.2-.1s.2 0 .2.1l.5.5c.1.1.1.1.1.2 0 0 0 .1-.1.2m16.4 9.2c0 .4-.3.7-.7.7-.2 0-.4-.1-.5-.2l-3.5-3.5h-2.8c-.4 0-.7-.3-.7-.7v-4.1c0-.4.3-.7.7-.7h2.8l3.5-3.5c.1-.1.3-.2.5-.2.4 0 .7.3.7.7zm2.4-3.2c-.1 0-.2.1-.3.1-.4 0-.7-.3-.7-.7 0-.8 1.2-.6 1.2-1.9s-1.2-1.1-1.2-1.9c0-.4.3-.7.7-.7.1 0 .2 0 .3.1 1 .4 1.6 1.4 1.6 2.5s-.6 2.1-1.6 2.5m1.1 2.5c-.1 0-.2.1-.3.1-.4 0-.7-.3-.7-.7 0-.3.2-.5.4-.6.3-.1.6-.3.8-.5 1-.8 1.7-2 1.7-3.3s-.6-2.5-1.7-3.3c-.3-.2-.5-.3-.8-.5-.2-.1-.4-.3-.4-.6 0-.4.3-.7.7-.7.1 0 .2 0 .3.1 2 .8 3.3 2.8 3.3 5s-1.3 4.1-3.3 5m1.1 2.5c-.1 0-.2.1-.3.1-.4 0-.7-.3-.7-.7 0-.3.2-.5.4-.6.1-.1.3-.1.5-.2.3-.2.6-.3.9-.5 1.7-1.3 2.8-3.3 2.8-5.5s-1-4.2-2.8-5.5c-.3-.2-.6-.4-.9-.5-.2-.1-.3-.1-.5-.2-.3-.1-.4-.3-.4-.6 0-.4.3-.7.7-.7.1 0 .2 0 .3.1 3 1.3 4.9 4.2 4.9 7.5s-2 6-4.9 7.3m29-14c.4 0 1.2 0 1.9.8 0 0 .6.6.8 1.9.2 1.5.2 3.1.2 3.1v1.4s0 1.5-.2 3.1c-.2 1.3-.8 1.9-.8 1.9-.7.8-1.5.8-1.9.8 0 0-2.7.2-6.6.2-4.9 0-6.5-.2-6.5-.2-.4-.1-1.4-.1-2.1-.8 0 0-.6-.6-.8-1.9-.2-1.5-.2-3.1-.2-3.1v-1.4s0-1.5.2-3.1c.2-1.3.8-1.9.8-1.9.7-.8 1.5-.8 1.9-.8 0 0 2.7-.2 6.6-.2s6.7.2 6.7.2m-3.5 6.3-5.1-2.7v5.3zm30.6-2.5v11.2c0 .6-.5 1-1 1h-14.3c-.6 0-1-.5-1-1v-17c0-.6.5-1 1-1h8.5v5.8c0 .6.5 1 1 1zm-4 1.6q0-.3-.3-.3h-7.5q-.3 0-.3.3v.7q0 .3.3.3h7.5q.3 0 .3-.3zm0 2.8q0-.3-.3-.3h-7.5q-.3 0-.3.3v.7q0 .3.3.3h7.5q.3 0 .3-.3zm0 2.7q0-.3-.3-.3h-7.5q-.3 0-.3.3v.7q0 .3.3.3h7.5q.3 0 .3-.3zm3.6-8.5h-5v-5c.1.1.3.2.4.3l4.3 4.3c.1.1.2.2.3.4m24.7-.7c0 .4-.3.7-.7.7h-14.9c-.4 0-.7-.3-.7-.7v-1.4c0-.4.3-.7.7-.7h14.9c.4 0 .7.3.7.7zm0 5.4c0 .4-.3.7-.7.7h-14.9c-.4 0-.7-.3-.7-.7v-1.4c0-.4.3-.7.7-.7h14.9c.4 0 .7.3.7.7zm0 5.5c0 .4-.3.7-.7.7h-14.9c-.4 0-.7-.3-.7-.7v-1.4c0-.4.3-.7.7-.7h14.9c.4 0 .7.3.7.7zm24.1.2c-.3.3-.7.3-1 0l-5.6-5.6-5.6 5.6c-.3.3-.7.3-1 0l-1.8-1.7c-.3-.3-.3-.7 0-1l7.9-7.9c.3-.3.7-.3 1 0l7.9 7.9c.3.3.3.7 0 1zm20.8.6c-.3.3-.7.3-1 0l-7.9-7.9c-.3-.3-.3-.7 0-1l1.8-1.7c.3-.3.7-.3 1 0l5.6 5.6 5.6-5.6c.3-.3.7-.3 1 0l1.8 1.7c.3.3.3.7 0 1zm23.8-7.6 5.6 5.6c.3.3.3.7 0 1l-1.8 1.8c-.3.3-.7.3-1 0l-7.9-7.9c-.3-.3-.3-.7 0-1l7.9-7.9c.3-.3.7-.3 1 0l1.8 1.8c.3.3.3.7 0 1zm18.7 8.3c-.3.3-.7.3-1 0l-1.8-1.8c-.3-.3-.3-.7 0-1l5.6-5.6-5.6-5.6c-.3-.3-.3-.7 0-1l1.8-1.8c.3-.3.7-.3 1 0l7.9 7.9c.3.3.3.7 0 1zm32.6-7.3c0 .6-.5 1-1 1h-4.4v4.4c0 .6-.5 1-1 1h-2c-.6 0-1-.5-1-1v-4.4h-4.4c-.6 0-1-.5-1-1v-2c0-.6.5-1 1-1h4.4v-4.4c0-.6.5-1 1-1h2c.6 0 1 .5 1 1v4.4h4.4c.6 0 1 .5 1 1zm22.9 0c0 .6-.5 1-1 1h-12.9c-.6 0-1-.5-1-1v-2c0-.6.5-1 1-1H-33c.6 0 1 .5 1 1zm16.1 7.8c-4.5 0-8.1-3.6-8.1-8.1s3.6-8.1 8.1-8.1 8.1 3.6 8.1 8.1-3.6 8.1-8.1 8.1m-6.8-8.1c0 3.7 3 6.8 6.8 6.8s6.8-3 6.8-6.8-3-6.8-6.8-6.8-6.8 3-6.8 6.8m10.8 3c0 1.5-2.4 2-3.9 2-2.9 0-5.1-2.2-5.1-5.1s2.2-5 5-5c1.1 0 3.8.4 3.8 2.1v1.2c0 .1-.1.2-.2.2h-1.3c-.1 0-.2-.1-.2-.2v-.7c0-.7-1.3-1-2.2-1-2 0-3.4 1.4-3.4 3.5s1.4 3.7 3.4 3.7c.8 0 2.2-.3 2.2-1v-.7c0-.1.1-.2.2-.2h1.3c.1 0 .2.1.2.2v1zm22.8-4.6-4.8 4.8c-.1.1-.3.2-.5.2s-.3-.1-.5-.2l-4.8-4.8c-.1-.1-.2-.3-.2-.5 0-.4.3-.7.7-.7h9.5c.4 0 .7.3.7.7.1.2 0 .4-.1.5m18.3 5.6h-9.5c-.4 0-.7-.3-.7-.7 0-.2.1-.4.2-.5L24-216c.1-.1.3-.2.5-.2s.3.1.5.2l4.8 4.8c.1.1.2.3.2.5-.1.4-.4.7-.8.7m15.5.7c0 .4-.3.7-.7.7-.2 0-.3-.1-.5-.2l-4.8-4.8c-.1-.1-.2-.3-.2-.5s.1-.4.2-.5l4.8-4.8c.1-.1.3-.2.5-.2.4 0 .7.3.7.7zm13.9-4.3-4.8 4.8c-.1.1-.3.2-.5.2-.4 0-.7-.3-.7-.7v-9.5c0-.4.3-.7.7-.7.2 0 .3.1.5.2l4.8 4.8c.1.1.2.3.2.5s-.1.3-.2.4m19.5 2.1-4.8 4.8c-.1.1-.3.2-.5.2s-.3-.1-.5-.2l-4.8-4.8c-.1-.1-.2-.3-.2-.5 0-.4.3-.7.7-.7h9.5c.4 0 .7.3.7.7.1.2 0 .4-.1.5m18.3-3.9h-9.5c-.4 0-.7-.3-.7-.7 0-.2.1-.4.2-.5l4.8-4.8c.1-.1.3-.2.5-.2s.3.1.5.2l4.8 4.8c.1.1.2.3.2.5-.1.4-.4.7-.8.7m18.9 0h-9.5c-.4 0-.7-.3-.7-.7 0-.2.1-.4.2-.5l4.8-4.8c.1-.1.3-.2.5-.2s.3.1.5.2l4.8 4.8c.1.1.2.3.2.5-.1.4-.5.7-.8.7m.5 3.9-4.8 4.8c-.1.1-.3.2-.5.2s-.3-.1-.5-.2l-4.8-4.8c-.1-.1-.2-.3-.2-.5 0-.4.3-.7.7-.7h9.5c.4 0 .7.3.7.7.1.2 0 .4-.1.5m20.5-2.1-5.8 5.8c-.1.1-.3.2-.5.2-.4 0-.7-.3-.7-.7v-3.1h-4.8c-.4 0-.7-.3-.7-.7v-4.1c0-.4.3-.7.7-.7h4.8v-3.1c0-.4.3-.7.7-.7.2 0 .3.1.5.2l5.8 5.8c.1.1.2.3.2.5s-.1.5-.2.6m3.9 3.3c0 1.7-1.4 3.1-3.1 3.1h-3.4c-.2 0-.3-.2-.3-.3 0-.3-.1-1 .3-1h3.4c.9 0 1.7-.8 1.7-1.7v-7.5c0-.9-.8-1.7-1.7-1.7H134c-.3 0-.7.1-.7-.3 0-.3-.1-1 .3-1h3.4c1.7 0 3.1 1.4 3.1 3.1v7.3zm25.6 4.4c0 .7-.6 1.4-1.4 1.4h-14.9c-.7 0-1.4-.6-1.4-1.4v-13.6c0-.7.6-1.4 1.4-1.4h1.4v-1c0-.9.8-1.7 1.7-1.7h.7c.9 0 1.7.8 1.7 1.7v1h4.1v-1c0-.9.8-1.7 1.7-1.7h.7c.9 0 1.7.8 1.7 1.7v1h1.4c.7 0 1.4.6 1.4 1.4v13.6zm-13.2-7.8v-3.1h-3.1v3.1zm0 4.1v-3.4h-3.1v3.4zm0 3.7v-3.1h-3.1v3.1zm1-15.9c0-.2-.2-.3-.3-.3h-.7c-.2 0-.3.2-.3.3v3.1c0 .2.2.3.3.3h.7c.2 0 .3-.2.3-.3zm3.1 8.1v-3.1h-3.4v3.1zm0 4.1v-3.4h-3.4v3.4zm0 3.7v-3.1h-3.4v3.1zm4.1-7.8v-3.1h-3.4v3.1zm0 4.1v-3.4h-3.4v3.4zm0 3.7v-3.1h-3.4v3.1zm1-15.9c0-.2-.2-.3-.3-.3h-.7c-.2 0-.3.2-.3.3v3.1c0 .2.2.3.3.3h.7c.2 0 .3-.2.3-.3zm2.7 8.1v-3.1h-3.1v3.1zm0 4.1v-3.4h-3.1v3.4zm0 3.7v-3.1h-3.1v3.1zm19.8-10.8h5.8v11.2c0 .6-.5 1-1 1h-14.3c-.6 0-1-.5-1-1v-17c0-.6.5-1 1-1h8.5v5.8c0 .5.5 1 1 1m.4-6.4c.1.1.3.2.4.3l4.3 4.3c.1.1.2.2.3.4h-5zm29.7 14.2c0 1.7-1.4 3.1-3.1 3.1h-10.2c-1.7 0-3.1-1.4-3.1-3.1v-10.2c0-1.7 1.4-3.1 3.1-3.1h10.2c1.7 0 3.1 1.4 3.1 3.1zm-4.8-5.5-3.1-3.1-5.8 5.8v3.1h3.1zm-5.6 4.2-.6.6h-.6v-1h-1v-.6l.6-.6zm2.7-5.4-3.1 3.1q-.15.15-.3 0t0-.3l3.1-3.1q.15-.15.3 0t0 .3m4.6-.4c.4-.4.4-1 0-1.4l-1.6-1.6c-.4-.4-1-.4-1.4 0l-1 1 3.1 3.1zm19.2 10.1c-4.5 0-8.1-3.6-8.1-8.1s3.6-8.1 8.1-8.1 8.1 3.6 8.1 8.1-3.6 8.1-8.1 8.1m2.6-3.9c.3-.3.3-.7 0-1l-3.3-3.3 3.3-3.3c.3-.3.3-.7 0-1l-1.1-1.1c-.3-.3-.7-.3-1 0l-4.8 4.8c-.3.3-.3.7 0 1l4.8 4.8c.3.3.7.3 1 0zm21.7 3.9c-4.5 0-8.1-3.6-8.1-8.1s3.6-8.1 8.1-8.1 8.1 3.6 8.1 8.1-3.6 8.1-8.1 8.1m5.3-6.6c.3-.3.3-.7 0-1l-4.8-4.8c-.3-.3-.7-.3-1 0l-4.8 4.8c-.3.3-.3.7 0 1l1.1 1.1c.3.3.7.3 1 0l3.3-3.3 3.3 3.3c.3.3.7.3 1 0zm18.9 6.6c-4.5 0-8.1-3.6-8.1-8.1s3.6-8.1 8.1-8.1 8.1 3.6 8.1 8.1-3.6 8.1-8.1 8.1m4.3-7.7c.3-.3.3-.7 0-1l-4.8-4.8c-.3-.3-.7-.3-1 0l-1.1 1.1c-.3.3-.3.7 0 1l3.3 3.3-3.3 3.3c-.3.3-.3.7 0 1l1.1 1.1c.3.3.7.3 1 0zm20 7.7c-4.5 0-8.1-3.6-8.1-8.1s3.6-8.1 8.1-8.1 8.1 3.6 8.1 8.1-3.6 8.1-8.1 8.1m5.3-8.7c.3-.3.3-.7 0-1l-1.1-1.1c-.3-.3-.7-.3-1 0l-3.3 3.3-3.3-3.3c-.3-.3-.7-.3-1 0l-1.1 1.1c-.3.3-.3.7 0 1l4.8 4.8c.3.3.7.3 1 0zm19 8.7c-4.5 0-8.1-3.6-8.1-8.1s3.6-8.1 8.1-8.1 8.1 3.6 8.1 8.1-3.6 8.1-8.1 8.1m-656.8 25-1.4 1.4c-.2.2-.5.3-.7.3s-.5-.1-.7-.3l-3.1-3.1-3.1 3.1c-.2.2-.5.3-.7.3s-.5-.1-.7-.3l-1.4-1.4c-.2-.2-.3-.5-.3-.7s.1-.5.3-.7l3.1-3.1-3.1-3.1c-.2-.2-.3-.5-.3-.7s.1-.5.3-.7l1.4-1.4c.2-.2.5-.3.7-.3s.5.1.7.3l3.1 3.1 3.1-3.1c.2-.2.5-.3.7-.3s.5.1.7.3l1.4 1.4c.2.2.3.5.3.7s-.1.5-.3.7l-3.1 3.1 3.1 3.1c.2.2.3.5.3.7s-.1.5-.3.7m29.5-9.8-9.5 10.9c-.3.3-.6.5-1 .5h-8.1c-.5 0-1-.3-1.2-.8s-.1-1 .2-1.5l9.5-10.9c.3-.3.6-.5 1-.5h8.1c.5 0 1 .3 1.2.8s.2 1.1-.2 1.5m-6.9 5.9h-8.1l-3.6 4.1h8.1zm30.2-1c0 .6-.5 1-1 1h-12.9c-.6 0-1-.5-1-1v-2c0-.6.5-1 1-1h12.9c.6 0 1 .5 1 1zm36.9-.4c0 4.5-3.6 8.1-8.1 8.1s-8.1-3.6-8.1-8.1 3.6-8.1 8.1-8.1 8.1 3.6 8.1 8.1m-5.4-2.4c.1 0 .1-.2.1-.2l.2-.2c.2-.1.4-.1.6-.1s.4 0 .5.1c0 0 .2-.3.3-.3.1-.1.3 0 .3-.1v-.2c-.2 0-.2-.1-.3-.3l-.1.1c0-.2-.2 0-.3-.1-.2-.1-.2-.2-.3-.4 0-.1-.2-.1-.2-.2s-.1-.2-.2-.2-.2.2-.2.2c-.1-.1-.1 0-.2.1-.1 0-.1 0-.2.1.2-.1-.1-.2-.2-.1.1 0 .1-.2 0-.3h.1c0-.1-.3-.2-.4-.2-.1-.1-.6-.2-.7-.1s0 .3 0 .4-.1.2-.1.3c0 .2.3.1.3.4-.1.1-.3.2-.3.3-.1.1 0 .3.1.4s-.1.2-.2.2c-.2.1-.3-.2-.4-.3 0-.1 0-.3-.2-.3-.1 0-.3-.1-.3 0-.1-.2-.3-.2-.4-.3q-.3-.15-.6 0c.1 0 0-.3-.2-.3.1-.1 0-.2.1-.3 0-.1.1-.2.1-.2s.3-.3.2-.3c.2 0 .4 0 .5-.1s.1-.3.2-.4c.1-.2.3 0 .5.1.2 0 .2-.2.1-.3.1 0 0-.2-.1-.3-.1 0-.5.1-.3.1 0 0-.3.5-.4.2 0-.1-.1-.3-.2-.3s-.1.1-.2.2c.1-.1-.3-.2-.4-.2.2-.1 0-.2-.1-.3s-.4-.1-.4 0c-.2.2.2.3.3.3 0 0 .2.1.1.1s-.3.1-.3.1c-.1.1.1.2 0 .3-.1-.1-.1-.3-.2-.4.1.1-.4.1-.4.1-.2 0-.4.1-.5-.1v-.2c-.1-.1-.2-.1-.2-.2-.3.1-.7.3-1 .4h.1c.1 0 .2-.1.2-.1.1 0 .3-.2.4-.1l.1-.1c.1.1.1.2.2.3h-.3c-.1 0-.2 0-.2.1s.1.1.1.2c-.1-.1-.2-.3-.4-.3h-.2c-1 .6-1.9 1.4-2.5 2.4l.1.1c.1 0 0 .3.2.2.1.1.1.1 0 .2 0 0 .4.3.5.3.1.1.2.1.2.2s0 .2-.1.2c0 0-.2-.2-.2-.1s0 .3.1.3c-.2 0-.1.7-.1.8s.1.6.3.6c-.1 0 .2.5.3.6s.3.2.4.3.1.4.3.5c0 .1.2.3.2.5h-.1c.1.1.3.1.3.3 0 .1 0 .3.1.2 0-.2-.1-.5-.3-.7-.1-.1-.1-.2-.2-.3s-.1-.2-.1-.3l.3.1c-.1.2.3.6.5.7 0 0 .3.4.1.4.1 0 .3.2.4.3.1.2.1.4.1.5.1.2.4.3.5.4s.3.2.4.2c.2.1.3 0 .5 0 .3 0 .3.3.5.4.1.1.4.2.6.1-.1 0 .2.5.2.5.1.1.3.2.4.3l.1-.1c0 .1.2.3.3.3s.1-.3.1-.3c-.2.1-.4 0-.5-.2 0-.1-.2-.4 0-.4s.1-.2 0-.3c0-.1-.2-.2-.2-.4-.1.1-.3.1-.3 0v.1h-.2c0-.1 0-.3.1-.4.1-.2.4-.6-.1-.5-.2 0-.2.1-.3.2s0 .2-.2.3h-.5c-.2-.1-.3-.5-.3-.7 0-.3.1-.5 0-.8.1-.1.1-.2.2-.2s.1 0 .2-.1l-.1-.1c.2.1.5-.1.6 0s.2.1.2 0c0 0-.1-.2 0-.2 0 .2.1.2.3.1.1.1.2 0 .4.1.1.1.1.2.3 0 .1.1.1.1.1.3 0 .1.1.4.2.5.2.1.2-.2.1-.4v-.4c-.3-.1-.2-.3 0-.5 0 0 .3-.1.4-.2s.2-.2.2-.4c.1 0 .1 0 .1-.1l-.2-.1c.1 0 .1-.1 0-.2.1-.1.1-.2.2-.2.1.2.3 0 .2-.1.1-.1.3-.1.4-.2.2 0 0-.2.1-.3s.2-.1.3-.1c0 0 .3-.1.2-.2.2 0 .5-.2.3-.3 0-.1-.1-.1-.2-.2h.2c.1-.1 0-.1-.1-.2-.1 0-.3.1-.5.1.2-.2.2-.1.1-.1m2.2 7.1c-.1-.1-.2 0-.3-.1-.1 0-.1-.1-.3-.1 0-.2-.2-.3-.4-.4-.1-.1-.2-.2-.4-.2l-.2.1c-.1-.1-.2-.2-.4-.2-.2-.1-.3-.3-.5-.1-.1.1 0 .2-.1.3-.1-.1.1-.3 0-.4s-.3.1-.5.2c-.1.1-.1.1-.2.1-.1.1-.1.2-.1.2 0-.1-.2-.1-.2-.1 0 .3 0 .5.1.8 0 .1 0 .4-.1.5s-.3.2-.3.4c0 .1 0 .2.1.3 0 .2-.2.3-.2.4v.2c1.7-.1 3-.9 4-1.9m20.3 3.3-6.6-6.4c-.1-.1-2.4-2.2-2.4-4.8 0-3.1 1.9-5 5.1-5 1.9 0 3.6 1.5 4.4 2.3.8-.8 2.6-2.3 4.4-2.3 3.2 0 5.1 1.9 5.1 5 0 2.5-2.3 4.7-2.4 4.8l-6.6 6.4c-.1.1-.3.2-.5.2s-.4-.1-.5-.2m35.3-10.1-3.8 3.8.9 5.3v.2c0 .3-.1.5-.4.5-.1 0-.3-.1-.4-.1l-4.8-2.5-4.8 2.5c-.1.1-.3.1-.4.1-.3 0-.4-.3-.4-.5v-.2l.9-5.3-3.9-3.8c-.1-.1-.3-.3-.3-.5 0-.3.3-.4.6-.5l5.3-.8 2.4-4.8c.1-.2.3-.4.5-.4s.4.2.5.4l2.4 4.8 5.3.8c.3 0 .6.2.6.5.1.2-.1.4-.2.5m25.6 0-3.8 3.8.9 5.3v.2c0 .3-.1.5-.4.5-.1 0-.3-.1-.4-.1l-4.8-2.5-4.8 2.5c-.1.1-.3.1-.4.1-.3 0-.4-.3-.4-.5v-.2l.9-5.3-3.9-3.8c-.1-.1-.3-.3-.3-.5 0-.3.3-.4.6-.5l5.3-.8 2.4-4.8c.1-.2.3-.4.5-.4s.4.2.5.4l2.4 4.8 5.3.8c.3 0 .6.2.6.5.1.2-.1.4-.2.5m-2.1.1-4.5-.7-2-4.1-2 4.1-4.5.7 3.2 3.1-.8 4.5 4-2.1 4 2.1-.8-4.5zm19.9 8.8c-.5 0-1 0-1.5-.1-1.4 1.2-3 2.1-4.9 2.6-.4.1-.8.2-1.2.2-.2 0-.5-.1-.5-.4-.1-.3.1-.4.3-.6.7-.8 1.4-1.4 1.9-3.2-2.2-1.2-3.6-3.2-3.6-5.3 0-3.7 4.3-6.8 9.5-6.8s9.5 3 9.5 6.8-4.3 6.8-9.5 6.8M-193.7.5c.3 0 .6.1.8.3s.3.4.3.7v19.9c0 .3-.1.5-.3.7s-.4.3-.7.3-.5-.1-.7-.3-.3-.4-.3-.7V1.5c0-.3.1-.5.3-.7 0-.2.3-.3.6-.3m-98.4 46.2c.1.2.1.5.1.8s-.1.5-.3.7l-9.5 10.9c-.3.3-.6.5-1 .5h-8.1c-.3 0-.5-.1-.7-.2s-.4-.3-.5-.6c-.1-.2-.1-.5-.1-.8s.1-.5.3-.7l9.5-10.9c.3-.3.6-.5 1-.5h8.1c.3 0 .5.1.7.2s.4.4.5.6m-10.8 11.5 3.6-4.1h-8.1l-3.6 4.1zm-16.9-2.2c0 .3-.1.5-.3.7l-1.4 1.4c-.2.2-.4.3-.7.3s-.5-.1-.7-.3L-326 55l-3.1 3.1c-.2.2-.4.3-.7.3s-.5-.1-.7-.3l-1.4-1.4c-.2-.2-.3-.4-.3-.7s.1-.5.3-.7l3.1-3.1-3.1-3.1c-.2-.2-.3-.4-.3-.7s.1-.5.3-.7l1.4-1.4c.2-.2.4-.3.7-.3s.5.1.7.3l3.1 3.1 3.1-3.1c.2-.2.4-.3.7-.3s.5.1.7.3l1.4 1.4c.2.2.3.4.3.7s-.1.5-.3.7l-3.1 3.1 3.1 3.1c.2.2.3.5.3.7m5.5-84.4 7.8 6.5-7.8 6.5zm1.3 10.2 4.5-3.7-4.5-3.7zm17 .2 6.5-7.8 6.5 7.8zm10.2-1.3-3.7-4.5-3.7 4.5zm23.7-6.5-6.5 7.8-6.5-7.8zm-10.2 1.3 3.7 4.5 3.7-4.5zM-337-149.2v-13.3h7.6v13.3zm.4-.4h6.7V-162h-6.7zm1.6-10.2c.2-.2.4-.3.5-.4.3-.2.7-.3 1-.3.6 0 1 .1 1.4.4.3.3.5.7.5 1.2 0 .3-.1.6-.2.9s-.4.7-.8 1.2q-.6.75-.9 1.2t-.3.9c0 .2.1.6.2 1.2h-.3c-.2-.6-.3-1.1-.3-1.4 0-.5.3-1.1.8-2s.8-1.5.8-2c0-.4-.1-.6-.3-.8s-.5-.3-.8-.3c-.2 0-.4.1-.6.2s-.3.2-.5.4v-.4zm.6 7.5.5-.5c.1-.1.1-.1.2-.1s.1 0 .2.1l.5.6c.1.1.1.1.1.2s0 .1-.1.2l-.5.6c-.1.1-.2.1-.2.1-.1 0-.1 0-.2-.1l-.6-.7c0-.1-.1-.1-.1-.2.1 0 .2-.1.2-.2m16.6-10 7.8 6.5-7.8 6.5zm1.3 10.2 4.5-3.7-4.5-3.7zm17 .2 6.5-7.8 6.5 7.8zm10.2-1.3-3.7-4.5-3.7 4.5zm23.7-6.5-6.5 7.8-6.5-7.8zm-10.2 1.3 3.7 4.5 3.7-4.5zm-52 143-7.8-6.5 7.8-6.5zm-1.3-10.2-4.5 3.7 4.5 3.7zm541.4-42.1c0 .3.1.5.3.7s.4.3.7.3h5.8v11.2c0 .3-.1.5-.3.7s-.4.3-.7.3h-14.2c-.3 0-.5-.1-.7-.3s-.3-.4-.3-.7v-17c0-.3.1-.5.3-.7s.4-.3.7-.3h8.5v5.8zm1.4-.3v-5c.2.1.3.2.4.3l4.3 4.3c.1.1.2.2.3.4zM104-63.1c.1.1.2.3.2.5s-.1.3-.2.5l-4.8 4.8c-.1.1-.3.2-.5.2s-.3-.1-.5-.2l-4.8-4.8c-.1-.1-.2-.3-.2-.5s.1-.3.2-.5c.1-.1.3-.2.5-.2h9.5c.4 0 .5.1.6.2m19.1-3.5c0 .2-.1.3-.2.5-.1.1-.3.2-.5.2h-9.5c-.2 0-.3-.1-.5-.2-.1-.1-.2-.3-.2-.5s.1-.3.2-.5l4.8-4.8c.1-.1.3-.2.5-.2s.3.1.5.2l4.8 4.8c0 .1.1.3.1.5m18.8 0c0 .2-.1.3-.2.5-.1.1-.3.2-.5.2h-9.5c-.2 0-.3-.1-.5-.2-.1-.1-.2-.3-.2-.5s.1-.3.2-.5l4.8-4.8c.1-.1.3-.2.5-.2s.3.1.5.2l4.8 4.8c.1.1.1.3.1.5m-.2 3.5c.1.1.2.3.2.5s-.1.3-.2.5l-4.8 4.8c-.1.1-.3.2-.5.2s-.3-.1-.5-.2l-4.8-4.8c-.1-.1-.2-.3-.2-.5s.1-.3.2-.5c.1-.1.3-.2.5-.2h9.5c.3 0 .5.1.6.2m20.8-1.5c0 .2-.1.3-.2.5l-5.8 5.8c-.1.1-.3.2-.5.2s-.3-.1-.5-.2c-.1-.1-.2-.3-.2-.5v-3.1h-4.8c-.2 0-.3-.1-.5-.2-.1-.1-.2-.3-.2-.5v-4.1c0-.2.1-.3.2-.5.1-.1.3-.2.5-.2h4.8v-3.1c0-.2.1-.3.2-.5.1-.1.3-.2.5-.2s.3.1.5.2l5.8 5.8c.1.2.2.4.2.6m3.7-3.7v7.5c0 .8-.3 1.6-.9 2.2s-1.3.9-2.2.9h-3.4c-.1 0-.2 0-.2-.1-.1-.1-.1-.1-.1-.2v-.7l.1-.2s.1-.1.2-.1h3.4c.5 0 .9-.2 1.2-.5s.5-.7.5-1.2v-7.5c0-.5-.2-.9-.5-1.2s-.7-.5-1.2-.5h-3.5l-.1-.1-.1-.1v-.8c0-.1.1-.2.1-.2s.1-.1.2-.1h3.4c.8 0 1.6.3 2.2.9.6.4.9 1.1.9 2m25.6-1.7v13.6c0 .4-.1.7-.4 1s-.6.4-1 .4h-14.9c-.4 0-.7-.1-1-.4s-.4-.6-.4-1V-70c0-.4.1-.7.4-1s.6-.4 1-.4h1.4v-1c0-.5.2-.9.5-1.2s.7-.5 1.2-.5h.7c.5 0 .9.2 1.2.5s.5.7.5 1.2v1h4.1v-1c0-.5.2-.9.5-1.2s.7-.5 1.2-.5h.7c.5 0 .9.2 1.2.5s.5.7.5 1.2v1h1.4c.4 0 .7.1 1 .4s.2.6.2 1m-16.3 5.7h3.1v-3.1h-3.1zm0 4.1h3.1v-3.4h-3.1zm0 3.7h3.1v-3.1h-3.1zm4.1-12.9v-3.1c0-.1 0-.2-.1-.2-.1-.1-.1-.1-.2-.1h-.7c-.1 0-.2 0-.2.1-.1.1-.1.1-.1.2v3.1c0 .1 0 .2.1.2.1.1.1.1.2.1h.7c.1 0 .2 0 .2-.1.1 0 .1-.1.1-.2m-.3 5.1h3.4v-3.1h-3.4zm0 4.1h3.4v-3.4h-3.4zm0 3.7h3.4v-3.1h-3.4zm4-7.8h3.4v-3.1h-3.4zm0 4.1h3.4v-3.4h-3.4zm0 3.7h3.4v-3.1h-3.4zm4.4-12.9v-3.1c0-.1 0-.2-.1-.2-.1-.1-.1-.1-.2-.1h-.7c-.1 0-.2 0-.2.1-.1.1-.1.1-.1.2v3.1c0 .1 0 .2.1.2.1.1.1.1.2.1h.7c.1 0 .2 0 .2-.1.1 0 .1-.1.1-.2m-.3 5.1h3.1v-3.1h-3.1zm0 4.1h3.1v-3.4h-3.1zm0 3.7h3.1v-3.1h-3.1zM26.1-67.8c.1.1.2.3.2.5s-.1.3-.2.5L21.3-62c-.1.1-.3.2-.5.2s-.3-.1-.5-.2l-4.8-4.8c-.1-.1-.2-.3-.2-.5s.1-.3.2-.5c.1-.1.3-.2.5-.2h9.5c.3 0 .4.1.6.2m19 5.9c0 .2-.1.3-.2.5-.1.1-.3.2-.5.2h-9.5c-.2 0-.3-.1-.5-.2-.1-.1-.2-.3-.2-.5s.1-.3.2-.5l4.8-4.8c.1-.1.3-.2.5-.2s.3.1.5.2l4.8 4.8c0 .2.1.3.1.5M59.9-70v9.5c0 .2-.1.3-.2.5-.1.1-.3.2-.5.2s-.3-.1-.5-.2L54-64.8c-.1-.1-.2-.3-.2-.5s.1-.3.2-.5l4.8-4.8c.1-.1.3-.2.5-.2s.3.1.5.2c0 .2.1.4.1.6M74-65.3c0 .2-.1.3-.2.5L69-60.1c-.1.1-.3.2-.5.2s-.3-.1-.5-.2c-.1-.1-.2-.3-.2-.5V-70c0-.2.1-.3.2-.5.1-.1.3-.2.5-.2s.3.1.5.2l4.8 4.8c.1.1.2.2.2.4M8.8 9c0 .2-.1.3-.2.5l-4.8 4.8c-.1.1-.3.2-.5.2s-.3-.1-.4-.2-.2-.3-.2-.5V4.3c0-.2.1-.3.2-.5.1-.1.3-.2.5-.2s.3.1.5.2l4.8 4.7c0 .2.1.3.1.5m-335.4-70.6c0 .1 0 .2-.1.2l-.5.5c-.1.1-.2.1-.2.1-.1 0-.2 0-.2-.1l-4.2-4.2-4.2 4.2c-.1.1-.2.1-.2.1s-.2 0-.2-.1l-.5-.5c-.1-.1-.1-.2-.1-.2s0-.2.1-.2l4.9-4.9c.1-.1.2-.1.2-.1s.2 0 .2.1l4.9 4.9c.1.1.1.1.1.2m20.2-4.7c0 .1 0 .2-.1.2l-4.9 4.9c-.1.1-.2.1-.2.1s-.2 0-.2-.1l-4.9-4.9c-.1-.1-.1-.2-.1-.2s0-.2.1-.2l.5-.5c.1-.1.2-.1.2-.1s.2 0 .2.1l4.2 4.2 4.2-4.2c.1-.1.2-.1.2-.1.1 0 .2 0 .2.1l.5.5c.1 0 .1.1.1.2m15.1 2.4c0 .1 0 .2-.1.2l-4.9 4.9c-.1.1-.2.1-.2.1-.1 0-.2 0-.2-.1l-.5-.5c-.1-.1-.1-.2-.1-.2s0-.2.1-.2l4.2-4.2-4.2-4.2c-.1-.1-.1-.2-.1-.2 0-.1 0-.2.1-.2l.5-.5c.1-.1.2-.1.2-.1.1 0 .2 0 .2.1l4.9 4.9c.1 0 .1.1.1.2m15.1-4.4c0 .1 0 .2-.1.2l-4.2 4.2 4.2 4.2c.1.1.1.2.1.2s0 .2-.1.2l-.5.5c-.1.1-.2.1-.2.1-.1 0-.2 0-.2-.1l-4.9-4.9c-.1-.1-.1-.2-.1-.2s0-.2.1-.2l4.9-4.9c.1-.1.2-.1.2-.1.1 0 .2 0 .2.1l.5.5c.1 0 .1.1.1.2m16.3-2.1v11.5c0 .2-.1.3-.2.5s-.3.2-.5.2-.3-.1-.5-.2l-3.5-3.5h-2.8c-.2 0-.3-.1-.5-.2-.1-.1-.2-.3-.2-.5v-4.1c0-.2.1-.3.2-.5.1-.1.3-.2.5-.2h2.8l3.5-3.5c.1-.1.3-.2.5-.2s.3.1.5.2.2.3.2.5m3.6 4.3c.3.5.5 1 .5 1.5s-.2 1-.5 1.5-.7.8-1.2 1c-.1 0-.2.1-.3.1-.2 0-.3-.1-.5-.2s-.2-.3-.2-.5c0-.1 0-.3.1-.4l.3-.3c.1-.1.2-.2.4-.2.1-.1.2-.2.3-.4s.1-.4.1-.6 0-.4-.1-.6-.2-.3-.3-.4-.2-.2-.4-.2-.2-.2-.3-.3-.1-.2-.1-.4.1-.4.2-.5.3-.2.5-.2c.1 0 .2 0 .3.1.5.2.9.5 1.2 1m2.3-1.5q.9 1.35.9 3c0 1.65-.3 2.1-.9 3s-1.4 1.6-2.4 2c-.1 0-.2.1-.3.1-.2 0-.4-.1-.5-.2s-.2-.3-.2-.5c0-.3.1-.5.4-.6.4-.2.7-.4.8-.5.5-.4.9-.9 1.2-1.4.3-.6.4-1.2.4-1.8s-.1-1.3-.4-1.8c-.3-.6-.7-1.1-1.2-1.4-.1-.1-.4-.3-.8-.5-.3-.1-.4-.4-.4-.6s.1-.3.2-.5c.1-.1.3-.2.5-.2.1 0 .2 0 .3.1 1 .2 1.8.9 2.4 1.8m2.2-1.5c.9 1.4 1.3 2.9 1.3 4.5s-.4 3.1-1.3 4.5q-1.35 2.1-3.6 3c-.1 0-.2.1-.3.1-.2 0-.3-.1-.5-.2s-.2-.3-.2-.5c0-.3.1-.5.4-.6 0 0 .1-.1.2-.1s.2-.1.2-.1c.3-.2.6-.4.9-.5.9-.6 1.5-1.4 2-2.4s.7-2 .7-3.1-.2-2.1-.7-3.1-1.2-1.8-2-2.4c-.3-.2-.5-.4-.9-.5 0 0-.1-.1-.2-.1s-.2-.1-.2-.1c-.3-.2-.4-.4-.4-.6s.1-.3.2-.5.3-.2.5-.2c.1 0 .2 0 .3.1 1.5.4 2.7 1.4 3.6 2.8m18.9-2.2h3.4c1.1 0 1.9.1 2.4.1h1.4c.1 0 .2 0 .3.1s.2.1.3.1.2.1.3.2l.3.3.2.2q.15.15.3.6c.15.45.2.7.3 1.1.1.5.1.9.1 1.4s.1.9.1 1.2v1.8c0 1-.1 2.1-.2 3.1 0 .4-.1.7-.3 1.1s-.2.5-.3.7l-.1.2-.3.3c-.1.1-.2.1-.3.2s-.2.1-.3.1-.2.1-.3.1h-.7c-1.8.1-4 .2-6.6.2-1.5 0-2.7 0-3.8-.1s-1.8-.1-2.1-.1h-.9c-.3 0-.4-.1-.6-.1-.1 0-.3-.1-.5-.2s-.4-.3-.6-.4l-.2-.2q-.15-.15-.3-.6c-.15-.45-.2-.7-.3-1.1-.1-.5-.1-.9-.1-1.4s-.1-.9-.1-1.2v-1.8c0-1 .1-2 .2-3.1 0-.4.1-.7.3-1.1s.2-.5.3-.7l.1-.2.3-.3c.1-.1.2-.2.3-.2.1-.1.2-.1.3-.1s.2-.1.3-.1h.6c1.9 0 4.1-.1 6.8-.1m-2 9.1 5.1-2.7-5.1-2.7zm30-5.1h5.8v11.2c0 .3-.1.5-.3.7s-.4.3-.7.3h-14.2c-.3 0-.5-.1-.7-.3s-.3-.4-.3-.7v-17c0-.3.1-.5.3-.7s.4-.3.7-.3h8.5v5.8c0 .3.1.5.3.7s.3.3.6.3m1.7 2.3v-.7c0-.1 0-.2-.1-.2s-.1-.1-.2-.1h-7.5c-.1 0-.2 0-.2.1s-.1.1-.1.2v.7c0 .1 0 .2.1.2.1.1.1.1.2.1h7.5c.1 0 .2 0 .2-.1 0 0 .1-.1.1-.2m0 2.8v-.7c0-.1 0-.2-.1-.2-.1-.1-.1-.1-.2-.1h-7.5c-.1 0-.2 0-.2.1-.1.1-.1.1-.1.2v.7c0 .1 0 .2.1.2.1.1.1.1.2.1h7.5c.1 0 .2 0 .2-.1s.1-.1.1-.2m0 2.7v-.7c0-.1 0-.2-.1-.2-.1-.1-.1-.1-.2-.1h-7.5c-.1 0-.2 0-.2.1-.1.1-.1.1-.1.2v.7c0 .1 0 .2.1.2s.1.1.2.1h7.5c.1 0 .2 0 .2-.1s.1-.1.1-.2m3.3-9.6c.1.1.2.2.3.4h-5v-5c.2.1.3.2.4.3zm25-1.6v1.4c0 .2-.1.3-.2.5-.1.1-.3.2-.5.2h-14.9c-.2 0-.3-.1-.5-.2-.1-.1-.2-.3-.2-.5v-1.4c0-.2.1-.3.2-.5.1-.1.3-.2.5-.2h14.9c.2 0 .3.1.5.2.1.1.2.3.2.5m0 5.4v1.4c0 .2-.1.3-.2.5-.1.1-.3.2-.5.2h-14.9c-.2 0-.3-.1-.5-.2-.1-.1-.2-.3-.2-.5v-1.4c0-.2.1-.3.2-.5.1-.1.3-.2.5-.2h14.9c.2 0 .3.1.5.2.1.2.2.3.2.5m0 5.4v1.4c0 .2-.1.3-.2.5-.1.1-.3.2-.5.2h-14.9c-.2 0-.3-.1-.5-.2-.1-.1-.2-.3-.2-.5v-1.4c0-.2.1-.3.2-.5.1-.1.3-.2.5-.2h14.9c.2 0 .3.1.5.2.1.2.2.4.2.5m25.8-.1-1.8 1.7c-.1.1-.3.2-.5.2s-.3-.1-.5-.2l-5.6-5.6-5.6 5.6c-.1.1-.3.2-.5.2s-.3-.1-.5-.2l-1.8-1.7c-.1-.1-.2-.3-.2-.5s.1-.3.2-.5l7.9-7.9c.1-.1.3-.2.5-.2s.3.1.5.2l7.9 7.9c.1.1.2.3.2.5s0 .4-.2.5m27-5.5-7.9 7.9c-.1.1-.3.2-.5.2s-.3-.1-.5-.2l-7.9-7.9c-.1-.1-.2-.3-.2-.5s.1-.3.2-.5l1.8-1.7c.1-.1.3-.2.5-.2s.3.1.5.2l5.6 5.6 5.6-5.6c.1-.1.3-.2.5-.2s.3.1.5.2l1.8 1.7c.1.1.2.3.2.5s-.1.3-.2.5m21.6-5.4-5.6 5.6 5.6 5.6c.1.1.2.3.2.5s-.1.3-.2.5l-1.8 1.8c-.1.1-.3.2-.5.2s-.3-.1-.5-.2l-7.9-7.9c-.1-.1-.2-.3-.2-.5s.1-.3.2-.5l7.9-7.9c.1-.1.3-.2.5-.2s.3.1.5.2l1.8 1.8c.1.1.2.3.2.5s-.1.3-.2.5" class="st0"/><path d="M-295.9 113.4h12.4v12.4h-12.4z" class="st1"/><path d="m-79.7-64.8-7.9 7.9c-.1.1-.3.2-.5.2s-.3-.1-.5-.2l-1.8-1.8c-.1-.1-.2-.3-.2-.5s.1-.3.2-.5l5.6-5.6-5.6-5.6c-.1-.1-.2-.3-.2-.5s.1-.3.2-.5l1.8-1.8c.1-.1.3-.2.5-.2s.3.1.5.2l7.9 7.9c.1.1.2.3.2.5s0 .4-.2.5m24.8-1.5v2c0 .3-.1.5-.3.7s-.4.3-.7.3h-4.4v4.4c0 .3-.1.5-.3.7s-.4.3-.7.3h-2c-.3 0-.5-.1-.7-.3s-.3-.4-.3-.7v-4.4h-4.4c-.3 0-.5-.1-.7-.3s-.3-.4-.3-.7v-2c0-.3.1-.5.3-.7s.4-.3.7-.3h4.4v-4.4c0-.3.1-.5.3-.7s.4-.3.7-.3h2c.3 0 .5.1.7.3s.3.4.3.7v4.4h4.4c.3 0 .5.1.7.3s.3.4.3.7m22.9 0v2c0 .3-.1.5-.3.7s-.4.3-.7.3h-12.9c-.3 0-.5-.1-.7-.3s-.3-.4-.3-.7v-2c0-.3.1-.5.3-.7s.4-.3.7-.3H-33c.3 0 .5.1.7.3s.3.4.3.7m23.1-2.4c.7 1.2 1.1 2.6 1.1 4.1s-.4 2.8-1.1 4.1q-1.05 1.8-3 3c-1.2.7-2.6 1.1-4.1 1.1s-2.8-.4-4.1-1.1q-1.8-1.05-3-3c-.7-1.2-1.1-2.6-1.1-4.1s.4-2.8 1.1-4.1q1.05-1.8 3-3c1.2-.7 2.6-1.1 4.1-1.1s2.8.4 4.1 1.1q1.95 1.2 3 3m-4.4-2.2c-.8-.4-1.7-.5-2.6-.5s-1.8.2-2.6.5c-.8.4-1.6.8-2.2 1.4s-1.1 1.3-1.4 2.2c-.4.8-.5 1.7-.5 2.6s.2 1.8.5 2.6c.4.8.8 1.6 1.4 2.2s1.3 1.1 2.2 1.4c.8.4 1.7.5 2.6.5s1.8-.2 2.6-.5c.8-.4 1.6-.8 2.2-1.4s1.1-1.3 1.4-2.2c.4-.8.5-1.7.5-2.6s-.2-1.8-.5-2.6c-.4-.8-.8-1.6-1.4-2.2s-1.3-1-2.2-1.4m1.4 8.2v1.2c0 .4-.1.7-.4.9-.3.3-.6.5-1 .6-.4.2-.8.3-1.3.3s-.8.1-1.2.1c-1.4 0-2.7-.5-3.6-1.5-1-1-1.5-2.2-1.5-3.7 0-1.4.5-2.6 1.4-3.6 1-1 2.2-1.4 3.6-1.4h.8c.3 0 .6.1 1 .2s.7.2 1 .4c.3.1.5.3.7.6s.3.5.3.9v1.2c0 .1-.1.2-.2.2h-1.3c-.1 0-.2-.1-.2-.2v-.7c0-.3-.2-.5-.7-.7s-.9-.3-1.5-.3c-1 0-1.8.3-2.4 1-.6.6-.9 1.5-.9 2.5 0 1.1.3 1.9 1 2.6.6.7 1.5 1 2.5 1q.75 0 1.5-.3c.5-.2.7-.4.7-.7v-.8h1.5c.2.1.2.1.2.2M-319-115v11.5c0 .5-.2.9-.5 1.2s-.7.5-1.2.5h-15.6c-.5 0-.9-.2-1.2-.5s-.5-.7-.5-1.2V-115c0-.5.2-.9.5-1.2s.7-.5 1.2-.5h15.6c.5 0 .9.2 1.2.5.4.3.5.7.5 1.2m-1.3.4v-.4s0-.1-.1-.1l-.1-.1h-15.7c-.1 0-.2 0-.2.1-.1.1-.1.1-.1.2 0 1.2.5 2.2 1.6 3 1.4 1.1 2.8 2.2 4.3 3.4 0 0 .2.1.4.3s.4.3.5.4.3.2.5.3.4.2.5.3c.2.1.3.1.5.1.1 0 .3 0 .5-.1s.3-.2.5-.3.4-.2.5-.3.3-.2.5-.4.3-.3.4-.3c1.5-1.2 2.9-2.3 4.3-3.4.4-.3.7-.7 1.1-1.2s.1-1.1.1-1.5m0 11.1v-8.1c-.2.3-.5.5-.7.7q-2.85 2.25-4.5 3.6c-.4.3-.7.5-.9.7s-.5.3-.9.5-.7.3-1.1.3c-.3 0-.7-.1-1.1-.3s-.7-.3-.9-.5-.5-.4-.9-.7q-1.65-1.35-4.5-3.6c-.3-.2-.5-.4-.7-.7v8.1c0 .1 0 .2.1.2.1.1.1.1.2.1h15.6c.1 0 .2 0 .2-.1 0 0 .1-.1.1-.2m26.9-9.1c0 .2-.1.3-.3.5l-3.8 3.8.9 5.3v.2c0 .1 0 .3-.1.4s-.2.2-.3.2-.3 0-.4-.1l-4.8-2.5-4.8 2.5c-.2.1-.3.1-.4.1s-.3-.1-.3-.2-.1-.2-.1-.4v-.2l.9-5.3-3.9-3.8c-.2-.2-.3-.4-.3-.5 0-.3.2-.4.6-.5l5.3-.8 2.4-4.8c.1-.3.3-.4.5-.4s.4.1.5.4l2.4 4.8 5.3.8c.5.1.7.3.7.5m25.7 10.8c0 .4-.1.7-.4 1s-.6.4-1 .4-.7-.1-1-.4l-3.6-3.6c-1.3.9-2.7 1.3-4.2 1.3-1 0-2-.2-2.9-.6s-1.7-.9-2.4-1.6-1.2-1.5-1.6-2.4-.6-1.9-.6-2.9.2-2 .6-2.9.9-1.7 1.6-2.4 1.5-1.2 2.4-1.6 1.9-.6 2.9-.6 2 .2 2.9.6 1.7.9 2.4 1.6 1.2 1.5 1.6 2.4.6 1.9.6 2.9c0 1.6-.4 3-1.3 4.2l3.6 3.6c.2.3.4.7.4 1m-6.9-5.4c.9-.9 1.4-2 1.4-3.4s-.5-2.4-1.4-3.4c-.9-.9-2-1.4-3.4-1.4s-2.4.5-3.4 1.4c-.9.9-1.4 2-1.4 3.4s.5 2.4 1.4 3.4c.9.9 2 1.4 3.4 1.4s2.5-.5 3.4-1.4m32.6-6.2c0 .3-.1.5-.3.7l-7.7 7.7-1.4 1.4c-.2.2-.4.3-.7.3s-.5-.1-.7-.3l-1.4-1.4-3.8-3.8c-.2-.2-.3-.4-.3-.7s.1-.5.3-.7l1.4-1.4c.2-.2.4-.3.7-.3s.5.1.7.3l3.1 3.1 7-7c.2-.2.4-.3.7-.3s.5.1.7.3l1.4 1.4c.2.2.3.4.3.7m26.5 3.8-.7.8c-.1.1-.1.1-.2.1s-.2 0-.2-.1l-7.3-6.1-7.3 6.1c-.1.1-.2.1-.3.1s-.2-.1-.2-.1l-.7-.8c-.1-.1-.1-.2-.1-.2 0-.1 0-.2.1-.2l7.6-6.4c.2-.2.5-.3.8-.3s.6.1.8.3l2.6 2.2v-2.1c0-.1 0-.2.1-.2s.1-.1.2-.1h2c.1 0 .2 0 .2.1s.1.1.1.2v4.3l2.3 1.9c.1.1.1.1.1.2.2.1.2.2.1.3m-2.3.7v5.1c0 .2-.1.3-.2.5-.1.1-.3.2-.5.2h-4.1v-4.1h-2.7v4.1h-4.1c-.2 0-.3-.1-.5-.2-.1-.1-.2-.3-.2-.5v-5.1l6.1-5zm28.3-.3v4.4c0 .1 0 .2-.1.2-.1.1-.1.1-.2.1h-2.4v1.7c0 .3-.1.5-.3.7s-.4.3-.7.3h-10.2c-.3 0-.5-.1-.7-.3s-.3-.4-.3-.7v-1.7h-2.4c-.1 0-.2 0-.2-.1-.1-.1-.1-.1-.1-.2v-4.4c0-.6.2-1 .6-1.4s.9-.6 1.4-.6h.7v-5.8c0-.3.1-.5.3-.7s.4-.3.7-.3h7.1c.3 0 .6.1.9.2s.6.3.8.5l1.6 1.6c.2.2.4.5.5.8s.2.7.2.9v2.7h.7c.6 0 1 .2 1.4.6.5.4.7.9.7 1.5m-13.6-.7h9.5v-4.1h-1.7c-.3 0-.5-.1-.7-.3s-.3-.4-.3-.7v-1.7h-6.8zm0 6.8h9.5v-2.7h-9.5zm12-5.7c.1-.1.2-.3.2-.5s-.1-.3-.2-.5c-.1-.1-.3-.2-.5-.2s-.3.1-.5.2c-.1.1-.2.3-.2.5s.1.3.2.5c.1.1.3.2.5.2s.4 0 .5-.2m24.8-5.2c.7 1.2 1.1 2.6 1.1 4.1s-.4 2.8-1.1 4.1q-1.05 1.8-3 3c-1.2.7-2.6 1.1-4.1 1.1s-2.8-.4-4.1-1.1q-1.8-1.05-3-3c-.7-1.2-1.1-2.6-1.1-4.1s.4-2.8 1.1-4.1q1.05-1.8 3-3c1.2-.7 2.6-1.1 4.1-1.1s2.8.4 4.1 1.1c1.3.8 2.2 1.8 3 3m-7.1 9.9v-11.5c-1 0-2 .3-2.9.8q-1.35.75-2.1 2.1c-.5.9-.8 1.8-.8 2.9s.3 2 .8 2.9q.75 1.35 2.1 2.1c.9.4 1.9.7 2.9.7m56.7-2.2c0 .2 0 .4-.1.7s-.1.5-.2.7c-.1.4-.6.7-1.3 1.1s-1.3.5-2 .5h-.6c-.2 0-.4-.1-.6-.1-.2-.1-.4-.1-.5-.2-.1 0-.3-.1-.6-.2s-.5-.2-.5-.2c-.7-.2-1.3-.5-1.9-.9-.9-.6-1.8-1.3-2.8-2.3s-1.7-1.9-2.3-2.8c-.3-.5-.6-1.2-.9-1.9 0-.1-.1-.2-.2-.5s-.2-.5-.2-.6-.1-.3-.2-.5-.1-.4-.1-.6v-.6c0-.6.2-1.3.5-2 .4-.7.8-1.1 1.1-1.3.2-.1.4-.2.7-.2.3-.1.6-.1.7-.1h.2c.1 0 .3.3.6.8q.15.15.3.6c.1.2.3.5.4.7l.3.6s.1.1.2.3.2.3.2.4.1.2.1.3-.1.3-.3.5-.4.4-.7.6c-.2.2-.5.4-.7.6s-.3.4-.3.5 0 .1.1.2c0 .1.1.2.1.2s.1.1.1.3.1.2.1.2c.5 1 1.2 1.8 1.8 2.5.7.7 1.5 1.3 2.5 1.8 0 0 .1 0 .2.1s.2.1.3.1c0 0 .1.1.2.1s.2.1.2.1c.1 0 .3-.1.5-.3s.4-.4.6-.7c.2-.2.4-.5.6-.7s.4-.3.5-.3.2 0 .3.1c.1 0 .2.1.4.2s.2.2.3.2l.6.3c.2.1.4.2.7.4l.6.3c.5.2.8.4.8.6.2.3.2.3.2.4m22.9-3.3v3.4c0 .8-.3 1.6-.9 2.2s-1.3.9-2.2.9h-8.8c-.8 0-1.6-.3-2.2-.9s-.9-1.3-.9-2.2v-8.8c0-.8.3-1.6.9-2.2s1.3-.9 2.2-.9h7.5c.1 0 .2 0 .2.1.1.1.1.1.1.2v.7c0 .1 0 .2-.1.2-.1.1-.1.1-.2.1h-7.5c-.5 0-.9.2-1.2.5s-.5.7-.5 1.2v8.8c0 .5.2.9.5 1.2s.7.5 1.2.5h8.8c.5 0 .9-.2 1.2-.5s.5-.7.5-1.2v-3.4c0-.1 0-.2.1-.2.1-.1.1-.1.2-.1h.7c.1 0 .2 0 .2.1.2.1.2.2.2.3m4.1-9.1v5.4c0 .2-.1.3-.2.5-.1.1-.3.2-.5.2s-.3-.1-.5-.2l-1.9-1.9-6.9 6.9c-.1.1-.2.1-.2.1s-.2 0-.2-.1l-1.2-1.2c-.1-.1-.1-.2-.1-.2s0-.2.1-.2l6.9-6.9-1.9-1.9c-.1-.1-.2-.3-.2-.5s.1-.3.2-.5c.1-.1.3-.2.5-.2h5.4c.2 0 .3.1.5.2.1.1.2.3.2.5m21.9 4.7c.7.8 1 1.7 1 2.7s-.3 1.9-1 2.7-1.6 1.5-2.7 2-2.4.7-3.7.7c-.6 0-1.2-.1-1.9-.2-.9.6-1.9 1.1-2.9 1.4-.3.1-.6.1-.9.2-.1 0-.2 0-.2-.1-.1-.1-.1-.1-.1-.2v-.7s.1-.1.2-.3l.3-.3c.1-.1.1-.2.2-.3s.2-.3.3-.4.1-.3.2-.5c-.9-.5-1.6-1.1-2.1-1.9s-.8-1.5-.8-2.4c0-1 .3-1.9 1-2.7s1.6-1.5 2.7-2 2.4-.7 3.7-.7c1.4 0 2.6.2 3.7.7 1.4.8 2.3 1.5 3 2.3m5.1 5.4c0 .8-.3 1.6-.8 2.4-.5.7-1.2 1.4-2.1 1.9.1.2.1.3.2.5.1.1.2.3.3.4s.2.2.2.3.1.2.3.3c.1.1.2.2.2.3v.7c0 .1-.1.2-.1.2-.1.1-.1.1-.2.1-.4 0-.7-.1-.9-.2-1.1-.3-2.1-.7-2.9-1.4-.6.1-1.3.2-1.9.2-1.9 0-3.6-.5-5-1.4h.9c1.1 0 2.2-.2 3.3-.5 1-.3 2-.8 2.8-1.4.9-.6 1.6-1.4 2-2.2s.7-1.7.7-2.7c0-.5-.1-1.1-.2-1.6.9.5 1.6 1.1 2.2 1.9.7.6 1 1.4 1 2.2m24.2 3.8c0 .8-.3 1.6-.9 2.2s-1.3.9-2.2.9h-2v-6.4h2.2l.3-2.4h-2.5v-1.5q0-.6.3-.9c.3-.3.5-.3 1-.3h1.4v-2.2c-.7-.1-1.3-.1-1.9-.1-1 0-1.7.3-2.3.9q-.9.9-.9 2.4v1.8h-2.4v2.4h2.4v6.4h-5.8c-.8 0-1.6-.3-2.2-.9s-.9-1.3-.9-2.2V-115c0-.8.3-1.6.9-2.2s1.3-.9 2.2-.9h10.2c.8 0 1.6.3 2.2.9s.9 1.3.9 2.2zm24.3-8.2v1.7H-23c-.7 0-1.4.2-2.1.5s-1.3.8-1.7 1.3l-3.6 4.2-.1.1v-10.4c0-.6.2-1.2.7-1.7s1-.7 1.7-.7h3.4c.7 0 1.2.2 1.7.7s.7 1 .7 1.7v.3h5.8c.6 0 1.2.2 1.7.7.3.4.6 1 .6 1.6m3.6 3.7c0 .2-.1.5-.3.7l-3.6 4.2c-.3.4-.7.7-1.3.9-.5.3-1.1.4-1.5.4h-11.5c-.2 0-.5 0-.6-.1s-.3-.2-.3-.5c0-.2.1-.5.3-.7l3.6-4.2c.3-.4.7-.7 1.3-.9s1.1-.4 1.5-.4h11.5c.2 0 .5 0 .6.1.2.1.3.3.3.5m26.3-1.5L7.8-103c-.1.1-.3.2-.5.2s-.3-.1-.4-.2l-7.9-7.9c-.1-.1-.2-.3-.2-.5s.1-.3.2-.5l1.8-1.7c.1-.1.3-.2.5-.2s.3.1.5.2l5.6 5.6 5.6-5.6c.1-.1.3-.2.5-.2s.3.1.5.2l1.8 1.7c.1.1.2.3.2.5-.1.3-.2.4-.3.6m26.3-4.3c-.5.7-1 1.3-1.7 1.8v.4c0 .9-.1 1.8-.4 2.8-.3.9-.7 1.8-1.2 2.6s-1.2 1.6-2 2.2-1.7 1.2-2.7 1.5-2.2.6-3.4.6c-1.9 0-3.7-.5-5.3-1.5h.8c1.6 0 3-.5 4.3-1.5-.7 0-1.4-.2-2-.7-.6-.4-1-1-1.2-1.7.2 0 .4.1.6.1.3 0 .6 0 .9-.1-.8-.2-1.4-.6-2-1.2s-.8-1.4-.8-2.2c.5.3 1 .4 1.5.4-.5-.3-.8-.7-1.1-1.2s-.4-1-.4-1.6.2-1.2.5-1.7c.9 1.1 1.9 1.9 3.1 2.5s2.5 1 3.9 1.1c-.1-.3-.1-.5-.1-.8 0-.9.3-1.8 1-2.4s1.5-1 2.4-1c1 0 1.8.4 2.5 1.1.8-.1 1.5-.4 2.2-.8-.3.8-.8 1.4-1.5 1.9.8-.1 1.4-.3 2.1-.6m25.9 8.6c0 .8-.3 1.6-.9 2.2l-1.6 1.5c-.6.6-1.3.9-2.2.9s-1.6-.3-2.2-.9l-2.2-2.2c-.6-.6-.9-1.3-.9-2.2s.3-1.6.9-2.2l-.9-.9c-.6.6-1.3.9-2.2.9-.8 0-1.6-.3-2.2-.9l-2.2-2.2c-.6-.6-.9-1.3-.9-2.2s.3-1.6.9-2.2l1.6-1.5c.6-.6 1.3-.9 2.2-.9s1.6.3 2.2.9l2.2 2.2c.6.6.9 1.3.9 2.2s-.3 1.6-.9 2.2l.9.9c.6-.6 1.3-.9 2.2-.9.8 0 1.6.3 2.2.9l2.2 2.2c.6.6.9 1.3.9 2.2m-9.5-7.5c0-.3-.1-.5-.3-.7l-2.2-2.2c-.2-.2-.4-.3-.7-.3s-.5.1-.7.3l-1.6 1.5c-.2.2-.3.4-.3.7s.1.5.3.7l2.2 2.2c.2.2.4.3.7.3s.6-.1.8-.3l-.2-.2-.2-.2-.2-.2c-.1-.1-.1-.2-.1-.3v-.3c0-.3.1-.5.3-.7s.4-.3.7-.3h.3c.1 0 .2.1.3.1.1.1.2.1.2.2l.2.2.2.2c.2-.1.3-.4.3-.7m7.5 7.5c0-.3-.1-.5-.3-.7l-2.2-2.2c-.2-.2-.4-.3-.7-.3s-.6.1-.8.3l.2.2.2.2.2.2c.1.1.1.2.1.3v.3c0 .3-.1.5-.3.7s-.4.3-.7.3h-.3c-.1 0-.2-.1-.3-.1-.1-.1-.2-.1-.2-.2l-.2-.2-.2-.2c-.2.2-.3.5-.3.8s.1.5.3.7l2.2 2.2c.2.2.4.3.7.3s.5-.1.7-.3l1.6-1.5c.2-.3.3-.5.3-.8m29.2-8.5c0 .6-.2 1.1-.5 1.6s-.8.9-1.3 1.3c-2.7 1.8-4.3 3-5 3.4-.1 0-.2.2-.5.3s-.4.3-.6.4-.3.2-.6.3-.4.2-.6.3-.4.1-.5.1c-.2 0-.3 0-.5-.1l-.6-.3-.6-.3c-.2-.1-.3-.2-.6-.4s-.4-.3-.5-.3c-.6-.5-1.6-1.1-2.8-1.9s-1.9-1.3-2.2-1.5c-.4-.3-.9-.7-1.2-1.2s-.6-1-.6-1.4c0-.6.1-1 .4-1.4s.7-.6 1.3-.6h15.6c.5 0 .9.2 1.2.5.5.3.7.7.7 1.2m0 3.1v8.4c0 .5-.2.9-.5 1.2s-.7.5-1.2.5H77.8c-.5 0-.9-.2-1.2-.5s-.5-.7-.5-1.2v-8.4c.3.3.7.7 1.1.9 2.6 1.7 4.3 3 5.3 3.7.4.3.7.5 1 .7s.6.3 1 .5q.6.3 1.2.3c.4 0 .7-.1 1.2-.3.4-.2.8-.3 1-.5s.6-.4 1-.7c1.2-.9 3-2.1 5.3-3.7.2-.2.6-.5.9-.9" class="st0"/><path d="M-281.4 114.3v10.2c0 .8-.3 1.6-.9 2.2s-1.3.9-2.2.9h-10.2c-.8 0-1.6-.3-2.2-.9s-.9-1.3-.9-2.2v-10.2c0-.8.3-1.6.9-2.2s1.3-.9 2.2-.9h10.2c.8 0 1.6.3 2.2.9.6.7.9 1.4.9 2.2m-3.1 10.2c0-1.1-.2-2.1-.6-3.2s-.9-1.9-1.5-2.8c-.6-.8-1.3-1.5-2.2-2.2-.8-.6-1.7-1.1-2.8-1.5-1-.4-2.1-.6-3.2-.6-.1 0-.2 0-.2.1-.1.1-.1.2-.1.2v1.4c0 .1 0 .2.1.2.1.1.1.1.2.1 1.4 0 2.8.4 4 1.2s2.2 1.7 3 3c.7 1.2 1.1 2.6 1.2 4 0 .1 0 .2.1.2s.1.1.2.1h1.4c.1 0 .2 0 .2-.1.2.1.2 0 .2-.1m-4 0c-.1-1.6-.7-3-1.9-4.2s-2.6-1.8-4.2-1.9c-.1 0-.2 0-.3.1s-.1.2-.1.2v1.4c0 .1 0 .2.1.2.1.1.1.1.2.1 1.1.1 2 .5 2.8 1.3s1.2 1.7 1.3 2.8c0 .1 0 .2.1.2s.1.1.2.1h1.4c.1 0 .2 0 .2-.1.1 0 .2-.1.2-.2m-4.2-.1c.3-.3.4-.6.4-1s-.1-.7-.4-1-.6-.4-1-.4-.7.1-1 .4-.4.6-.4 1 .1.7.4 1 .6.4 1 .4.8-.1 1-.4" style="fill:#fa9d39"/><path d="M142.9-115.4c.2.2.4.5.5.8s.2.7.2.9v12.2c0 .3-.1.5-.3.7s-.4.3-.7.3h-14.2c-.3 0-.5-.1-.7-.3s-.3-.4-.3-.7v-17c0-.3.1-.5.3-.7s.4-.3.7-.3h9.5c.3 0 .6.1.9.2s.6.3.8.5zm-.7 13.6v-10.9h-4.4c-.3 0-.5-.1-.7-.3s-.3-.4-.3-.7v-4.4h-8.1v16.3zm-5.4-6.3q.3.3.9.6c.4 0 .8-.1 1.2-.1 1 0 1.7.2 1.9.5.1.2.1.3 0 .6 0 .3-.3.4-.8.4-.3 0-.7-.1-1.2-.2s-.9-.3-1.4-.6c-1.6.2-2.9.5-4.2.9-1.1 1.9-1.9 2.8-2.6 2.8-.1 0-.2 0-.3-.1l-.3-.1-.1-.1c-.1-.1-.1-.2-.1-.4.1-.3.3-.6.6-1s.8-.7 1.4-1c.1-.1.2 0 .2.1.4-.6.7-1.3 1.1-2.1.5-1 .8-1.9 1.1-2.8-.2-.6-.3-1.1-.3-1.7 0-.5 0-1 .1-1.4.1-.3.2-.4.4-.4h.2c.2 0 .3.1.4.2s.2.4.1.7v.5c0 .9-.1 1.5-.1 2 .6 1.4 1.1 2.2 1.8 2.7m-6.1 4.4c.4-.2.9-.7 1.5-1.7q-.6.45-.9.9c-.4.3-.5.6-.6.8m2.9-2.7q1.5-.6 3-.9s-.1 0-.1-.1c-.1-.1-.1-.1-.2-.1-.5-.5-1-1.1-1.3-1.9q-.3.9-.9 2.1c-.3.4-.4.7-.5.9m1.3-7.1c-.1.3-.1.8 0 1.4 0 0 0-.2.1-.5 0 0 0-.2.1-.5v-.1c-.1-.1-.1-.2-.2-.3m3.3-4.5v4h4c-.1-.2-.1-.4-.2-.4l-3.3-3.3c-.2-.1-.3-.2-.5-.3m2.2 11.4q-.3-.3-1.5-.3c.5.2 1 .3 1.3.3zc.1 0 0 0 0 0m26.7-8.8c.2.2.4.5.5.8s.2.7.2.9v12.2c0 .3-.1.5-.3.7s-.4.3-.7.3h-14.2c-.3 0-.5-.1-.7-.3s-.3-.4-.3-.7v-17c0-.3.1-.5.3-.7s.4-.3.7-.3h9.5c.3 0 .6.1.9.2s.6.3.8.5zm-.6 13.6v-10.9h-4.4c-.3 0-.5-.1-.7-.3s-.3-.4-.3-.7v-4.4H153v16.3zm-12.5-9.5v1.1h.7l1.7 7h1.7l1.4-5.1c0-.1.1-.3.1-.5v-.3.5c0 .1 0 .2.1.3l1.4 5.1h1.7l1.7-7h.7v-1.1H162v1.1h1l-1 4.6c0 .1-.1.3-.1.5v.2-.4c0-.1 0-.2-.1-.3l-1.5-5.8h-1.2l-1.5 5.8v.7-.2c0-.2 0-.3-.1-.5l-1-4.6h1v-1.1zm8.4-6.7v4h4c-.1-.2-.1-.4-.2-.4l-3.3-3.3c-.1-.1-.3-.2-.5-.3m29 2.6c.2.2.4.5.5.8s.2.7.2.9v12.2c0 .3-.1.5-.3.7s-.4.3-.7.3h-14.2c-.3 0-.5-.1-.7-.3s-.3-.4-.3-.7v-17c0-.3.1-.5.3-.7s.4-.3.7-.3h9.5c.3 0 .6.1.9.2s.6.3.8.5zm-.6 13.6v-10.9h-4.4c-.3 0-.5-.1-.7-.3s-.3-.4-.3-.7v-4.4h-8.1v16.3zm-10.4-2.4v1.1h3v-1.1h-.8l1.1-1.7s.1-.1.1-.2.1-.1.1-.1 0 .1.1.1v.1s0 .1.1.1c0 0 0 .1.1.1l1.1 1.7h-.8v1.1h3.1v-1.1h-.7l-2-2.9 2.1-3h.7v-1.1h-3v1.1h.8l-1.1 1.7s-.1.1-.1.2-.1.1-.1.1 0-.1-.1-.1c0-.1-.1-.2-.2-.2l-1.1-1.7h.8v-1.1h-3.1v1.1h.7l2 2.9-2.1 3h-.7zm6.3-13.8v4h4c-.1-.2-.1-.4-.2-.4l-3.3-3.3c-.2-.1-.3-.2-.5-.3m29 2.6c.2.2.4.5.5.8s.2.7.2.9v12.2c0 .3-.1.5-.3.7s-.4.3-.7.3h-14.2c-.3 0-.5-.1-.7-.3s-.3-.4-.3-.7v-17c0-.3.1-.5.3-.7s.4-.3.7-.3h9.5c.3 0 .6.1.9.2s.6.3.8.5zm-.7 13.6v-10.9h-4.4c-.3 0-.5-.1-.7-.3s-.3-.4-.3-.7v-4.4h-8.1v16.3zm-8.7-7.3c-.4.4-.9.6-1.4.6s-1-.2-1.4-.6-.6-.9-.6-1.4.2-1 .6-1.4.9-.6 1.4-.6 1 .2 1.4.6.6.9.6 1.4-.2 1-.6 1.4m7.4 2.6v3.4h-10.9v-2l2-2 1.4 1.4 4.1-4.1zM211-118v4h4c-.1-.2-.1-.4-.2-.4l-3.3-3.3c-.2-.1-.3-.2-.5-.3m32.9 6.1c-.1 0-.2 0-.2-.1-1.3-1.1-2.6-1.9-3.9-2.5-1.4-.6-2.8-.8-4.5-.8-1.6 0-3.1.3-4.5.8-1.4.6-2.7 1.4-3.9 2.5-.1.1-.2.1-.2.1-.1 0-.4-.3-1-.8-.5-.5-.8-.9-.8-1s0-.2.1-.2c1.3-1.3 2.9-2.3 4.7-3.1 1.8-.7 3.7-1.1 5.6-1.1s3.8.4 5.6 1.1 3.4 1.7 4.7 3.1c.1.1.1.2.1.2 0 .1-.3.5-.8 1-.6.5-.9.8-1 .8M241-109c-.1 0-.2 0-.2-.1-1-.7-1.9-1.3-2.7-1.6s-1.8-.5-2.8-.5c-.6 0-1.2.1-1.8.2-.6.2-1.1.3-1.6.6-.4.2-.9.4-1.2.7-.4.2-.6.4-.8.6s-.3.2-.3.2c-.1 0-.4-.3-1-.8-.5-.5-.8-.9-.8-1s0-.2.1-.2c.9-.9 2.1-1.7 3.4-2.2s2.7-.8 4-.8c1.4 0 2.7.3 4 .8s2.5 1.2 3.4 2.2c.1.1.1.1.1.2s-.3.5-.8 1c-.6.4-.9.7-1 .7m-2.9 2.9s-.2-.1-.4-.3c-.3-.2-.6-.4-1.1-.5-.4-.2-.9-.3-1.4-.3s-.9.1-1.4.3c-.4.2-.8.4-1.1.5-.3.2-.4.3-.4.3-.1 0-.5-.3-1-.8s-.8-.9-.8-1 0-.2.1-.2c.6-.5 1.2-1 2.1-1.3s1.7-.5 2.5-.5 1.6.2 2.5.5 1.5.7 2.1 1.3c.1.1.1.2.1.2 0 .1-.3.5-.8 1-.6.5-.9.8-1 .8m-1.9 2.1c-.5.5-.8.8-1 .8-.1 0-.5-.3-1-.8s-.8-.9-.8-1c0-.2.2-.4.7-.6s.8-.2 1.1-.2.7.1 1.1.2c.4.2.7.3.7.6 0 .1-.3.4-.8 1" class="st0"/><path d="m-327.9 123.9 5-4.5-5-4.4zm5.8-11.4v1.6l.8.9v8.8l-.8 1v1.5l1.6-1.9v-9.9zm-9.7 2v9.9l1.6 1.9v-1.5l-.8-1V115l.8-.9v-1.6z" style="fill:#a3a3a3"/><path d="M249.7-68.3v10.2c0 .8-.3 1.6-.9 2.2s-1.3.9-2.2.9h-10.2c-.8 0-1.6-.3-2.2-.9s-.9-1.3-.9-2.2v-10.2c0-.8.3-1.6.9-2.2s1.3-.9 2.2-.9h10.2c.8 0 1.6.3 2.2.9s.9 1.3.9 2.2m-10.5 10.5 5.8-5.8-3.1-3.1-5.8 5.8v3.1zm-1.5-3.2 1.6 1.6-.6.6h-.6v-1h-1v-.6zm4.4-4.1q.15.15 0 .3l-3.1 3.1q-.15.15-.3 0t0-.3l3.1-3.1q.15-.15.3 0m3.6.8 1-1c.2-.2.3-.4.3-.7s-.1-.5-.3-.7l-1.6-1.6c-.2-.2-.4-.3-.7-.3s-.5.1-.7.3l-1 1zM-311.7 9.9c.7 1.2 1.1 2.6 1.1 4.1s-.4 2.8-1.1 4.1q-1.05 1.8-3 3c-1.2.7-2.6 1.1-4.1 1.1s-2.8-.4-4.1-1.1q-1.8-1.05-3-3c-.7-1.2-1.1-2.6-1.1-4.1s.4-2.8 1.1-4.1q1.05-1.8 3-3c1.2-.7 2.6-1.1 4.1-1.1s2.8.4 4.1 1.1q1.95 1.05 3 3m-5.5 9.4 1.1-1.1c.1-.1.2-.3.2-.5s-.1-.3-.2-.5l-3.3-3.3 3.3-3.3c.1-.1.2-.3.2-.5s-.1-.3-.2-.5l-1.1-1.1c-.1-.1-.3-.2-.5-.2s-.3.1-.5.2l-4.8 4.8c-.1.1-.2.3-.2.5s.1.3.2.5l4.8 4.8c.1.1.3.2.5.2s.3.1.5 0m29.8-9.4c.7 1.2 1.1 2.6 1.1 4.1s-.4 2.8-1.1 4.1q-1.05 1.8-3 3c-1.2.7-2.6 1.1-4.1 1.1s-2.8-.4-4.1-1.1q-1.8-1.05-3-3c-.7-1.2-1.1-2.6-1.1-4.1s.4-2.8 1.1-4.1q1.05-1.8 3-3c1.2-.7 2.6-1.1 4.1-1.1s2.8.4 4.1 1.1 2.2 1.7 3 3m-2.9 6.6 1.1-1.1c.1-.1.2-.3.2-.5s-.1-.3-.2-.5l-4.8-4.8c-.1-.1-.3-.2-.5-.2s-.3.1-.5.2l-4.8 4.8c-.1.1-.2.3-.2.5s.1.3.2.5l1.1 1.1c.1.1.3.2.5.2s.3-.1.5-.2l3.3-3.3 3.3 3.3c.1.1.3.2.5.2s.2 0 .3-.2m27.1-6.6c.7 1.2 1.1 2.6 1.1 4.1s-.4 2.8-1.1 4.1q-1.05 1.8-3 3c-1.2.7-2.6 1.1-4.1 1.1s-2.8-.4-4.1-1.1q-1.8-1.05-3-3c-.7-1.2-1.1-2.6-1.1-4.1s.4-2.8 1.1-4.1q1.05-1.8 3-3c1.2-.7 2.6-1.1 4.1-1.1s2.8.4 4.1 1.1q1.95 1.05 3 3m-7.6 9.4 4.8-4.8c.1-.1.2-.3.2-.5s-.1-.3-.2-.5l-4.8-4.8c-.1-.1-.3-.2-.5-.2s-.3.1-.5.2l-1.1 1.1c-.1.1-.2.3-.2.5s.1.3.2.5l3.3 3.3-3.3 3.3c-.1.1-.2.3-.2.5s.1.3.2.5l1.1 1.1c.1.1.3.2.5.2s.4-.3.5-.4m31.9-9.4c.7 1.2 1.1 2.6 1.1 4.1s-.4 2.8-1.1 4.1q-1.05 1.8-3 3c-1.2.7-2.6 1.1-4.1 1.1s-2.8-.4-4.1-1.1q-1.8-1.05-3-3c-.7-1.2-1.1-2.6-1.1-4.1s.4-2.8 1.1-4.1q1.05-1.8 3-3c1.2-.7 2.6-1.1 4.1-1.1s2.8.4 4.1 1.1q1.95 1.05 3 3m-6.6 8.3 4.8-4.8c.1-.1.2-.3.2-.5s-.1-.3-.2-.5l-1.1-1.1c-.1-.1-.3-.2-.5-.2s-.3.1-.5.2l-3.3 3.3-3.3-3.3c-.1-.1-.3-.2-.5-.2s-.3.1-.5.2l-1.1 1.1c-.1.1-.2.3-.2.5s.1.3.2.5l4.8 4.8c.1.1.3.2.5.2s.6 0 .7-.2m30.9-7.5c.7 1.2 1.1 2.6 1.1 4.1s-.4 2.8-1.1 4.1q-1.05 1.8-3 3c-1.2.7-2.6 1.1-4.1 1.1s-2.8-.4-4.1-1.1q-1.8-1.05-3-3c-.7-1.2-1.1-2.6-1.1-4.1s.4-2.8 1.1-4.1q1.05-1.8 3-3c1.2-.7 2.6-1.1 4.1-1.1s2.8.4 4.1 1.1c1.3.8 2.2 1.8 3 3m56-6.3v2.8h-1.7c-.6 0-1 .1-1.2.4s-.3.6-.3 1.1v2h3.1l-.4 3.1h-2.7v8h-3.2v-8h-2.7v-3.1h2.7V8.4c0-1.3.4-2.3 1.1-3.1.7-.7 1.7-1.1 2.9-1.1 1 .1 1.8.1 2.4.2M-250 51.6c1.2-.7 2.6-1.1 4.1-1.1s2.8.4 4.1 1.1 2.2 1.7 3 3c.7 1.2 1.1 2.6 1.1 4.1s-.4 2.8-1.1 4.1q-1.05 1.8-3 3c-1.95 1.2-2.6 1.1-4.1 1.1s-2.8-.4-4.1-1.1-2.2-1.7-3-3c-.7-1.2-1.1-2.6-1.1-4.1s.4-2.8 1.1-4.1q1.05-1.95 3-3m7 4.4-.1.1-.1.1v-.1s0-.1.1-.1v-.1l.2-.2c.1 0 .3-.1.6-.1.2-.1.4 0 .5.1 0 0 0-.1.1-.1.1-.1.1-.1.2-.1h.2c.1 0 .1 0 .2-.1v-.2c-.1 0-.1 0-.2-.1 0-.1-.1-.1-.1-.2l-.1.1v-.1h-.2c-.1 0-.1 0-.2-.1 0 0-.1-.1-.1-.2v-.2s0-.1-.1-.1-.1-.1-.1-.1v-.3c0-.1 0 0-.1 0l-.1.1-.1.1v.1h-.4c.1 0 .1-.1 0-.1h-.2c.1 0 .1-.1.1-.1 0-.1 0-.1-.1-.1h.1s0-.1-.1-.1-.1-.1-.2-.1-.1 0-.1-.1c-.1 0-.2-.1-.4-.1h-.3s-.1.1 0 .1v.2s0 .1-.1.1-.1.1-.1.1 0 .1.1.2.1.1.1.2-.1.1-.2.2-.1.1-.2.1v.2c0 .1.1.1.1.2h-.2c-.1 0-.2 0-.2-.1-.1-.1-.1-.2-.1-.3 0-.2-.1-.3-.2-.3q-.3-.15-.3 0c0-.1-.2-.2-.4-.3q-.3-.15-.6 0v-.2c0-.1-.1-.1-.2-.1v-.3c0-.1.1-.2.1-.2l.1-.1c0-.1.1-.1.1-.1V53c.2 0 .4 0 .5-.1 0 0 .1-.1.1-.2s.1-.1.1-.2c.1 0 .1-.1.1-.1s.1 0 .2.1c.1 0 .1.1.2.1s.2 0 .2-.1 0-.2-.1-.2c.1 0 .1-.1 0-.2l-.1-.1c-.1 0-.2 0-.3.1-.1 0 0 .1 0 .1l-.1.1-.2.2c-.1.1-.1 0-.2-.1 0 0 0-.1-.1-.1s-.1-.1-.1-.1c-.1 0-.1.1-.2.2 0-.1 0-.1-.1-.2-.1 0-.2-.1-.3-.1.1-.1.1-.2-.1-.3 0 0-.1 0-.2-.1h-.2l-.1.1s0 .1.1.1c0 0 .1 0 .1.1h.2l.1.1h-.3v.2s-.1-.1-.1-.2-.1-.1-.1-.2c0 .1 0 .1-.3.1h-.5c-.1 0-.1 0-.1-.1v-.2l-.1-.1-.1-.1c-.3.1-.7.3-1 .4h.1s.1 0 .1-.1c.1 0 .1-.1.1-.1.2-.1.4-.1.4-.1l.1-.1c.1.1.2.2.2.3h-.3c-.1 0-.2.1-.2.1 0 .1.1.1.1.2l-.1-.1c-.1 0-.1-.1-.2-.1 0 0-.1 0-.2-.1h-.2c-1 .6-1.9 1.4-2.5 2.4l.1.1.1.1v.1h.1c.1.1.1.1 0 .2 0 0 .2.1.5.3l.2.2c0 .1 0 .1-.1.2l-.1-.1c-.1 0-.1-.1-.1 0v.2c0 .1.1.1.1.1s-.1.1-.1.2v.6c0 .1 0 .2.1.4s.1.2.2.2c-.1 0 0 .2.2.5 0 .1.1.1.1.1s.1 0 .1.1c.1 0 .1.1.2.1s.1.1.1.1.1.1.1.2.1.2.1.2 0 .1.1.2.1.2.1.2.1.1.2.1.1.1.2.1v.2h.1c0-.1-.1-.4-.3-.7-.1-.2-.2-.3-.2-.3s0-.1-.1-.2 0-.1 0-.2h.3v.2c0 .1.1.1.1.2s.1.1.2.2l.1.1s.1.1.1.2c.1.1.1.1 0 .1.1 0 .1 0 .2.1l.2.2c0 .1.1.1.1.3 0 .1 0 .2.1.3 0 0 0 .1.1.1l.1.1s.1 0 .2.1c.1 0 .1.1.1.1s.1.1.2.1c.1.1.2.1.2.1h.5c.1 0 .2 0 .3.2l.2.2c.3.1.4.2.6.1v.1c0 .1 0 .1.1.2 0 .1.1.1.1.2 0 0 0 .1.1.1l.2.2c.1.1.2.1.2.2l.1-.1c0 .1 0 .1.1.2s.1.1.2.1.1-.1.1-.3c-.2.1-.4 0-.5-.2V61h.2v-.2c0-.1 0-.1-.1-.2s-.1-.1-.1-.2c0 .1-.1.1-.2.1s-.1 0-.2-.1v.2h-.2v-.4s0-.1.1-.1c0-.1.1-.1.1-.2v-.2h-.2c-.1 0-.2.1-.3.2v.1s0 .1-.1.1l-.1.1h-.3c-.1 0-.2 0-.3-.1s-.2-.2-.2-.3c-.1-.1-.1-.3-.1-.4v-.6c0-.1 0-.1-.1-.3 0 0 .1 0 .1-.1s.1-.1.1-.1v-.1h.6c.1.1.2.1.2 0V58c0 .2.1.2.3.1 0 0 .1 0 .2.1s.1 0 .2.1l.1.1h.2s.1 0 .1-.1c.1.1.1.2.1.3.1.3.1.4.2.5h.1v-.7c-.1 0-.2-.1-.2-.1v-.2c0-.1.1-.1.2-.2h.1s.1 0 .2-.1l.1-.1c.1-.1.2-.3.2-.4 0 0 .1 0 .1-.1h-.1s-.1 0-.1-.1c.1 0 .1-.1 0-.2l.1-.1c0-.1 0-.1.1-.1.1.1.1.1.2 0 0-.1.1-.1 0-.2 0 0 .1-.1.2-.1s.2-.1.2-.1h.1v-.2s.1-.1.2-.1.1 0 .1-.1l.2-.1c.1 0 .2 0 .3-.1s0-.1-.1-.2v-.1s-.1 0-.2-.1h.2c.1-.1.1-.1-.1-.2.3.7.1.8 0 .9m-1.8 9.3c1.5-.3 2.7-.9 3.7-2h-.2c-.1 0-.2-.1-.3-.1v-.1l-.1-.1s-.1 0-.1-.1c-.1 0-.1-.1-.1-.1l-.1-.1s-.1 0-.1-.1h-.5c-.1-.1-.3-.2-.4-.2 0 0-.1 0-.1-.1s-.1-.1-.1-.1h-.1s-.1 0-.1.1c0 0-.1.1-.1.2v.1-.2c0-.1.1-.2 0-.2 0 0-.1-.1-.1 0h-.1l-.1.1-.1.1-.1.1-.1.1s0 .1-.1.1 0 .1-.1.1l-.1-.1c-.1 0-.1 0-.1-.1v.4c0 .2 0 .3.1.4 0 .2 0 .4-.1.5-.2.2-.3.3-.3.4 0 .2 0 .2.1.3 0 0 0 .1-.1.2s-.1.2-.1.2c.1.2.1.2.1.3m132.4-54.4c-.2 0-.3-.1-.5-.2l-6.6-6.4c-.1-.1-.2-.1-.3-.3-.1-.1-.3-.4-.6-.7s-.5-.7-.7-1-.4-.8-.6-1.3-.2-1-.2-1.5c0-1.6.4-2.8 1.3-3.6.9-.9 2.1-1.3 3.7-1.3.4 0 .9.1 1.3.2.5.2.9.4 1.3.6.4.3.7.5 1 .7s.6.5.8.7c.3-.3.5-.5.8-.7s.6-.5 1-.7c.4-.3.8-.5 1.3-.6.5-.2.9-.2 1.3-.2 1.6 0 2.8.4 3.7 1.3s1.3 2.1 1.3 3.6q0 2.4-2.4 4.8l-6.6 6.4c0 .1-.1.2-.3.2M-51.7.1c0 .2-.1.3-.3.5l-3.8 3.8.9 5.3v.2c0 .4-.1.5-.4.5-.1 0-.3 0-.4-.1l-4.8-2.5-4.8 2.5c-.2.1-.3.1-.4.1s-.3-.1-.3-.2-.1-.2-.1-.4v-.2l.9-5.3L-69 .6c-.2-.2-.3-.4-.3-.5 0-.3.2-.4.6-.5l5.3-.8L-61-6c.1-.3.3-.4.5-.4s.4.1.5.4l2.4 4.8 5.3.8c.4 0 .6.2.6.5m-5.5 3.8L-54 .8l-4.5-.8-2-4.1-2 4.1-4.5.7 3.2 3.1-.8 4.5 4-2.1 4 2.1zm31.3-4.6c.8 1 1.3 2.2 1.3 3.4s-.4 2.4-1.3 3.4c-.8 1-2 1.9-3.5 2.5s-3 .9-4.8.9c-.5 0-1 0-1.5-.1-1.4 1.2-3 2.1-4.9 2.6-.3.1-.7.2-1.2.2-.1 0-.2 0-.3-.1s-.2-.2-.2-.3v-.3c0-.1.1-.1.1-.1l.1-.1.1-.1c0-.1.2-.2.3-.4l.4-.4c.1-.1.2-.2.3-.4s.3-.4.3-.5.2-.4.3-.6c.1-.3.2-.5.3-.8-1.1-.6-2-1.4-2.6-2.3s-1-1.9-1-3c0-.9.3-1.8.8-2.6s1.2-1.6 2-2.2 1.9-1.1 3-1.4c1.2-.4 2.4-.5 3.7-.5q2.55 0 4.8.9c1.5.4 2.6 1.3 3.5 2.3" class="st0"/><circle cx="19.8" cy="9" r="5.7" class="st1"/><path d="M19.8 16.5c-4.1 0-7.5-3.3-7.5-7.5 0-4.1 3.3-7.5 7.5-7.5s7.5 3.3 7.5 7.5c0 4.1-3.4 7.5-7.5 7.5m0-12.4c-2.7 0-5 2.2-5 5s2.2 5 5 5 5-2.2 5-5-2.3-5-5-5" style="fill:#be0307"/><path d="M30.8 13.3V4.8h2.3v8.6h-2.3zm12.3 0h-3l-3.1-6h-.1c.1.9.1 1.7.1 2.2v3.9h-2V4.8h3l3.1 6c-.1-.9-.1-1.6-.1-2.1V4.8h2.1zm5.7 0h-2.3V6.7h-2.1V4.8h6.5v1.9h-2.1zm5.6-3.1v3.1h-2.3V4.8h2.8c2.3 0 3.5.8 3.5 2.5 0 1-.5 1.8-1.5 2.3l2.5 3.7h-2.6L55 10.2zm0-1.7h.4c.8 0 1.2-.4 1.2-1.1q0-.9-1.2-.9h-.5v2z" class="st0"/><path d="m65.5 13.3-.5-1.6h-2.8l-.4 1.6h-2.5l2.8-8.6h3.1l2.8 8.6zm-.9-3.5-.4-1.4q-.15-.45-.3-1.2c-.15-.75-.2-.9-.2-1.1 0 .2-.1.5-.2 1s-.3 1.4-.7 2.7zm12.5 3.5h-3l-3.1-6h-.1c0 .9.1 1.7.1 2.2v3.9h-2.1V4.8h3l3.1 6v-6h2.1zm6.9 0h-5.1V4.8H84v1.9h-2.8V8h2.6v1.9h-2.6v1.6H84zm5.3 0H87V6.7h-2.1V4.8h6.5v1.9h-2.1z" class="st0"/></svg>