<svg xmlns="http://www.w3.org/2000/svg" xml:space="preserve" x="0px" y="0px" viewBox="0 0 20.4 20.4"><path d="M6.1 3.1C7.3 2.4 8.7 2 10.2 2s2.8.4 4.1 1.1 2.2 1.7 3 3c.7 1.2 1.1 2.6 1.1 4.1s-.4 2.8-1.2 4.1q-1.05 1.8-3 3c-1.95 1.2-2.6 1.1-4.1 1.1S7.3 18 6 17.3s-2.2-1.7-3-3c-.6-1.3-1-2.6-1-4.1s.4-2.8 1.1-4.1c.8-1.3 1.7-2.2 3-3m7 4.5-.1.1-.1.1v-.1s0-.1.1-.1v-.1l.2-.2c.1 0 .3-.1.6-.1.2-.1.4 0 .5.1 0 0 0-.1.1-.1.1-.1.1-.1.2-.1h.2c.1 0 .1 0 .2-.1v-.2c-.1 0-.1 0-.2-.1 0-.1-.1-.1-.1-.2l-.1.1v-.1h-.2c-.1 0-.1 0-.2-.1 0 0-.1-.1-.1-.2V6s0-.1-.1-.1-.1-.1-.1-.1v-.3c0-.1 0 0-.1 0l-.1.1-.1.1v.1h-.4c.1 0 .1-.1 0-.1H13c0 .1 0 0 0 0 0-.1 0-.1-.1-.1h.1s0-.1-.1-.1-.1-.1-.2-.1-.1 0-.1-.1c-.1 0-.2-.1-.4-.1h-.3s-.1.1 0 .1v.2s0 .1-.1.1-.1.1-.1.1 0 .1.1.2.2.2.2.3-.1.1-.2.2-.1.1-.2.1v.2c0 .1.1.1.1.2h-.2c-.1 0-.2 0-.2-.1-.1-.1-.1-.2-.1-.3 0-.2-.1-.3-.2-.3q-.3-.15-.3 0c0-.1-.2-.2-.4-.3q-.3-.15-.6 0v-.2c0-.1-.1-.1-.2-.1v-.3c0-.1.1-.2.1-.2l.1-.1c.1.1.1 0 .1 0v-.1c.2 0 .4 0 .5-.1 0 0 .1-.1.1-.2s.1-.1.1-.2c.1 0 .1-.1.1-.1s.1 0 .2.1l.2.1c.1 0 .2 0 .2-.1s0-.2-.1-.2c.1 0 .1-.1 0-.2l-.1-.1c-.1 0-.2 0-.3.1-.1 0 0 .1 0 .1l-.1.1-.2.2c-.1.1-.1 0-.2-.1 0 0 0-.1-.1-.1s.1-.2.1-.2c-.1 0-.1.1-.2.2 0-.1 0-.1-.1-.2-.1 0-.2-.1-.2-.1.1-.1.1-.2-.1-.3 0 0-.1 0-.2-.1h-.2l-.1.1s0 .1.1.1c0 0 .1 0 .1.1h.2c.1.2.1.3.1.3h-.3v.2s-.1-.1-.1-.2-.1.1-.1.1c0 .1 0 .1-.3.1h-.5c-.1 0-.1 0-.1-.1V4l-.1-.1-.1-.1c-.3.1-.7.2-1 .4h.1s.1 0 .1-.1c.1 0 .1-.1.1-.1.3 0 .5-.1.5 0l.1-.1c.1.1.1.2.2.3h-.3c-.1 0-.2.1-.2.1 0 .1.1.1.1.2l-.1-.1c-.1 0-.1-.1-.2-.1 0 0-.1 0-.2-.1H7c-1 .6-1.9 1.4-2.5 2.4l.1.1.1.1v.1h.1c.1.1.1.1 0 .2 0 0 .2.1.5.3l.2.2c0 .1 0 .1-.1.2l-.1-.1c-.1 0-.1-.1-.1 0v.2c0 .1.1.1.1.1s-.1.1-.1.2v.6c0 .1 0 .2.1.4s.1.2.2.2c-.1 0 0 .2.2.5 0 .1.1.1.1.1s.1 0 .1.1c.1-.1.1-.1.2 0l.1.1s.1.1.1.2.1.2.1.2 0 .1.1.2c.1.2.1.2.1.3 0 0 .1.1.2.1s.1.1.2.1v.2h.1c0-.1-.1-.4-.3-.7-.1-.2-.2-.3-.2-.3s0-.1-.1-.2 0-.1 0-.2h.3v.2c0 .1.1.1.1.2.1.4.1.5.2.6l.1.1s.1.1.1.2c.1.1.1.1 0 .1.1 0 .1 0 .2.1l.2.2c0 .1.1.1.1.3 0 .1 0 .2.1.3 0 0 0 .1.1.1l.1.1s.1 0 .2.1c.1 0 .1.1.1.1s.1.1.2.1c.1.1.2.1.2.2h.5c.1 0 .2 0 .3.2l.2.2c.3.1.4.2.6.1v.1c0 .1 0 .1.1.2 0 .1.1.1.1.2 0 0 0 .1.1.1l.2.2c.1.1.2.1.2.2l.1-.1c0 .1 0 .1.1.2s.1.1.2.1.1-.1.1-.3c-.2.1-.4 0-.5-.2v-.4h.2v-.2c0-.1 0-.1-.1-.2s-.1-.1-.1-.2c0 .1-.1.1-.2.1s-.1 0-.2-.1v.2h-.2v-.4s0-.1.1-.1c0-.1.1-.1.1-.2v-.2h-.2c-.1 0-.2.1-.3.2v.1s0 .1-.1.1l-.1.1h-.3c-.1 0-.2 0-.3-.1s-.2-.2-.2-.3c-.1-.1-.1-.3-.1-.4v-.6c0-.1 0-.1-.1-.3 0 0 .1 0 .1-.1s.1-.1.1-.1v-.1h.6c.1.1.2.1.2 0v-.2c0 .2.1.2.3.1 0 0 .1 0 .2.1s.1 0 .2.1l.1.1h.2s.1 0 .1-.1c.1.1.1.2.1.3.1.3.1.4.2.5h.1v-.7c-.1 0-.2-.1-.2-.1V11c0-.1.1-.1.2-.2h.1s.1 0 .2-.1l.1-.1c.1-.1.2-.3.2-.4 0 0 .1 0 .1-.1h-.1s-.1 0-.1-.1c.1 0 .1-.1 0-.2l.1-.1c0-.1 0-.1.1-.1.1.1.1.1.2 0 0-.1.1-.1 0-.2 0 0 .1-.1.2-.1s.2-.1.2-.1h.1V9s.1-.1.2-.1.1 0 .1-.1l.2-.1c.1 0 .2 0 .3-.1s0-.1-.1-.2v-.1s-.1 0-.2-.1h.2c.1-.1.1-.1-.1-.2-.1-.6-.2-.6-.4-.4m-1.7 9.3c1.5-.3 2.7-.9 3.7-2h-.2c-.1 0-.2-.1-.3-.1v-.1l-.1-.1s-.1 0-.1-.1c-.1 0-.1-.1-.1-.1l-.1-.1s-.1 0-.1-.1h-.5c-.1-.1-.3-.2-.4-.2 0 0-.1 0-.1-.1s-.1 0-.1 0h-.1s-.1 0-.1.1c0 0-.1.1-.1.2v.1-.2c0-.1.1-.2 0-.2 0 0-.1-.1-.1 0h-.1l-.1.1-.1.1-.1.1-.1.1s0 .1-.1.1 0 .1-.1.1l-.1-.1c-.1 0-.1 0-.1-.1v.4c0 .2 0 .3.1.4 0 .2 0 .4-.1.5-.2.2-.3.3-.3.4 0 .2 0 .2.1.3 0 0 0 .1-.1.2s-.1.2-.1.2 0 .1.1.2" style="fill:#195889"/></svg>