<svg xmlns="http://www.w3.org/2000/svg"><defs><font id="OpenSans" horiz-adv-x="1131"><font-face alphabetic="0" ascent="2189" descent="-600" font-family="Open Sans" panose-1="2 11 6 6 3 5 4 2 2 4" units-per-em="2048"/><glyph glyph-name="space" horiz-adv-x="532"/><glyph d="M555 1462 281 403H172q49 307 176 1059zM43 78q0 76 39 120t108 44q45 0 73-27t28-82q0-68-39-115T147-29Q98-29 71-1T43 78" glyph-name="exclam" horiz-adv-x="530" unicode="!"/><glyph d="M485 1462 332 934H225l72 528zm349 0L680 934H573l72 528z" glyph-name="quotedbl" horiz-adv-x="791" unicode="&quot;"/><glyph d="m1036 899-98-340h285l-13-129H901L776 0H637l129 430H463L336 0H203l121 430H63l13 129h284l101 340H184l13 127h301l123 436h139l-125-436h305l127 436h133l-125-436h264l-12-127zM500 559h303l96 340H596z" glyph-name="numbersign" horiz-adv-x="1323" unicode="#"/><glyph d="M942 492q0-162-112-263T520 106l-49-225H338l49 223q-195 14-315 72v154q82-41 175-63t167-23l98 452q-139 49-201 123t-63 189q0 159 108 255t299 113l39 176h133l-39-178q159-12 283-76l-63-135q-121 63-248 72l-94-440q149-55 212-125t64-178M549 250q107 13 170 75t63 154q0 54-33 96t-114 74zm78 985q-108-11-167-69t-59-156q0-53 34-97t108-71z" glyph-name="dollar" horiz-adv-x="1128" unicode="$"/><glyph d="M1468 1462 383 0H231l1086 1462zm-184-690q-67 0-119-64t-84-189-32-240q0-173 106-173 65 0 117 65t86 198 35 237q0 166-109 166m248-151q0-107-31-236t-82-217-121-138-157-50q-110 0-171 74t-61 220q0 166 50 318t137 229 200 76q116 0 176-71t60-205m-989 737q-66 0-119-63t-85-187-32-244q0-172 107-172 52 0 94 39t73 114 51 175 19 172q0 166-108 166m248-152q0-108-32-237t-82-218-121-137-157-49q-109 0-170 75t-61 220q0 166 50 318t137 229 200 76q116 0 176-72t60-205" glyph-name="percent" horiz-adv-x="1624" unicode="%"/><glyph d="M737 1348q-105 0-163-60t-58-170q0-120 82-235 139 71 191 110t83 85 31 104q0 77-42 121t-124 45M471 119q87 0 168 33t195 124L528 709q-128-67-184-116t-85-107-30-132q0-106 66-170t176-65M66 342q0 148 90 257t303 212q-103 165-103 309 0 164 106 264t281 101q149 0 236-79t88-212q0-78-32-137t-88-108-127-90-154-83l278-389q127 110 199 295h168q-101-236-283-412L1231 0h-201L913 166Q793 66 683 23T436-20q-168 0-269 96T66 342" glyph-name="ampersand" horiz-adv-x="1372" unicode="&amp;"/><glyph d="M485 1462 332 934H225l72 528z" glyph-name="quotesingle" horiz-adv-x="444" unicode="'"/><glyph d="M82 272q0 339 120 627t384 563h157q-246-270-371-570T246 274q0-339 114-598H229Q82-58 82 272" glyph-name="parenleft" horiz-adv-x="584" unicode="("/><glyph d="M500 864q0-341-121-629T-4-324h-156Q336 227 336 864q0 341-113 598h131q146-269 146-598" glyph-name="parenright" horiz-adv-x="584" unicode=")"/><glyph d="m854 1528-123-383 422 18-8-157-393 47 180-383-166-52-113 406-258-344-116 121 309 284-373 109 55 154 371-185 41 400z" glyph-name="asterisk" horiz-adv-x="1130" unicode="*"/><glyph d="M516 651H127v142h389v391h141V793h390V651H657V264H516z" glyph-name="plus" horiz-adv-x="1128" unicode="+"/><glyph d="m291 238 8-23Q186-20 29-264h-129Q26 22 104 238z" glyph-name="comma" horiz-adv-x="492" unicode=","/><glyph d="m55 469 35 158h479l-34-158z" glyph-name="hyphen" horiz-adv-x="639" unicode="-"/><glyph d="M43 74q0 77 40 122t112 46q43 0 69-26t27-79q0-71-40-118T143-29Q97-29 70-3T43 74" glyph-name="period" horiz-adv-x="518" unicode="."/><glyph d="M893 1462 80 0H-94l813 1462z" glyph-name="slash" horiz-adv-x="717" unicode="/"/><glyph d="M1092 1014q0-295-78-539T800 106 485-20q-176 0-270 127t-94 370q0 270 82 514t216 369 308 125q365 0 365-471m-375 327q-113 0-209-115T353 903t-60-424q0-172 50-264t161-92q115 0 209 114t150 328 57 453q0 323-203 323" glyph-name="zero" horiz-adv-x="1128" unicode="0"/><glyph d="M588 0H416l196 913q59 261 88 359-50-53-139-111l-178-110-80 127 449 284h149z" glyph-name="one" horiz-adv-x="1128" unicode="1"/><glyph d="M911 0H12l31 147 465 420q102 93 176 163t123 133 72 124 24 137q0 99-60 157t-163 58q-77 0-150-28t-163-97l-82 115q191 154 413 154 176 0 278-88t103-244q0-111-39-204T909 750 614 469L262 162v-8h678z" glyph-name="two" horiz-adv-x="1128" unicode="2"/><glyph d="M1073 1159q0-156-101-264T692 754v-9q124-23 195-106t71-209q0-133-62-234T715 37 432-20Q222-20 47 59v164q94-49 199-75t190-27q162 0 252 79t90 218q0 131-79 198t-220 68H348l31 143h139q165 0 274 87t109 227q0 92-58 146t-157 54q-80 0-157-27t-175-93l-80 118q195 144 424 144 179 0 277-87t98-237" glyph-name="three" horiz-adv-x="1128" unicode="3"/><glyph d="M1067 334H834L762 0H598l74 334H16l29 158 834 978h196L868 487h232zM705 487q46 220 78 373t116 445h-8q-17-29-66-96t-73-97L219 487z" glyph-name="four" horiz-adv-x="1128" unicode="4"/><glyph d="M598 893q182 0 289-104t108-283q0-161-73-283T718 41 410-20Q217-20 80 59v164q164-102 334-102 191 0 298 96t107 268q0 126-73 199t-205 74q-48 0-97-6t-139-31l-74 57 197 684h668l-33-153H541L414 870q87 23 184 23" glyph-name="five" horiz-adv-x="1128" unicode="5"/><glyph d="M133 424q0 209 60 415t164 351 246 219 327 74q111 0 184-23l-35-145q-68 22-170 22-212 0-356-149T340 745h8q59 79 146 126t194 47q154 0 244-98t90-271q0-161-66-294T775 51 514-20Q332-20 233 95T133 424m399-303q94 0 167 54t114 149 41 208q0 248-221 248-66 0-128-28t-110-76-72-105-24-155q0-137 60-216t173-79" glyph-name="six" horiz-adv-x="1128" unicode="6"/><glyph d="m174 0 768 1313H223l31 149h891l-27-139L354 0z" glyph-name="seven" horiz-adv-x="1128" unicode="7"/><glyph d="M741 1485q174 0 271-86t98-236q0-129-78-225T766 762q127-78 180-165t53-202q0-122-60-217T767 31 502-20q-190 0-298 98T96 346q0 148 95 256t296 184q-95 69-135 144t-41 172q0 111 54 198t154 136 222 49M608 700q-185-60-261-143t-77-203q0-107 69-170t181-63q139 0 222 74t83 196q0 99-52 174T608 700m121 641q-114 0-182-65t-68-176q0-82 39-144t127-116q161 60 228 131t67 174q0 90-57 143t-154 53" glyph-name="eight" horiz-adv-x="1128" unicode="8"/><glyph d="M1067 1034q0-194-56-406T864 268 642 50 340-20Q204-20 98 14v158q134-47 246-47 202 0 327 141t189 441h-10q-51-75-132-118t-181-44q-169 0-261 98t-92 289q0 153 64 280t180 199 260 72q180 0 279-114t100-335m-385 307q-150 0-241-113t-91-290q0-124 54-190t163-66q76 0 140 28t108 82 65 114 21 151q0 131-59 207t-160 77" glyph-name="nine" horiz-adv-x="1128" unicode="9"/><glyph d="M43 74q0 77 40 122t112 46q43 0 69-26t27-79q0-71-40-118T143-29Q97-29 70-3T43 74m160 882q0 77 40 122t111 46q97 0 97-104 0-73-41-119t-107-47q-46 0-73 26t-27 76" glyph-name="colon" horiz-adv-x="518" unicode=":"/><glyph d="m291 238 8-23Q186-20 29-264h-129Q26 22 104 238zm-88 718q0 77 40 122t111 46q97 0 97-104 0-73-41-119t-107-47q-46 0-73 26t-27 76" glyph-name="semicolon" horiz-adv-x="518" unicode=";"/><glyph d="M1040 242 121 664v98l919 479v-149L293 721l747-328z" glyph-name="less" horiz-adv-x="1128" unicode="&lt;"/><glyph d="M127 858v139h920V858zm0-414v142h920V444z" glyph-name="equal" horiz-adv-x="1128" unicode="="/><glyph d="m121 393 745 328-745 371v149l919-479v-98L121 242z" glyph-name="greater" horiz-adv-x="1128" unicode="&gt;"/><glyph d="M260 403q22 130 72 213t166 175q128 100 168 144t63 94 23 112q0 93-51 143t-148 51q-81 0-155-25t-140-57l-61 129q92 51 192 76t182 25q167 0 259-84t92-238q0-123-65-226T631 711q-125-91-169-147t-67-161zM158 74q0 77 40 122t111 46q44 0 70-26t27-79q0-73-41-119T258-29q-46 0-73 26t-27 77" glyph-name="question" horiz-adv-x="874" unicode="?"/><glyph d="M1679 852q0-179-55-324t-155-227-222-82q-197 0-213 184h-8Q915 219 735 219q-115 0-180 75t-66 210q0 157 68 284t188 199 261 72q65 0 127-12t151-48q-64-242-98-368t-31-172q0-117 102-117 78 0 141 67t101 183 37 244q0 239-128 367t-370 128q-228 0-406-107T355 929t-99-417q0-270 143-418T809-55q197 0 420 86V-96q-219-90-443-90-314 0-494 184T111 504q0 261 126 485t344 348 486 123q191 0 329-75t210-214 73-319m-694 86q-94 0-174-55T685 730t-46-212q0-93 33-134t98-42q187 0 272 315l70 258q-63 23-127 23" glyph-name="at" horiz-adv-x="1735" unicode="@"/><glyph d="M813 465H317L72 0h-189l799 1462h174L1040 0H870zm-18 156-35 299q-24 179-29 350-37-88-80-175T401 621z" glyph-name="A" horiz-adv-x="1137" unicode="A"/><glyph d="M770 1462q432 0 432-336 0-141-87-238T870 762v-10q115-32 176-110t62-189q0-212-152-332T549 0H86l309 1462zM434 836h248q156 0 249 73t93 199q0 104-66 155t-210 52H537zM287 145h266q181 0 278 80t97 228q0 116-74 177t-215 62H403z" glyph-name="B" horiz-adv-x="1225" unicode="B"/><glyph d="M942 1331q-174 0-311-97T413 950t-81-409q0-187 97-298t269-112q139 0 322 57V39Q934 8 856-6T668-20q-242 0-380 149T150 537q0 261 105 485t284 343 403 118q197 0 348-80l-69-141q-138 69-279 69" glyph-name="C" horiz-adv-x="1198" unicode="C"/><glyph d="M1300 877q0-261-105-461T895 108 438 0H86l309 1462h342q276 0 419-149t144-436M449 147q202 0 355 91t234 259 82 382q0 215-103 325t-302 111H537L287 147z" glyph-name="D" horiz-adv-x="1364" unicode="D"/><glyph d="M821 0H86l309 1462h735l-32-153H532l-98-469h527l-29-152H403L289 152h565z" glyph-name="E" horiz-adv-x="1047" unicode="E"/><glyph d="M258 0H86l309 1462h735l-30-153H532L422 776h528l-32-153H389z" glyph-name="F" horiz-adv-x="967" unicode="F"/><glyph d="M821 766h459L1126 55Q910-20 707-20q-264 0-410 144T150 528q0 269 101 489t282 343 399 123q117 0 219-20t207-64l-66-152q-77 34-165 59t-195 25q-169 0-307-101T409 946t-77-407q0-190 102-299t287-109q154 0 260 39l96 444H788z" glyph-name="G" horiz-adv-x="1386" unicode="G"/><glyph d="M1085 0H918l143 688H401L256 0H86l309 1462h170L434 840h660l133 622h168z" glyph-name="H" horiz-adv-x="1389" unicode="H"/><glyph d="m86 0 311 1462h168L254 0z" glyph-name="I" horiz-adv-x="559" unicode="I"/><glyph d="M-166-385q-105 0-153 25l6 147q69-20 145-20 100 0 165 62T88 12l307 1450h170L256-6q-79-379-422-379" glyph-name="J" horiz-adv-x="547" unicode="J"/><glyph d="M1034 0H848q-72 181-146 359T555 721L381 590 256 0H86l309 1462h170L414 752l700 710h209L684 825z" glyph-name="K" horiz-adv-x="1141" unicode="K"/><glyph d="m86 0 309 1462h170L289 154h565L821 0z" glyph-name="L" horiz-adv-x="971" unicode="L"/><glyph d="M676 0 510 1296h-8q-7-72-28-197t-38-200L246 0H84l309 1462h244L786 258h9l659 1204h266L1417 0h-174q126 590 193 905t94 393h-6L807 0z" glyph-name="M" horiz-adv-x="1714" unicode="M"/><glyph d="M1139 0H958L498 1223h-6q-32-221-74-418L246 0H84l309 1462h180l459-1220h6q30 224 72 405l174 815h164z" glyph-name="N" horiz-adv-x="1438" unicode="N"/><glyph d="M1411 907q0-269-88-481T1071 97 692-20q-256 0-399 149T150 549q0 264 96 482t263 336 378 118q244 0 384-154t140-424m-537 426q-157 0-281-101T401 951t-69-398q0-199 98-310t266-112q152 0 272 97t191 280 70 403q0 199-94 310t-261 112" glyph-name="O" horiz-adv-x="1475" unicode="O"/><glyph d="M1159 1085q0-248-164-379T514 575H379L256 0H86l309 1462h330q214 0 324-94t110-283M410 721h133q216 0 328 91t112 267q0 125-69 180t-214 56H537z" glyph-name="P" horiz-adv-x="1159" unicode="P"/><glyph d="M874 1333q-157 0-281-101T401 951t-69-398q0-199 98-310t266-112q158 0 279 100t187 280 67 400q0 199-94 310t-261 112M725-18l-17-2h-16q-256 0-399 149T150 549q0 264 96 482t263 336 378 118q244 0 384-154t140-424q0-333-139-576T897 10l274-358H952z" glyph-name="Q" horiz-adv-x="1475" unicode="Q"/><glyph d="M385 608 256 0H86l309 1462h320q446 0 446-366 0-348-368-449L1032 0H846L637 608zm147 705Q430 819 416 754h168q193 0 297 85t104 244q0 121-67 175t-220 55z" glyph-name="R" horiz-adv-x="1165" unicode="R"/><glyph d="M913 424q0-211-140-327T377-20Q271-20 191-6T39 43v170q162-84 340-84 162 0 257 75t95 208q0 78-52 137T483 690q-151 85-209 170t-59 201q0 187 132 304t347 118q99 0 184-19t181-65l-66-150q-66 38-148 60t-151 22q-134 0-215-69t-82-189q0-54 17-92t54-73 142-95q147-88 198-138t78-110 27-141" glyph-name="S" horiz-adv-x="1028" unicode="S"/><glyph d="M487 0H315l277 1311H186l33 151h985l-30-151H766z" glyph-name="T" horiz-adv-x="1020" unicode="T"/><glyph d="m1407 1462-205-966q-55-263-197-389T616-20Q386-20 275 84T164 383q0 81 24 201l189 878h170L356 571q-22-106-22-188 0-117 73-184t218-68q172 0 267 87t140 290l205 954z" glyph-name="U" horiz-adv-x="1384" unicode="U"/><glyph d="M479 197q61 144 162 338l479 927h191L530 0H350L188 1462h170l97-930q20-196 20-335z" glyph-name="V" horiz-adv-x="1122" unicode="V"/><glyph d="M1257 0h-170l-49 965q-8 136-8 282h-6q-25-72-61-154T459 0H285l-62 1462h170l31-901 2-88q0-98-10-258h6q89 243 156 383l405 864h178l43-860q9-153 9-304l-1-83h9q75 224 131 354l387 893h182z" glyph-name="W" horiz-adv-x="1745" unicode="W"/><glyph d="M956 0H776L563 641 82 0h-186l596 776-263 686h172l203-563 443 563h186L678 768z" glyph-name="X" horiz-adv-x="1063" unicode="X"/><glyph d="m537 715 489 747h193L592 541 479 0H307l119 549-238 913h170z" glyph-name="Y" horiz-adv-x="1030" unicode="Y"/><glyph d="M885 0H-16l28 137 924 1170H281l32 155h858l-26-139L221 154h697z" glyph-name="Z" horiz-adv-x="1087" unicode="Z"/><glyph d="M371-324H-16l381 1786h387l-31-141H494L176-182h227z" glyph-name="bracketleft" horiz-adv-x="586" unicode="["/><glyph d="M375 1462 592 0H438L221 1462z" glyph-name="backslash" horiz-adv-x="717" unicode="\"/><glyph d="M-119-182h225l320 1503H199l30 141h389L238-324h-388z" glyph-name="bracketright" horiz-adv-x="586" unicode="]"/><glyph d="m53 553 598 920h109l266-920H881l-201 747-467-747z" glyph-name="asciicircum" horiz-adv-x="1059" unicode="^"/><glyph d="M623-324h-811l30 140h811z" glyph-name="underscore" horiz-adv-x="807" unicode="_"/><glyph d="M903 1241H799q-61 61-128 154t-96 153v21h181q43-136 147-303z" glyph-name="grave" horiz-adv-x="1135" unicode="`"/><glyph d="M639 1116q92 0 164-49t112-143h11l67 172h127L887 0H754l26 209h-8Q593-20 395-20q-139 0-218 99T98 350q0 208 71 386t196 279 274 101M449 119q97 0 193 92t156 241 60 298q0 103-56 164t-147 61q-104 0-193-86T321 656t-51-310q0-114 47-170t132-57" glyph-name="a" horiz-adv-x="1157" unicode="a"/><glyph d="M545-20q-97 0-170 51T264 170h-10L184 0H59l330 1556h168q-51-242-78-370t-76-301h9q93 118 183 173t187 56q141 0 220-99t79-272q0-209-68-386T822 80 545-20m186 995q-96 0-195-95T378 641t-59-295q0-110 55-168t161-59q99 0 184 81t138 230 52 318q0 227-178 227" glyph-name="b" horiz-adv-x="1182" unicode="b"/><glyph d="M506-20Q312-20 205 87T98 389q0 200 74 369t204 263 294 95q137 0 268-51l-47-141q-120 51-219 51-112 0-204-76T323 686t-53-297q0-128 66-199t184-71q72 0 136 20t126 47V43Q658-20 506-20" glyph-name="c" horiz-adv-x="922" unicode="c"/><glyph d="M639 1114q194 0 281-190h10q17 155 45 274l78 358h166L889 0H750l22 209h-8Q663 84 575 32T393-20q-139 0-217 98T98 350q0 214 72 392t194 275 275 97M449 119q94 0 194 93t158 239 59 297q0 111-54 169t-157 58q-101 0-187-82T323 661t-53-315q0-227 179-227" glyph-name="d" horiz-adv-x="1182" unicode="d"/><glyph d="M492-20Q308-20 203 89T98 391q0 188 74 360t198 269 271 96q153 0 230-66t77-186q0-180-166-282T307 479h-33l-4-80q0-131 61-204t191-74q63 0 129 18t166 66V59Q723 15 651-2T492-20m139 993q-103 0-193-94T299 618h12q228 0 349 59t122 173q0 53-36 88t-115 35" glyph-name="e" horiz-adv-x="1010" unicode="e"/><glyph d="M-104-492q-69 0-125 21v141q64-22 112-22 76 0 117 62t66 177L293 969H100l13 67 206 66 23 100q46 200 127 282t242 83q40 0 98-11t90-26l-43-129q-76 29-137 29-87 0-133-48t-76-178l-25-108h238l-25-127H461L229-129q-39-189-120-276t-213-87" glyph-name="f" horiz-adv-x="641" unicode="f"/><glyph d="m1100 1096-25-107-211-24q41-62 41-158 0-191-116-304T477 389q-55 0-84 8-139-53-139-131 0-41 33-54t96-22l117-14q181-22 262-88t82-194q0-184-146-285T287-492q-194 0-304 73t-110 208q0 105 72 182t233 131q-78 41-78 121 0 69 51 118t142 93q-63 32-103 94t-40 146q0 194 119 318t306 124q78 0 154-20zM35-195q0-77 65-122t193-45q182 0 284 63t103 180q0 62-54 98T442 29L283 45Q163 20 99-43T35-195m278 875q0-85 45-129t125-45q79 0 138 42t90 115 32 160q0 82-44 125t-126 43q-78 0-136-40t-91-113-33-158" glyph-name="g" horiz-adv-x="1026" unicode="g"/><glyph d="m729 0 148 692q18 94 18 135 0 148-147 148-89 0-173-59T426 745t-98-272L227 0H59l330 1556h168q-18-82-34-159t-34-156-38-167-48-189h11q94 123 185 176t192 53q131 0 202-72t72-204q0-62-23-166-39-193-145-672z" glyph-name="h" horiz-adv-x="1182" unicode="h"/><glyph d="M227 0H59l234 1096h168zm113 1376q0 56 32 91t83 36q88 0 88-90 0-55-33-93t-78-38q-40 0-66 24t-26 70" glyph-name="i" horiz-adv-x="520" unicode="i"/><glyph d="M-135-492q-69 0-123 21v141q61-22 119-22 125 0 168 205l264 1243h166L193-162Q157-333 79-412t-214-80m475 1868q0 56 32 91t83 36q86 0 86-90 0-55-33-93t-78-38q-38 0-64 24t-26 70" glyph-name="j" horiz-adv-x="520" unicode="j"/><glyph d="m330 559 526 537h201L588 629 883 0H696L461 524 309 401 227 0H57l330 1556h170L428 954q-57-266-102-395z" glyph-name="k" horiz-adv-x="999" unicode="k"/><glyph d="M225 0H57l332 1556h168z" glyph-name="l" horiz-adv-x="520" unicode="l"/><glyph d="m696 0 148 692q18 94 18 135 0 70-31 109t-106 39q-84 0-163-60T422 744t-94-269L227 0H59l234 1096h139l-22-203h10q87 119 173 171t179 52q113 0 174-65t72-181h8q86 125 183 185t196 61q127 0 196-68t70-198q0-68-22-178L1505 0h-170l148 692q20 104 20 146 0 62-34 99t-109 38q-81 0-160-58t-138-164-91-253L864 0z" glyph-name="m" horiz-adv-x="1786" unicode="m"/><glyph d="m729 0 148 692q20 104 20 144 0 63-35 101t-114 38q-89 0-173-60T426 744t-98-269L227 0H59l234 1096h139l-22-203h10q96 122 185 172t186 51q127 0 200-69t74-195q0-79-23-180L899 0z" glyph-name="n" horiz-adv-x="1182" unicode="n"/><glyph d="M643 1110q190 0 300-112t110-310q0-188-72-355T786 75 508-16Q316-16 207 97T98 406q0 190 73 357t197 257 275 90m236-399q0 115-62 186t-170 72q-109 0-195-74T318 690t-48-293q0-131 63-202t183-72q104 0 187 73t129 207 47 308" glyph-name="o" horiz-adv-x="1149" unicode="o"/><glyph d="M545-20q-97 0-170 50T262 170h-10l-4-38q-3-25-10-70T123-492H-43l336 1588h139l-26-209h8q179 227 372 227 137 0 216-97t79-274q0-212-69-389T821 79 545-20m186 995q-96 0-195-95T378 641t-59-295q0-110 55-168t161-59q99 0 184 81t138 230 52 318q0 227-178 227" glyph-name="p" horiz-adv-x="1182" unicode="p"/><glyph d="M641 1116q94 0 165-50t109-142h13l67 172h125L784-492H618L719-12q9 45 57 221h-8Q673 88 583 34T397-20q-140 0-219 97T98 350q0 212 72 392t196 277 275 97M449 119q92 0 190 92t158 237 61 300q0 105-54 166t-153 61q-101 0-189-84T322 658t-52-312q0-227 179-227" glyph-name="q" horiz-adv-x="1182" unicode="q"/><glyph d="M752 1116q69 0 120-14l-36-150q-53 13-105 13-91 0-170-60T422 739t-88-237L227 0H59l234 1096h139l-22-203h10q72 95 119 136t98 64 115 23" glyph-name="r" horiz-adv-x="811" unicode="r"/><glyph d="M735 311q0-156-110-243T313-20Q144-20 8 49v158q70-42 151-65t150-23q126 0 190 50t64 128q0 57-35 96T377 500q-130 73-184 143t-54 166q0 138 101 222t266 85q171 0 330-74l-54-137-56 25q-101 43-220 43-93 0-146-43t-53-113q0-56 35-96t147-103q107-60 153-103t70-92 23-112" glyph-name="s" horiz-adv-x="877" unicode="s"/><glyph d="M395 117q55 0 144 26V14q-34-14-84-24t-80-10q-125 0-191 59t-67 178q0 66 18 150l127 602H90l14 73 185 78 125 228h98l-55-252h274l-26-127H432L303 365q-18-87-18-132 0-56 29-86t81-30" glyph-name="t" horiz-adv-x="664" unicode="t"/><glyph d="M451 1096 301 401q-18-89-18-139 0-143 147-143 88 0 173 60t150 172 99 270l100 475h166L887 0H748l22 203h-12Q660 78 571 29T387-20q-128 0-201 69t-73 199q0 62 22 172l146 676z" glyph-name="u" horiz-adv-x="1182" unicode="u"/><glyph d="M223 0 98 1096h168l64-613q24-258 24-362h6q127 275 179 371l325 604h178L451 0z" glyph-name="v" horiz-adv-x="946" unicode="v"/><glyph d="m831 0-32 602q-4 94-4 172v156h-9l-50-118-83-189L362 0H160l-43 1096h164l18-594v-88q0-147-8-269h6q47 124 137 322l295 629h182l37-594q6-168 6-262v-53l-2-42h6q28 86 83 218t323 733h178L1036 0z" glyph-name="w" horiz-adv-x="1468" unicode="w"/><glyph d="M467 434 121 0H-74l475 565-239 531h170l174-412 330 412h194L575 557 827 0H659z" glyph-name="x" horiz-adv-x="979" unicode="x"/><glyph d="M98 1096h168l74-545q10-69 19-203t10-217h6q35 87 87 200t77 156l325 609h178L346-186q-93-172-184-239t-219-67q-72 0-140 21v135q63-18 131-18 82 0 140 50t114 150l76 136z" glyph-name="y" horiz-adv-x="946" unicode="y"/><glyph d="M690 0H-29l23 117 694 854H209l27 125h657l-29-140-680-831h531z" glyph-name="z" horiz-adv-x="909" unicode="z"/><glyph d="M442-324q-141 0-216 52t-76 172q0 52 20 141 33 146 51 227t15 103q0 143-209 143l32 143q118 0 189 43t94 148l68 326q34 160 117 224t255 64h33l-31-141q-105 0-151-36t-66-124l-71-321q-28-123-91-184t-167-78v-5q151-41 151-213 0-59-18-131L324 18q-15-58-15-98 0-53 36-77t120-25v-142z" glyph-name="braceleft" horiz-adv-x="715" unicode="{"/><glyph d="M541 1556h139V-496H541z" glyph-name="bar" horiz-adv-x="1128" unicode="|"/><glyph d="M285 1462q144 0 220-52t77-171q0-48-21-141l-49-219q-16-68-16-111 0-143 209-143l-33-144q-119 0-190-43t-93-147L322-35q-36-164-119-226t-264-63h-13v142q115 0 167 36t71 123l72 322q25 117 88 179t170 81v6q-150 42-150 211 0 59 18 131l50 213q14 65 14 99 0 53-40 77t-140 25l28 141z" glyph-name="braceright" horiz-adv-x="715" unicode="}"/><glyph d="M348 713q-54 0-118-34t-115-87v151q98 109 243 109 69 0 127-14t144-52q64-27 112-41t99-14q55 0 119 33t116 88V702Q975 592 831 592q-72 0-135 16t-135 49q-75 32-120 44t-93 12" glyph-name="asciitilde" horiz-adv-x="1128" unicode="~"/><glyph glyph-name="nbspace" horiz-adv-x="532"/><glyph d="M260 684h109L193-373H-14zm-10 266q0 76 40 122t111 46q44 0 70-26t27-80q0-71-40-117t-106-47q-48 0-75 25t-27 77" glyph-name="exclamdown" horiz-adv-x="530" unicode="¡"/><glyph d="M582-20H457l43 215q-132 34-203 137t-72 258q0 185 63 344t179 258 260 121l35 170h123l-37-168q119-9 217-49l-47-142q-109 52-219 52-112 0-204-76T450 887t-53-297q0-125 66-198t184-73q72 0 136 20t126 48V244q-123-62-286-66z" glyph-name="cent" horiz-adv-x="1128" unicode="¢"/><glyph d="M842 1481q184 0 336-86l-66-133q-146 79-278 79-213 0-263-237l-69-326h370l-26-127H475l-47-219q-22-98-66-166T238 154h725L930 0H-23L4 141q205 46 258 289l47 221H109l26 127h201l76 350q75 353 430 353" glyph-name="sterling" horiz-adv-x="1128" unicode="£"/><glyph d="M229 723q0 117 68 215l-129 129 92 92 127-129q103 70 217 70t215-70l129 129 92-90-129-129q70-104 70-217 0-119-70-217l127-127-90-90-129 127q-98-68-215-68-119 0-217 70L260 291l-90 90 127 127q-68 96-68 215m129 0q0-103 71-174t175-72q104 0 177 71t73 175-73 177-177 73q-102 0-174-72t-72-178" glyph-name="currency" horiz-adv-x="1128" unicode="¤"/><glyph d="m582 715 491 747h187L727 692h231l-28-133H633l-33-160h297l-29-133H573L516 0H362l56 266H127l29 133h290l33 160H188l29 133h225l-202 770h163z" glyph-name="yen" horiz-adv-x="1128" unicode="¥"/><glyph d="M541 1556h139V780H541zm0-1275h139v-777H541z" glyph-name="brokenbar" horiz-adv-x="1128" unicode="¦"/><glyph d="M174 770q0 201 238 307-119 70-119 203 0 127 103 206t280 79q189 0 321-68l-53-123q-148 60-266 60-102 0-162-40t-61-110q0-49 38-83t162-91q100-44 149-83t75-90 26-114q0-97-61-180T672 504q114-71 114-189 0-152-114-237T354-8Q178-8 59 53v148q56-34 136-56t157-22q133 0 204 44t71 130q0 48-50 89t-153 87q-138 61-194 130t-56 167m340 240q-82-26-135-87t-53-132q0-70 50-117t199-111q80 44 127 107t48 131q0 60-49 105t-187 104" glyph-name="section" horiz-adv-x="995" unicode="§"/><glyph d="M457 1378q0 46 28 79t74 34q78 0 78-80 0-49-29-83t-69-34q-35 0-58 22t-24 62m364 0q0 46 28 79t75 34q77 0 77-80 0-49-29-83t-69-34q-35 0-58 22t-24 62" glyph-name="dieresis" horiz-adv-x="1135" unicode="¨"/><glyph d="M928 1059q-125 0-191-87t-67-241q0-169 65-249t193-81q82 0 211 43V322q-66-28-113-38t-104-10q-192 0-297 119T520 733q0 208 110 330t300 123q130 0 248-60l-60-120q-106 53-190 53M139 731q0 200 100 375t275 276 377 101q197 0 370-97t277-272 104-383q0-204-100-376T1269 81 891-20Q684-20 509 83T237 360t-98 371m105 0q0-173 87-323t237-237 323-87q174 0 323 87t236 235 88 325q0 174-87 323t-235 236-325 88q-174 0-323-87t-236-235-88-325" glyph-name="copyright" horiz-adv-x="1704" unicode="©"/><glyph d="M498 1479q114 0 153-103h6l37 90h86L641 801h-92l14 117h-4q-40-56-90-93t-123-37q-77 0-126 60t-50 166q0 127 41 234t117 169 170 62M381 891q61 0 112 49t86 137 35 168q0 62-28 96t-86 35q-92 0-154-103t-63-243q0-139 98-139" glyph-name="ordfeminine" horiz-adv-x="686" unicode="ª"/><glyph d="m88 584 391 374 78-81-297-328 172-387-113-49L88 555zm395-43 367 405 86-69-283-365 158-350-113-49-215 397z" glyph-name="guillemotleft" horiz-adv-x="958" unicode="«"/><glyph d="M1047 793V264H907v387H127v142z" glyph-name="logicalnot" horiz-adv-x="1128" unicode="¬"/><glyph d="m55 469 35 158h479l-34-158z" glyph-name="uni00AD" horiz-adv-x="639" unicode="­"/><glyph d="M139 731q0 200 100 375t275 276 377 101q197 0 370-97t277-272 104-383q0-204-100-376T1269 81 891-20Q684-20 509 83T237 360t-98 371m105 0q0-173 87-323t237-237 323-87q174 0 323 87t236 235 88 325q0 174-87 323t-235 236-325 88q-174 0-323-87t-236-235-88-325m950 184q0-78-47-141t-133-98l227-385h-149L885 643H772V291H645v880h229q163 0 241-63t79-193M772 762h92q195 0 195 149 0 76-47 107t-150 31h-90z" glyph-name="registered" horiz-adv-x="1704" unicode="®"/><glyph d="M1012 1556H227l33 132h787z" glyph-name="overscore" horiz-adv-x="782" unicode="¯"/><glyph d="M215 1171q0 128 90 220t221 92q83 0 155-41t115-114 42-157q0-128-90-218t-222-91q-131 0-221 90t-90 219m113 0q0-80 58-138t140-58q83 0 140 58t57 138q0 82-57 140t-140 59q-80 0-139-58t-59-141" glyph-name="degree" horiz-adv-x="877" unicode="°"/><glyph d="M516 643H127v141h389v392h141V784h390V643H657V256H516zM127 0v141h920V0z" glyph-name="plusminus" horiz-adv-x="1128" unicode="±"/><glyph d="M657 586H96l23 106 264 228q115 100 158 149t64 93 20 91q0 53-31 85t-90 32q-90 0-195-80l-59 90q125 101 274 101 109 0 171-56t63-151q0-99-52-179T508 889L287 702h395z" glyph-name="twosuperior" horiz-adv-x="717" unicode="²"/><glyph d="M549 1036q69-17 108-68t39-120q0-132-91-205t-253-74q-125 0-233 56v127q125-72 239-72 205 0 205 170 0 137-178 137h-90l22 107h95q97 0 155 41t58 112q0 60-34 90t-94 31q-102 0-196-68l-55 93q109 88 268 88 114 0 178-56t64-151q0-180-207-234z" glyph-name="threesuperior" horiz-adv-x="717" unicode="³"/><glyph d="M532 1268q56 60 125 151t107 150h190v-21q-38-49-140-151t-177-156H532z" glyph-name="acute" horiz-adv-x="1135" unicode="´"/><glyph d="M295 266q0-147 147-147 89 0 172 59t148 171 100 269l105 478h163L897 0H758l24 205h-12Q677 84 587 32T399-20q-112 0-163 96h-9Q216-2 205-72t-84-420H-43l336 1588h168L313 401q-18-92-18-135" glyph-name="mu" horiz-adv-x="1194" unicode="µ"/><glyph d="M1206-260h-114v1661H879V-260H764v819q-62-18-146-18-216 0-317 125t-102 376q0 260 109 387t341 127h557z" glyph-name="paragraph" horiz-adv-x="1341" unicode="¶"/><glyph d="M170 690q0 77 40 122t112 46q43 0 69-26t27-79q0-71-40-118t-108-48q-46 0-73 26t-27 77" glyph-name="middot" horiz-adv-x="518" unicode="·"/><glyph d="M211-276q0-98-81-157t-214-59q-41 0-86 9v100q38-6 68-6 174 0 174 110 0 46-39 67t-99 30L35 0h106L80-121q131-38 131-155" glyph-name="cedilla" horiz-adv-x="420" unicode="¸"/><glyph d="M537 1462h118L469 586H334l112 526q25 103 58 225-25-25-50-46t-145-101l-51 90z" glyph-name="onesuperior" horiz-adv-x="717" unicode="¹"/><glyph d="M745 1219q0-191-88-311T416 788q-113 0-180 71t-68 196q0 117 42 215t117 154 175 55q117 0 180-67t63-193m-245 157q-102 0-160-87t-59-230q0-85 38-127t107-43q94 0 152 88t59 233q0 166-137 166" glyph-name="ordmasculine" horiz-adv-x="688" unicode="º"/><glyph d="M872 485 479 115l-78 82 297 323-172 391 113 50 233-447zm-395 43L109 127l-86 70 282 360-158 354 113 50 217-402z" glyph-name="guillemotright" horiz-adv-x="958" unicode="»"/><glyph d="M1362 1462 276 0H123l1085 1462zm-623 0h118L671 586H536l112 526q25 103 58 225-25-25-50-46t-145-101l-51 90zm588-1259h-129L1155 1h-127l43 202H706l23 101 481 579h133l-121-563h127zm-232 117q69 322 90 395-20-36-110-149L870 320z" glyph-name="onequarter" horiz-adv-x="1518" unicode="¼"/><glyph d="M683 1462h118L615 586H480l112 526q25 103 58 225-25-25-50-46t-145-101l-51 90zm622 0L219 0H66l1085 1462zM1343 1H782l23 106 264 228q115 100 158 149t64 93 20 91q0 53-31 85t-90 32q-90 0-195-80l-59 90q125 101 274 101 109 0 171-56t63-151q0-99-52-179t-198-206L973 117h395z" glyph-name="onehalf" horiz-adv-x="1518" unicode="½"/><glyph d="M773 1036q69-17 108-68t39-120q0-132-91-205t-253-74q-125 0-233 56v127q125-72 239-72 205 0 205 170 0 137-178 137h-90l22 107h95q97 0 155 41t58 112q0 60-34 90t-94 31q-102 0-196-68l-55 93q109 88 268 88 114 0 178-56t64-151q0-180-207-234zm739 426L426 0H273l1085 1462zm-35-1259h-129L1305 1h-127l43 202H856l23 101 481 579h133l-121-563h127zm-232 117q69 322 90 395-20-36-110-149l-205-246z" glyph-name="threequarters" horiz-adv-x="1565" unicode="¾"/><glyph d="M657 680q-22-130-72-212T420 293l-95-75Q166 91 166-57q0-93 51-144t148-51q80 0 154 25t140 57l62-129q-90-48-189-74t-186-26q-168 0-259 83T-4-78q0 124 66 228t225 223q132 98 172 152t63 155zm103 330q0-77-40-122t-112-46q-43 0-69 26t-27 78q0 71 40 118t107 48q47 0 74-25t27-77" glyph-name="questiondown" horiz-adv-x="874" unicode="¿"/><glyph d="M813 465H317L72 0h-189l799 1462h174L1040 0H870zm-18 156-35 299q-24 179-29 350-37-88-80-175T401 621zm68 958H759q-61 61-128 154t-96 153v21h181q43-136 147-303z" glyph-name="Agrave" horiz-adv-x="1137" unicode="À"/><glyph d="M813 465H317L72 0h-189l799 1462h174L1040 0H870zm-18 156-35 299q-24 179-29 350-37-88-80-175T401 621zm-116 985q56 60 125 151t107 150h190v-21q-38-49-140-151t-177-156H679z" glyph-name="Aacute" horiz-adv-x="1137" unicode="Á"/><glyph d="M813 465H317L72 0h-189l799 1462h174L1040 0H870zm-18 156-35 299q-24 179-29 350-37-88-80-175T401 621zm285 958H977q-57 48-161 189-134-119-242-189H465v27q145 133 204 197t83 104h158q37-99 128-235l42-66z" glyph-name="Acircumflex" horiz-adv-x="1137" unicode="Â"/><glyph d="M813 465H317L72 0h-189l799 1462h174L1040 0H870zm-18 156-35 299q-24 179-29 350-37-88-80-175T401 621zm139 960q-40 0-77 17t-73 39-69 39-66 18q-44 0-69-28t-48-87H432q58 258 231 258 44 0 83-18t75-39 67-40 58-18q44 0 69 27t52 90h100q-66-258-233-258" glyph-name="Atilde" horiz-adv-x="1137" unicode="Ã"/><glyph d="M813 465H317L72 0h-189l799 1462h174L1040 0H870zm-18 156-35 299q-24 179-29 350-37-88-80-175T401 621zM523 1716q0 46 28 79t74 34q78 0 78-80 0-49-29-83t-69-34q-35 0-58 22t-24 62m364 0q0 46 28 79t75 34q77 0 77-80 0-49-29-83t-69-34q-35 0-58 22t-24 62" glyph-name="Adieresis" horiz-adv-x="1137" unicode="Ä"/><glyph d="M813 465H317L72 0h-189l799 1462h174L1040 0H870zm-18 156-35 299q-24 179-29 350-37-88-80-175T401 621zm196 964q0-99-60-157t-159-58q-101 0-160 57t-59 156q0 94 62 152t157 59q101 0 160-57t59-152m-104-2q0 53-32 84t-83 31q-49 0-82-31t-33-84q0-54 29-84t86-31q51 0 83 30t32 85" glyph-name="Aring" horiz-adv-x="1137" unicode="Å"/><glyph d="M1448 0H711l98 465H371L78 0h-197l938 1462h938l-33-153h-565l-100-469h528l-28-150h-529L915 152h566zM840 621l147 688h-84L469 621z" glyph-name="AE" horiz-adv-x="1673" unicode="Æ"/><glyph d="M942 1331q-174 0-311-97T413 950t-81-409q0-187 97-298t269-112q139 0 322 57V39Q934 8 856-6T668-20q-242 0-380 149T150 537q0 261 105 485t284 343 403 118q197 0 348-80l-69-141q-138 69-279 69M758-276q0-98-81-157t-214-59q-41 0-86 9v100q38-6 68-6 174 0 174 110 0 46-39 67t-99 30L582 0h106l-61-121q131-38 131-155" glyph-name="Ccedilla" horiz-adv-x="1198" unicode="Ç"/><glyph d="M821 0H86l309 1462h735l-32-153H532l-98-469h527l-29-152H403L289 152h565zm77 1579H794q-61 61-128 154t-96 153v21h181q43-136 147-303z" glyph-name="Egrave" horiz-adv-x="1047" unicode="È"/><glyph d="M821 0H86l309 1462h735l-32-153H532l-98-469h527l-29-152H403L289 152h565zM657 1606q56 60 125 151t107 150h190v-21q-38-49-140-151t-177-156H657z" glyph-name="Eacute" horiz-adv-x="1047" unicode="É"/><glyph d="M821 0H86l309 1462h735l-32-153H532l-98-469h527l-29-152H403L289 152h565zm263 1579H981q-57 48-161 189-134-119-242-189H469v27q145 133 204 197t83 104h158q37-99 128-235l42-66z" glyph-name="Ecircumflex" horiz-adv-x="1047" unicode="Ê"/><glyph d="M821 0H86l309 1462h735l-32-153H532l-98-469h527l-29-152H403L289 152h565zM523 1716q0 46 28 79t74 34q78 0 78-80 0-49-29-83t-69-34q-35 0-58 22t-24 62m364 0q0 46 28 79t75 34q77 0 77-80 0-49-29-83t-69-34q-35 0-58 22t-24 62" glyph-name="Edieresis" horiz-adv-x="1047" unicode="Ë"/><glyph d="m86 0 311 1462h168L254 0zm507 1579H489q-61 61-128 154t-96 153v21h181q43-136 147-303z" glyph-name="Igrave" horiz-adv-x="559" unicode="Ì"/><glyph d="m86 0 311 1462h168L254 0zm326 1606q56 60 125 151t107 150h190v-21q-38-49-140-151t-177-156H412z" glyph-name="Iacute" horiz-adv-x="559" unicode="Í"/><glyph d="m86 0 311 1462h168L254 0zm722 1579H705q-57 48-161 189-134-119-242-189H193v27q145 133 204 197t83 104h158q37-99 128-235l42-66z" glyph-name="Icircumflex" horiz-adv-x="559" unicode="Î"/><glyph d="m86 0 311 1462h168L254 0zm179 1716q0 46 28 79t74 34q78 0 78-80 0-49-29-83t-69-34q-35 0-58 22t-24 62m364 0q0 46 28 79t75 34q77 0 77-80 0-49-29-83t-69-34q-35 0-58 22t-24 62" glyph-name="Idieresis" horiz-adv-x="559" unicode="Ï"/><glyph d="M1300 877q0-261-105-461T895 108 438 0H86l135 649H72l32 150h150l141 663h342q276 0 419-149t144-436M449 147q202 0 355 91t234 259 82 382q0 215-103 325t-302 111H537L426 799h330l-33-150H393L287 147z" glyph-name="Eth" horiz-adv-x="1364" unicode="Ð"/><glyph d="M1139 0H958L498 1223h-6q-32-221-74-418L246 0H84l309 1462h180l459-1220h6q30 224 72 405l174 815h164zm-37 1581q-40 0-77 17t-73 39-69 39-66 18q-44 0-69-28t-48-87H600q58 258 231 258 44 0 83-18t75-39 67-40 58-18q44 0 69 27t52 90h100q-66-258-233-258" glyph-name="Ntilde" horiz-adv-x="1438" unicode="Ñ"/><glyph d="M1411 907q0-269-88-481T1071 97 692-20q-256 0-399 149T150 549q0 264 96 482t263 336 378 118q244 0 384-154t140-424m-537 426q-157 0-281-101T401 951t-69-398q0-199 98-310t266-112q152 0 272 97t191 280 70 403q0 199-94 310t-261 112m133 246H903q-61 61-128 154t-96 153v21h181q43-136 147-303z" glyph-name="Ograve" horiz-adv-x="1475" unicode="Ò"/><glyph d="M1411 907q0-269-88-481T1071 97 692-20q-256 0-399 149T150 549q0 264 96 482t263 336 378 118q244 0 384-154t140-424m-537 426q-157 0-281-101T401 951t-69-398q0-199 98-310t266-112q152 0 272 97t191 280 70 403q0 199-94 310t-261 112m-53 273q56 60 125 151t107 150h190v-21q-38-49-140-151t-177-156H821z" glyph-name="Oacute" horiz-adv-x="1475" unicode="Ó"/><glyph d="M1411 907q0-269-88-481T1071 97 692-20q-256 0-399 149T150 549q0 264 96 482t263 336 378 118q244 0 384-154t140-424m-537 426q-157 0-281-101T401 951t-69-398q0-199 98-310t266-112q152 0 272 97t191 280 70 403q0 199-94 310t-261 112m353 246h-103q-57 48-161 189-134-119-242-189H612v27q145 133 204 197t83 104h158q37-99 128-235l42-66z" glyph-name="Ocircumflex" horiz-adv-x="1475" unicode="Ô"/><glyph d="M1411 907q0-269-88-481T1071 97 692-20q-256 0-399 149T150 549q0 264 96 482t263 336 378 118q244 0 384-154t140-424m-537 426q-157 0-281-101T401 951t-69-398q0-199 98-310t266-112q152 0 272 97t191 280 70 403q0 199-94 310t-261 112m193 248q-40 0-77 17t-73 39-69 39-66 18q-44 0-69-28t-48-87H565q58 258 231 258 44 0 83-18t75-39 67-40 58-18q44 0 69 27t52 90h100q-66-258-233-258" glyph-name="Otilde" horiz-adv-x="1475" unicode="Õ"/><glyph d="M1411 907q0-269-88-481T1071 97 692-20q-256 0-399 149T150 549q0 264 96 482t263 336 378 118q244 0 384-154t140-424m-537 426q-157 0-281-101T401 951t-69-398q0-199 98-310t266-112q152 0 272 97t191 280 70 403q0 199-94 310t-261 112m-210 383q0 46 28 79t74 34q78 0 78-80 0-49-29-83t-69-34q-35 0-58 22t-24 62m364 0q0 46 28 79t75 34q77 0 77-80 0-49-29-83t-69-34q-35 0-58 22t-24 62" glyph-name="Odieresis" horiz-adv-x="1475" unicode="Ö"/><glyph d="m487 723-319 321 98 99 320-320 323 320 99-96-324-324 322-322-97-96-323 320-320-318-96 96z" glyph-name="multiply" horiz-adv-x="1128" unicode="×"/><glyph d="M1411 907q0-269-88-481T1071 97 692-20q-200 0-332 96L231-84 119 8l137 170Q150 314 150 549q0 264 96 482t263 336 378 118q99 0 178-27t152-84l131 166 114-92-149-184q48-62 73-156t25-201m-537 426q-157 0-281-101T401 951t-69-398q0-135 41-227l737 919q-90 88-236 88m355-422q0 118-33 205L463 205q91-74 233-74 152 0 272 97t191 280 70 403" glyph-name="Oslash" horiz-adv-x="1475" unicode="Ø"/><glyph d="m1407 1462-205-966q-55-263-197-389T616-20Q386-20 275 84T164 383q0 81 24 201l189 878h170L356 571q-22-106-22-188 0-117 73-184t218-68q172 0 267 87t140 290l205 954zm-416 117H887q-61 61-128 154t-96 153v21h181q43-136 147-303z" glyph-name="Ugrave" horiz-adv-x="1384" unicode="Ù"/><glyph d="m1407 1462-205-966q-55-263-197-389T616-20Q386-20 275 84T164 383q0 81 24 201l189 878h170L356 571q-22-106-22-188 0-117 73-184t218-68q172 0 267 87t140 290l205 954zm-584 144q56 60 125 151t107 150h190v-21q-38-49-140-151t-177-156H823z" glyph-name="Uacute" horiz-adv-x="1384" unicode="Ú"/><glyph d="m1407 1462-205-966q-55-263-197-389T616-20Q386-20 275 84T164 383q0 81 24 201l189 878h170L356 571q-22-106-22-188 0-117 73-184t218-68q172 0 267 87t140 290l205 954zm-190 117h-103q-57 48-161 189-134-119-242-189H602v27q145 133 204 197t83 104h158q37-99 128-235l42-66z" glyph-name="Ucircumflex" horiz-adv-x="1384" unicode="Û"/><glyph d="m1407 1462-205-966q-55-263-197-389T616-20Q386-20 275 84T164 383q0 81 24 201l189 878h170L356 571q-22-106-22-188 0-117 73-184t218-68q172 0 267 87t140 290l205 954zm-764 254q0 46 28 79t74 34q78 0 78-80 0-49-29-83t-69-34q-35 0-58 22t-24 62m364 0q0 46 28 79t75 34q77 0 77-80 0-49-29-83t-69-34q-35 0-58 22t-24 62" glyph-name="Udieresis" horiz-adv-x="1384" unicode="Ü"/><glyph d="m537 715 489 747h193L592 541 479 0H307l119 549-238 913h170zm79 891q56 60 125 151t107 150h190v-21q-38-49-140-151t-177-156H616z" glyph-name="Yacute" horiz-adv-x="1030" unicode="Ý"/><glyph d="M1106 829q0-248-164-379T459 319H326L256 0H86l309 1462h170l-53-256h160q213 0 323-95t111-282M354 465h135q215 0 328 91t113 267q0 126-70 181t-215 55H479z" glyph-name="Thorn" horiz-adv-x="1159" unicode="Þ"/><glyph d="M-133-492q-69 0-123 21v143q61-22 111-22 65 0 107 47t65 158l280 1314q43 200 156 299t307 99q162 0 252-71t90-196q0-57-21-106t-61-95-179-151q-110-83-110-151 0-56 95-122 47-34 101-87t79-110 26-124q0-175-108-274T641-20q-175 0-268 71v160q51-41 118-66t130-26q113 0 181 58t68 159q0 40-10 71t-34 59-89 83q-88 69-122 124t-35 115q0 53 18 96t50 78 124 105q80 56 111 87t48 65 17 71q0 64-52 100t-142 37q-119 0-186-62t-95-191L199-129Q159-318 78-405t-211-87" glyph-name="germandbls" horiz-adv-x="1182" unicode="ß"/><glyph d="M639 1116q92 0 164-49t112-143h11l67 172h127L887 0H754l26 209h-8Q593-20 395-20q-139 0-218 99T98 350q0 208 71 386t196 279 274 101M449 119q97 0 193 92t156 241 60 298q0 103-56 164t-147 61q-104 0-193-86T321 656t-51-310q0-114 47-170t132-57m631 1122H976q-61 61-128 154t-96 153v21h181q43-136 147-303z" glyph-name="agrave" horiz-adv-x="1157" unicode="à"/><glyph d="M639 1116q92 0 164-49t112-143h11l67 172h127L887 0H754l26 209h-8Q593-20 395-20q-139 0-218 99T98 350q0 208 71 386t196 279 274 101M449 119q97 0 193 92t156 241 60 298q0 103-56 164t-147 61q-104 0-193-86T321 656t-51-310q0-114 47-170t132-57m151 1149q56 60 125 151t107 150h190v-21q-38-49-140-151t-177-156H600z" glyph-name="aacute" horiz-adv-x="1157" unicode="á"/><glyph d="M639 1116q92 0 164-49t112-143h11l67 172h127L887 0H754l26 209h-8Q593-20 395-20q-139 0-218 99T98 350q0 208 71 386t196 279 274 101M449 119q97 0 193 92t156 241 60 298q0 103-56 164t-147 61q-104 0-193-86T321 656t-51-310q0-114 47-170t132-57m812 1122h-103q-57 48-161 189-134-119-242-189H646v27q145 133 204 197t83 104h158q37-99 128-235l42-66z" glyph-name="acircumflex" horiz-adv-x="1157" unicode="â"/><glyph d="M639 1116q92 0 164-49t112-143h11l67 172h127L887 0H754l26 209h-8Q593-20 395-20q-139 0-218 99T98 350q0 208 71 386t196 279 274 101M449 119q97 0 193 92t156 241 60 298q0 103-56 164t-147 61q-104 0-193-86T321 656t-51-310q0-114 47-170t132-57m407 1124q-40 0-77 17t-73 39-69 39-66 18q-44 0-69-28t-48-87H354q58 258 231 258 44 0 83-18t75-39 67-40 58-18q44 0 69 27t52 90h100q-66-258-233-258" glyph-name="atilde" horiz-adv-x="1157" unicode="ã"/><glyph d="M639 1116q92 0 164-49t112-143h11l67 172h127L887 0H754l26 209h-8Q593-20 395-20q-139 0-218 99T98 350q0 208 71 386t196 279 274 101M449 119q97 0 193 92t156 241 60 298q0 103-56 164t-147 61q-104 0-193-86T321 656t-51-310q0-114 47-170t132-57m261 1259q0 46 28 79t74 34q78 0 78-80 0-49-29-83t-69-34q-35 0-58 22t-24 62m364 0q0 46 28 79t75 34q77 0 77-80 0-49-29-83t-69-34q-35 0-58 22t-24 62" glyph-name="adieresis" horiz-adv-x="1157" unicode="ä"/><glyph d="M639 1116q92 0 164-49t112-143h11l67 172h127L887 0H754l26 209h-8Q593-20 395-20q-139 0-218 99T98 350q0 208 71 386t196 279 274 101M449 119q97 0 193 92t156 241 60 298q0 103-56 164t-147 61q-104 0-193-86T321 656t-51-310q0-114 47-170t132-57m758 1337q0-99-60-157t-159-58q-101 0-160 57t-59 156q0 94 62 152t157 59q101 0 160-57t59-152m-104-2q0 53-32 84t-83 31q-49 0-82-31t-33-84q0-54 29-84t86-31q51 0 83 30t32 85" glyph-name="aring" horiz-adv-x="1157" unicode="å"/><glyph d="M1165-20q-108 0-189 39T854 139L823 0H709l26 209h-8Q618 77 536 29T358-20q-122 0-191 99T98 348q0 206 70 385t192 281 263 102q82 0 145-48t102-144h11l67 172h109l-31-146q123 166 332 166 119 0 192-68t74-184q0-182-166-283T985 479h-39l-4-80q0-131 62-204t194-74q55 0 116 16t179 68V55q-164-75-328-75M412 119q95 0 188 91t153 241 60 299q0 103-45 164t-123 61q-99 0-187-86T320 657t-50-309q0-114 37-171t105-58m913 854q-117 0-211-94T973 618h14q226 0 348 58t123 170q0 61-35 94t-98 33" glyph-name="ae" horiz-adv-x="1669" unicode="æ"/><glyph d="M506-20Q312-20 205 87T98 389q0 200 74 369t204 263 294 95q137 0 268-51l-47-141q-120 51-219 51-112 0-204-76T323 686t-53-297q0-128 66-199t184-71q72 0 136 20t126 47V43Q658-20 506-20m86-256q0-98-81-157t-214-59q-41 0-86 9v100q38-6 68-6 174 0 174 110 0 46-39 67t-99 30L416 0h106l-61-121q131-38 131-155" glyph-name="ccedilla" horiz-adv-x="922" unicode="ç"/><glyph d="M492-20Q308-20 203 89T98 391q0 188 74 360t198 269 271 96q153 0 230-66t77-186q0-180-166-282T307 479h-33l-4-80q0-131 61-204t191-74q63 0 129 18t166 66V59Q723 15 651-2T492-20m139 993q-103 0-193-94T299 618h12q228 0 349 59t122 173q0 53-36 88t-115 35m402 268H929q-61 61-128 154t-96 153v21h181q43-136 147-303z" glyph-name="egrave" horiz-adv-x="1010" unicode="è"/><glyph d="M492-20Q308-20 203 89T98 391q0 188 74 360t198 269 271 96q153 0 230-66t77-186q0-180-166-282T307 479h-33l-4-80q0-131 61-204t191-74q63 0 129 18t166 66V59Q723 15 651-2T492-20m139 993q-103 0-193-94T299 618h12q228 0 349 59t122 173q0 53-36 88t-115 35m-46 295q56 60 125 151t107 150h190v-21q-38-49-140-151t-177-156H585z" glyph-name="eacute" horiz-adv-x="1010" unicode="é"/><glyph d="M492-20Q308-20 203 89T98 391q0 188 74 360t198 269 271 96q153 0 230-66t77-186q0-180-166-282T307 479h-33l-4-80q0-131 61-204t191-74q63 0 129 18t166 66V59Q723 15 651-2T492-20m139 993q-103 0-193-94T299 618h12q228 0 349 59t122 173q0 53-36 88t-115 35m591 268h-103q-57 48-161 189-134-119-242-189H607v27q145 133 204 197t83 104h158q37-99 128-235l42-66z" glyph-name="ecircumflex" horiz-adv-x="1010" unicode="ê"/><glyph d="M492-20Q308-20 203 89T98 391q0 188 74 360t198 269 271 96q153 0 230-66t77-186q0-180-166-282T307 479h-33l-4-80q0-131 61-204t191-74q63 0 129 18t166 66V59Q723 15 651-2T492-20m139 993q-103 0-193-94T299 618h12q228 0 349 59t122 173q0 53-36 88t-115 35m38 405q0 46 28 79t74 34q78 0 78-80 0-49-29-83t-69-34q-35 0-58 22t-24 62m364 0q0 46 28 79t75 34q77 0 77-80 0-49-29-83t-69-34q-35 0-58 22t-24 62" glyph-name="edieresis" horiz-adv-x="1010" unicode="ë"/><glyph d="M227 0H59l234 1096h168zm265 1241H388q-61 61-128 154t-96 153v21h181q43-136 147-303z" glyph-name="igrave" horiz-adv-x="520" unicode="ì"/><glyph d="M227 0H59l234 1096h168zm97 1268q56 60 125 151t107 150h190v-21q-38-49-140-151t-177-156H324z" glyph-name="iacute" horiz-adv-x="520" unicode="í"/><glyph d="M227 0H59l234 1096h168zm481 1241H605q-57 48-161 189-134-119-242-189H93v27q145 133 204 197t83 104h158q37-99 128-235l42-66z" glyph-name="icircumflex" horiz-adv-x="520" unicode="î"/><glyph d="M227 0H59l234 1096h168zm-66 1378q0 46 28 79t74 34q78 0 78-80 0-49-29-83t-69-34q-35 0-58 22t-24 62m364 0q0 46 28 79t75 34q77 0 77-80 0-49-29-83t-69-34q-35 0-58 22t-24 62" glyph-name="idieresis" horiz-adv-x="520" unicode="ï"/><glyph d="M676 1343q-66 58-146 113l95 117q118-84 188-154l260 146 64-105-240-133q87-115 126-240t40-270q0-253-71-447T789 78 477-20Q295-20 193 84T90 373q0 160 67 298t187 217 268 79q105 0 181-45t112-125l6 2v17q0 136-36 240t-111 197l-270-149-56 108zM487 121q107 0 190 56t134 168 51 226q0 118-65 187t-179 69q-109 0-189-57T306 609t-44-232q0-126 57-191t168-65" glyph-name="eth" horiz-adv-x="1165" unicode="ð"/><glyph d="m729 0 148 692q20 104 20 144 0 63-35 101t-114 38q-89 0-173-60T426 744t-98-269L227 0H59l234 1096h139l-22-203h10q96 122 185 172t186 51q127 0 200-69t74-195q0-79-23-180L899 0zm142 1243q-40 0-77 17t-73 39-69 39-66 18q-44 0-69-28t-48-87H369q58 258 231 258 44 0 83-18t75-39 67-40 58-18q44 0 69 27t52 90h100q-66-258-233-258" glyph-name="ntilde" horiz-adv-x="1182" unicode="ñ"/><glyph d="M643 1110q190 0 300-112t110-310q0-188-72-355T786 75 508-16Q316-16 207 97T98 406q0 190 73 357t197 257 275 90m236-399q0 115-62 186t-170 72q-109 0-195-74T318 690t-48-293q0-131 63-202t183-72q104 0 187 73t129 207 47 308m175 530H950q-61 61-128 154t-96 153v21h181q43-136 147-303z" glyph-name="ograve" horiz-adv-x="1149" unicode="ò"/><glyph d="M643 1110q190 0 300-112t110-310q0-188-72-355T786 75 508-16Q316-16 207 97T98 406q0 190 73 357t197 257 275 90m236-399q0 115-62 186t-170 72q-109 0-195-74T318 690t-48-293q0-131 63-202t183-72q104 0 187 73t129 207 47 308m-290 557q56 60 125 151t107 150h190v-21q-38-49-140-151t-177-156H589z" glyph-name="oacute" horiz-adv-x="1149" unicode="ó"/><glyph d="M643 1110q190 0 300-112t110-310q0-188-72-355T786 75 508-16Q316-16 207 97T98 406q0 190 73 357t197 257 275 90m236-399q0 115-62 186t-170 72q-109 0-195-74T318 690t-48-293q0-131 63-202t183-72q104 0 187 73t129 207 47 308m374 530h-103q-57 48-161 189-134-119-242-189H638v27q145 133 204 197t83 104h158q37-99 128-235l42-66z" glyph-name="ocircumflex" horiz-adv-x="1149" unicode="ô"/><glyph d="M643 1110q190 0 300-112t110-310q0-188-72-355T786 75 508-16Q316-16 207 97T98 406q0 190 73 357t197 257 275 90m236-399q0 115-62 186t-170 72q-109 0-195-74T318 690t-48-293q0-131 63-202t183-72q104 0 187 73t129 207 47 308m-35 532q-40 0-77 17t-73 39-69 39-66 18q-44 0-69-28t-48-87H342q58 258 231 258 44 0 83-18t75-39 67-40 58-18q44 0 69 27t52 90h100q-66-258-233-258" glyph-name="otilde" horiz-adv-x="1149" unicode="õ"/><glyph d="M643 1110q190 0 300-112t110-310q0-188-72-355T786 75 508-16Q316-16 207 97T98 406q0 190 73 357t197 257 275 90m236-399q0 115-62 186t-170 72q-109 0-195-74T318 690t-48-293q0-131 63-202t183-72q104 0 187 73t129 207 47 308m-190 667q0 46 28 79t74 34q78 0 78-80 0-49-29-83t-69-34q-35 0-58 22t-24 62m364 0q0 46 28 79t75 34q77 0 77-80 0-49-29-83t-69-34q-35 0-58 22t-24 62" glyph-name="odieresis" horiz-adv-x="1149" unicode="ö"/><glyph d="M127 651v142h920V651zm348-278q0 121 111 121 53 0 82-30t30-91q0-58-30-89t-82-32q-52 0-81 31t-30 90m0 698q0 121 111 121 53 0 82-30t30-91q0-58-30-89t-82-32q-52 0-81 31t-30 90" glyph-name="divide" horiz-adv-x="1128" unicode="÷"/><glyph d="M1047 705q0-189-69-360T786 79 510-16q-146 0-246 65L166-76 61 6l109 135q-68 103-68 265 0 194 73 361t196 255 272 88q146 0 252-68l104 129 105-79-119-129q62-97 62-258M647 971q-108 0-195-73T314 696t-50-280q0-92 17-137l518 645q-54 47-152 47m238-283q0 84-13 119L358 166q57-45 158-45 103 0 188 71t133 201 48 295" glyph-name="oslash" horiz-adv-x="1149" unicode="ø"/><glyph d="M451 1096 301 401q-18-89-18-139 0-143 147-143 88 0 173 60t150 172 99 270l100 475h166L887 0H748l22 203h-12Q660 78 571 29T387-20q-128 0-201 69t-73 199q0 62 22 172l146 676zm605 145H952q-61 61-128 154t-96 153v21h181q43-136 147-303z" glyph-name="ugrave" horiz-adv-x="1182" unicode="ù"/><glyph d="M451 1096 301 401q-18-89-18-139 0-143 147-143 88 0 173 60t150 172 99 270l100 475h166L887 0H748l22 203h-12Q660 78 571 29T387-20q-128 0-201 69t-73 199q0 62 22 172l146 676zm185 172q56 60 125 151t107 150h190v-21q-38-49-140-151t-177-156H636z" glyph-name="uacute" horiz-adv-x="1182" unicode="ú"/><glyph d="M451 1096 301 401q-18-89-18-139 0-143 147-143 88 0 173 60t150 172 99 270l100 475h166L887 0H748l22 203h-12Q660 78 571 29T387-20q-128 0-201 69t-73 199q0 62 22 172l146 676zm573 145H921q-57 48-161 189-134-119-242-189H409v27q145 133 204 197t83 104h158q37-99 128-235l42-66z" glyph-name="ucircumflex" horiz-adv-x="1182" unicode="û"/><glyph d="M451 1096 301 401q-18-89-18-139 0-143 147-143 88 0 173 60t150 172 99 270l100 475h166L887 0H748l22 203h-12Q660 78 571 29T387-20q-128 0-201 69t-73 199q0 62 22 172l146 676zm6 282q0 46 28 79t74 34q78 0 78-80 0-49-29-83t-69-34q-35 0-58 22t-24 62m364 0q0 46 28 79t75 34q77 0 77-80 0-49-29-83t-69-34q-35 0-58 22t-24 62" glyph-name="udieresis" horiz-adv-x="1182" unicode="ü"/><glyph d="M98 1096h168l74-545q10-69 19-203t10-217h6q35 87 87 200t77 156l325 609h178L346-186q-93-172-184-239t-219-67q-72 0-140 21v135q63-18 131-18 82 0 140 50t114 150l76 136zm658 172q56 60 125 151t107 150h190v-21q-38-49-140-151t-177-156H756z" glyph-name="yacute" horiz-adv-x="946" unicode="ý"/><glyph d="M545-20q-98 0-172 51T260 170h-10Q242 66 225-6L123-492H-43l432 2048h168q-95-441-115-522t-39-149h9q101 125 189 177t183 52q139 0 218-97t79-274q0-212-69-389T821 79 545-20m186 995q-96 0-195-95T378 641t-59-295q0-110 55-168t161-59q99 0 184 81t138 230 52 318q0 227-178 227" glyph-name="thorn" horiz-adv-x="1182" unicode="þ"/><glyph d="M98 1096h168l74-545q10-69 19-203t10-217h6q35 87 87 200t77 156l325 609h178L346-186q-93-172-184-239t-219-67q-72 0-140 21v135q63-18 131-18 82 0 140 50t114 150l76 136zm493 282q0 46 28 79t74 34q78 0 78-80 0-49-29-83t-69-34q-35 0-58 22t-24 62m364 0q0 46 28 79t75 34q77 0 77-80 0-49-29-83t-69-34q-35 0-58 22t-24 62" glyph-name="ydieresis" horiz-adv-x="946" unicode="ÿ"/><glyph d="m55 469 35 160h823l-34-160z" glyph-name="endash" horiz-adv-x="983" unicode="–"/><glyph d="m55 469 35 160h1806l-34-160z" glyph-name="emdash" horiz-adv-x="1966" unicode="—"/><glyph d="m129 961-6 22q98 211 270 479h127q-147-345-203-501z" glyph-name="quoteleft" horiz-adv-x="348" unicode="‘"/><glyph d="m516 1462 8-22q-40-91-111-218T254 961H125q134 298 203 501z" glyph-name="quoteright" horiz-adv-x="348" unicode="’"/><glyph d="m291 238 8-23Q186-20 29-264h-129Q26 22 104 238z" glyph-name="quotesinglbase" horiz-adv-x="492" unicode="‚"/><glyph d="m500 961-8 22q80 181 272 479h127q-162-379-203-501zm-371 0-6 22q98 211 270 479h127q-147-345-203-501z" glyph-name="quotedblleft" horiz-adv-x="719" unicode="“"/><glyph d="m516 1462 8-22q-40-91-111-218T254 961H125q134 298 203 501zm369 0 10-22q-94-206-274-479H494q57 126 115 272t87 229z" glyph-name="quotedblright" horiz-adv-x="719" unicode="”"/><glyph d="m291 238 8-23Q186-20 29-264h-129Q26 22 104 238zm368 0 9-23Q573 10 397-264H268Q408 52 471 238z" glyph-name="quotedblbase" horiz-adv-x="858" unicode="„"/><glyph d="M199 684q0 145 73 231t199 86q92 0 139-49t47-141q0-141-74-230t-202-89q-89 0-135 49t-47 143" glyph-name="bullet" horiz-adv-x="774" unicode="•"/><glyph d="m88 578 391 380 78-81-297-334 172-381-113-49L88 549z" glyph-name="guilsinglleft" horiz-adv-x="580" unicode="‹"/><glyph d="M492 496 100 115l-77 82 296 333-172 381 113 50 232-437z" glyph-name="guilsinglright" horiz-adv-x="580" unicode="›"/></font>
</defs>
</svg>
