<svg xmlns="http://www.w3.org/2000/svg" id="Ebene_1" data-name="Ebene 1" viewBox="0 0 25 25"><defs><style>.cls-2{fill:#00457d;fill-rule:evenodd}</style></defs><circle cx="12.5" cy="12.5" r="10" style="fill:#fff"/><path d="M19.294 12.328a.5.5 0 0 1-.137-.022v.13a.8.8 0 0 0 .276.051.5.5 0 0 0 .567-.477c0-.28-.227-.509-.614-.509a.88.88 0 0 0-.861.957.747.747 0 0 0 .781.817.9.9 0 0 0 .688-.275l-.036-.134a.7.7 0 0 1-.4.13c-.272 0-.539-.13-.539-.647 0-.433.138-.688.336-.688.134 0 .231.1.231.295 0 .246-.115.362-.3.362M9.15 12.243l-.477.141c-.276.083-.416.228-.416.452a.45.45 0 0 0 .479.434.59.59 0 0 0 .491-.221.29.29 0 0 0 .315.224.43.43 0 0 0 .373-.159l-.044-.1a.1.1 0 0 1-.07.028c-.062 0-.105-.032-.105-.119v-.971c0-.311-.22-.458-.6-.458-.445 0-.8.208-.8.439a.2.2 0 0 0 .2.189h.012a.3.3 0 0 0 .078-.008.17.17 0 0 0 .141-.168v-.072c0-.134.058-.2.224-.2.148 0 .268.065.268.282v.2c0 .058-.019.072-.077.087m.076.553a.205.205 0 0 1-.188.221h-.041a.237.237 0 0 1-.261-.21v-.039a.35.35 0 0 1 .249-.325l.239-.1Z" class="cls-2"/><path d="m17.878 12.926-.5-.008c-.12 0-.2-.048-.2-.16a.23.23 0 0 1 .048-.119 1 1 0 0 0 .332.051c.491 0 .771-.271.771-.6a.54.54 0 0 0-.269-.463l-.031-.02a.4.4 0 0 0-.056-.029l-.028-.013a1 1 0 0 0-.147-.044h-.021c.043-.07.219-.4.4-.464.066-.024.112.007.184.071a.27.27 0 0 0 .206.114.285.285 0 0 0 .264-.242c0-.12-.032-.295-.324-.295-.406 0-.669.42-.816.709 0 0-.037.074-.045.1h-.085c-.492 0-.766.274-.766.59a.55.55 0 0 0 .315.491c-.1.091-.251.214-.251.348a.4.4 0 0 0 .006.07.35.35 0 0 0 .129.2.5.5 0 0 0 .172.078 1.5 1.5 0 0 0 .242.038l.282.01c.22.007.368.065.368.253 0 .221-.245.351-.589.351-.279 0-.492-.1-.492-.3a.28.28 0 0 1 .148-.244c-.076-.027-.145-.055-.2-.071a.36.36 0 0 0-.249.337c0 .239.257.434.724.434.676 0 1.066-.347 1.066-.708 0-.319-.242-.453-.589-.457m-.315-1.278c.22 0 .289.177.289.449s-.069.451-.289.451-.285-.177-.285-.451.065-.449.285-.449M7.076 12.872c0 .2.123.4.478.4a.6.6 0 0 0 .556-.344l-.09-.071a.33.33 0 0 1-.267.14.185.185 0 0 1-.206-.161v-1.045h.47v-.174H7.55v-.506h-.166a.635.635 0 0 1-.539.542v.138h.231Zm-1.606-.409c.008-.041.01-.127-.028-.157a.2.2 0 0 0-.069-.032c-.294-.04-.5.486-.28.715a.96.96 0 0 0 .693.284.85.85 0 0 0 1.008-.739c.024-.386-.262-.574-.652-.786l-.264-.124c-.224-.123-.341-.227-.333-.43a.42.42 0 0 1 .5-.386c.222.023.235.152.235.32l-.01.166a.115.115 0 0 0 .108.123.3.3 0 0 0 .345-.258c.014-.223-.117-.466-.658-.5-.584-.035-.945.295-.967.663-.018.307.136.5.492.7l.282.141c.273.15.433.272.418.532s-.147.458-.471.422a.4.4 0 0 1-.362-.426v-.056a1 1 0 0 1 .016-.169m4.812-.537v.962c0 .151-.025.21-.169.21h-.066v.144h.983V13.1h-.073c-.148 0-.2-.059-.2-.21v-.91a2 2 0 0 1 .254-.185.253.253 0 0 0 .263.228.263.263 0 0 0-.006-.525h-.026a.67.67 0 0 0-.492.3v-.012c0-.137-.1-.278-.333-.278a1.2 1.2 0 0 0-.4.079v.134a.5.5 0 0 1 .093-.011c.127 0 .177.084.177.211M12.563 13a.185.185 0 0 1-.206-.161v-1.045h.47v-.174h-.47v-.506h-.167a.63.63 0 0 1-.538.542v.138h.23v1.081c0 .2.123.4.477.4a.6.6 0 0 0 .557-.344l-.091-.071a.34.34 0 0 1-.263.14m1.63-1.506a.74.74 0 0 0-.5.2l.011-.2h-.123a1.05 1.05 0 0 1-.589.138v.144h.109c.1 0 .123.03.123.116v1.875c0 .151-.026.205-.173.205h-.07v.142h.983v-.142h-.1c-.144 0-.18-.06-.18-.209v-1.814c0-.148.108-.231.274-.231.224 0 .43.177.43.688 0 .474-.2.689-.421.709h-.1v.127c.042 0 .085.007.129.007a.865.865 0 0 0 .89-.947.73.73 0 0 0-.706-.814" class="cls-2"/><path d="m16.716 13.114-.043-.1a.1.1 0 0 1-.07.028c-.062 0-.105-.032-.105-.119v-.971c0-.311-.22-.458-.6-.458-.444 0-.8.208-.8.439a.2.2 0 0 0 .2.19h.016a.3.3 0 0 0 .078-.008.17.17 0 0 0 .136-.168v-.072c0-.134.058-.2.224-.2.148 0 .267.065.267.282v.2c0 .058-.017.072-.075.087l-.478.141c-.274.083-.415.228-.415.452a.45.45 0 0 0 .481.434.59.59 0 0 0 .491-.221.287.287 0 0 0 .314.224.43.43 0 0 0 .371-.159m-.688-.318a.205.205 0 0 1-.188.221.2.2 0 0 1-.044 0 .24.24 0 0 1-.259-.213v-.037a.35.35 0 0 1 .248-.325l.239-.1ZM12.479 14a36 36 0 0 0-2.227-.208 35 35 0 0 0-1.843-.058 19.5 19.5 0 0 0-3.1.165c-.385.041-.382.491.047.44a52 52 0 0 1 2.288-.213c.63-.041 1.584-.093 2.631-.1.919 0 1.732.017 2.192.051a.042.042 0 1 0 .009-.084" class="cls-2"/></svg>